G04 #@! TF.FileFunction,Legend,Top*
%FSLAX46Y46*%
G04 Gerber Fmt 4.6, Leading zero omitted, Abs format (unit mm)*
G04 Created by KiCad (PCBNEW 4.0.2+e4-6225~38~ubuntu14.04.1-stable) date Sa 25 Jun 2016 13:28:15 CEST*
%MOMM*%
G01*
G04 APERTURE LIST*
%ADD10C,0.100000*%
%ADD11C,0.200000*%
%ADD12C,0.300000*%
%ADD13C,0.125000*%
%ADD14C,0.500000*%
%ADD15C,0.150000*%
G04 APERTURE END LIST*
D10*
D11*
X107950000Y-86360000D02*
X108585000Y-86360000D01*
X108585000Y-81280000D02*
X107950000Y-81280000D01*
X107950000Y-76200000D02*
X108585000Y-76200000D01*
X107950000Y-71120000D02*
X108585000Y-71120000D01*
X107950000Y-66040000D02*
X108585000Y-66040000D01*
X108585000Y-60960000D02*
X108585000Y-66040000D01*
X107950000Y-60960000D02*
X108585000Y-60960000D01*
X108585000Y-91440000D02*
X107950000Y-91440000D01*
X108585000Y-55880000D02*
X108585000Y-91440000D01*
X107950000Y-55880000D02*
X108585000Y-55880000D01*
D12*
X54018571Y-37664821D02*
X52518571Y-37477321D01*
X53875714Y-36075535D02*
X53947143Y-36155893D01*
X54018571Y-36379107D01*
X54018571Y-36521964D01*
X53947143Y-36727321D01*
X53804286Y-36852322D01*
X53661429Y-36905893D01*
X53375714Y-36941607D01*
X53161429Y-36914822D01*
X52875714Y-36807678D01*
X52732857Y-36718393D01*
X52590000Y-36557678D01*
X52518571Y-36334464D01*
X52518571Y-36191607D01*
X52590000Y-35986250D01*
X52661429Y-35923750D01*
D11*
X106680000Y-20955000D02*
X106680000Y-21590000D01*
X67310000Y-20955000D02*
X106680000Y-20955000D01*
X67310000Y-21590000D02*
X67310000Y-20955000D01*
X66675000Y-20955000D02*
X66675000Y-21590000D01*
X54610000Y-20955000D02*
X66675000Y-20955000D01*
X54610000Y-21590000D02*
X54610000Y-20955000D01*
D12*
X54018571Y-42532857D02*
X52518571Y-42532857D01*
X53590000Y-42032857D01*
X52518571Y-41532857D01*
X54018571Y-41532857D01*
X53590000Y-40890000D02*
X53590000Y-40175714D01*
X54018571Y-41032857D02*
X52518571Y-40532857D01*
X54018571Y-40032857D01*
X52590000Y-38747143D02*
X52518571Y-38890000D01*
X52518571Y-39104286D01*
X52590000Y-39318571D01*
X52732857Y-39461429D01*
X52875714Y-39532857D01*
X53161429Y-39604286D01*
X53375714Y-39604286D01*
X53661429Y-39532857D01*
X53804286Y-39461429D01*
X53947143Y-39318571D01*
X54018571Y-39104286D01*
X54018571Y-38961429D01*
X53947143Y-38747143D01*
X53875714Y-38675714D01*
X53375714Y-38675714D01*
X53375714Y-38961429D01*
D11*
X54610000Y-42545000D02*
X66675000Y-42545000D01*
X54610000Y-21590000D02*
X54610000Y-42545000D01*
X66675000Y-42545000D02*
X66675000Y-21590000D01*
X95504000Y-55880000D02*
X95504000Y-91440000D01*
X81280000Y-55880000D02*
X81280000Y-91440000D01*
X69088000Y-55880000D02*
X69088000Y-91440000D01*
X56896000Y-55880000D02*
X56896000Y-91440000D01*
X44704000Y-55880000D02*
X44704000Y-91440000D01*
X34925000Y-55880000D02*
X107950000Y-55880000D01*
X34925000Y-60960000D02*
X34925000Y-55880000D01*
X34925000Y-60960000D02*
X34925000Y-91440000D01*
X36068000Y-89662000D02*
X38354000Y-89662000D01*
X36068000Y-84582000D02*
X38354000Y-84582000D01*
X38354000Y-79502000D02*
X38354000Y-79756000D01*
X36068000Y-79502000D02*
X38354000Y-79502000D01*
X36068000Y-74422000D02*
X38354000Y-74422000D01*
X36068000Y-69342000D02*
X38354000Y-69342000D01*
X36068000Y-64262000D02*
X38354000Y-64262000D01*
X106680000Y-21590000D02*
X106680000Y-26035000D01*
X67310000Y-42545000D02*
X67310000Y-21590000D01*
X96520000Y-42545000D02*
X67310000Y-42545000D01*
X26035000Y-41275000D02*
X34290000Y-41275000D01*
X26035000Y-32385000D02*
X26035000Y-41275000D01*
X34290000Y-32385000D02*
X26035000Y-32385000D01*
X34290000Y-41275000D02*
X34290000Y-32385000D01*
D13*
X28365476Y-34575714D02*
X28327381Y-34613810D01*
X28213095Y-34651905D01*
X28136905Y-34651905D01*
X28022619Y-34613810D01*
X27946428Y-34537619D01*
X27908333Y-34461429D01*
X27870238Y-34309048D01*
X27870238Y-34194762D01*
X27908333Y-34042381D01*
X27946428Y-33966190D01*
X28022619Y-33890000D01*
X28136905Y-33851905D01*
X28213095Y-33851905D01*
X28327381Y-33890000D01*
X28365476Y-33928095D01*
X28632143Y-33851905D02*
X28822619Y-34651905D01*
X28975000Y-34080476D01*
X29127381Y-34651905D01*
X29317857Y-33851905D01*
X26879762Y-36391905D02*
X27070238Y-37191905D01*
X27222619Y-36620476D01*
X27375000Y-37191905D01*
X27565476Y-36391905D01*
X27870238Y-37191905D02*
X27870238Y-36391905D01*
X28251190Y-37191905D02*
X28251190Y-36391905D01*
X28555952Y-36391905D01*
X28632143Y-36430000D01*
X28670238Y-36468095D01*
X28708333Y-36544286D01*
X28708333Y-36658571D01*
X28670238Y-36734762D01*
X28632143Y-36772857D01*
X28555952Y-36810952D01*
X28251190Y-36810952D01*
X29051190Y-36772857D02*
X29317857Y-36772857D01*
X29432143Y-37191905D02*
X29051190Y-37191905D01*
X29051190Y-36391905D01*
X29432143Y-36391905D01*
X30232143Y-37191905D02*
X29965476Y-36810952D01*
X29775000Y-37191905D02*
X29775000Y-36391905D01*
X30079762Y-36391905D01*
X30155953Y-36430000D01*
X30194048Y-36468095D01*
X30232143Y-36544286D01*
X30232143Y-36658571D01*
X30194048Y-36734762D01*
X30155953Y-36772857D01*
X30079762Y-36810952D01*
X29775000Y-36810952D01*
X27965476Y-39655714D02*
X27927381Y-39693810D01*
X27813095Y-39731905D01*
X27736905Y-39731905D01*
X27622619Y-39693810D01*
X27546428Y-39617619D01*
X27508333Y-39541429D01*
X27470238Y-39389048D01*
X27470238Y-39274762D01*
X27508333Y-39122381D01*
X27546428Y-39046190D01*
X27622619Y-38970000D01*
X27736905Y-38931905D01*
X27813095Y-38931905D01*
X27927381Y-38970000D01*
X27965476Y-39008095D01*
X28765476Y-39655714D02*
X28727381Y-39693810D01*
X28613095Y-39731905D01*
X28536905Y-39731905D01*
X28422619Y-39693810D01*
X28346428Y-39617619D01*
X28308333Y-39541429D01*
X28270238Y-39389048D01*
X28270238Y-39274762D01*
X28308333Y-39122381D01*
X28346428Y-39046190D01*
X28422619Y-38970000D01*
X28536905Y-38931905D01*
X28613095Y-38931905D01*
X28727381Y-38970000D01*
X28765476Y-39008095D01*
X29032143Y-38931905D02*
X29222619Y-39731905D01*
X29375000Y-39160476D01*
X29527381Y-39731905D01*
X29717857Y-38931905D01*
D11*
X46355000Y-41275000D02*
X46355000Y-32385000D01*
X38100000Y-41275000D02*
X46355000Y-41275000D01*
X38100000Y-32385000D02*
X38100000Y-41275000D01*
X46355000Y-32385000D02*
X38100000Y-32385000D01*
D13*
X40430476Y-39655714D02*
X40392381Y-39693810D01*
X40278095Y-39731905D01*
X40201905Y-39731905D01*
X40087619Y-39693810D01*
X40011428Y-39617619D01*
X39973333Y-39541429D01*
X39935238Y-39389048D01*
X39935238Y-39274762D01*
X39973333Y-39122381D01*
X40011428Y-39046190D01*
X40087619Y-38970000D01*
X40201905Y-38931905D01*
X40278095Y-38931905D01*
X40392381Y-38970000D01*
X40430476Y-39008095D01*
X40697143Y-38931905D02*
X40887619Y-39731905D01*
X41040000Y-39160476D01*
X41192381Y-39731905D01*
X41382857Y-38931905D01*
X38944762Y-36391905D02*
X39135238Y-37191905D01*
X39287619Y-36620476D01*
X39440000Y-37191905D01*
X39630476Y-36391905D01*
X39935238Y-37191905D02*
X39935238Y-36391905D01*
X40316190Y-37191905D02*
X40316190Y-36391905D01*
X40620952Y-36391905D01*
X40697143Y-36430000D01*
X40735238Y-36468095D01*
X40773333Y-36544286D01*
X40773333Y-36658571D01*
X40735238Y-36734762D01*
X40697143Y-36772857D01*
X40620952Y-36810952D01*
X40316190Y-36810952D01*
X41116190Y-36772857D02*
X41382857Y-36772857D01*
X41497143Y-37191905D02*
X41116190Y-37191905D01*
X41116190Y-36391905D01*
X41497143Y-36391905D01*
X42297143Y-37191905D02*
X42030476Y-36810952D01*
X41840000Y-37191905D02*
X41840000Y-36391905D01*
X42144762Y-36391905D01*
X42220953Y-36430000D01*
X42259048Y-36468095D01*
X42297143Y-36544286D01*
X42297143Y-36658571D01*
X42259048Y-36734762D01*
X42220953Y-36772857D01*
X42144762Y-36810952D01*
X41840000Y-36810952D01*
X40030476Y-34575714D02*
X39992381Y-34613810D01*
X39878095Y-34651905D01*
X39801905Y-34651905D01*
X39687619Y-34613810D01*
X39611428Y-34537619D01*
X39573333Y-34461429D01*
X39535238Y-34309048D01*
X39535238Y-34194762D01*
X39573333Y-34042381D01*
X39611428Y-33966190D01*
X39687619Y-33890000D01*
X39801905Y-33851905D01*
X39878095Y-33851905D01*
X39992381Y-33890000D01*
X40030476Y-33928095D01*
X40830476Y-34575714D02*
X40792381Y-34613810D01*
X40678095Y-34651905D01*
X40601905Y-34651905D01*
X40487619Y-34613810D01*
X40411428Y-34537619D01*
X40373333Y-34461429D01*
X40335238Y-34309048D01*
X40335238Y-34194762D01*
X40373333Y-34042381D01*
X40411428Y-33966190D01*
X40487619Y-33890000D01*
X40601905Y-33851905D01*
X40678095Y-33851905D01*
X40792381Y-33890000D01*
X40830476Y-33928095D01*
X41097143Y-33851905D02*
X41287619Y-34651905D01*
X41440000Y-34080476D01*
X41592381Y-34651905D01*
X41782857Y-33851905D01*
D11*
X96520000Y-26035000D02*
X106680000Y-26035000D01*
X96520000Y-42545000D02*
X96520000Y-26035000D01*
X106680000Y-42545000D02*
X96520000Y-42545000D01*
X106680000Y-26035000D02*
X106680000Y-42545000D01*
D13*
X99015715Y-38461905D02*
X98634762Y-38461905D01*
X98634762Y-37661905D01*
X99282381Y-38042857D02*
X99549048Y-38042857D01*
X99663334Y-38461905D02*
X99282381Y-38461905D01*
X99282381Y-37661905D01*
X99663334Y-37661905D01*
X100006191Y-38461905D02*
X100006191Y-37661905D01*
X100196667Y-37661905D01*
X100310953Y-37700000D01*
X100387144Y-37776190D01*
X100425239Y-37852381D01*
X100463334Y-38004762D01*
X100463334Y-38119048D01*
X100425239Y-38271429D01*
X100387144Y-38347619D01*
X100310953Y-38423810D01*
X100196667Y-38461905D01*
X100006191Y-38461905D01*
X101415715Y-38157143D02*
X102025239Y-38157143D01*
X101720477Y-38461905D02*
X101720477Y-37852381D01*
X97415714Y-35921905D02*
X97415714Y-35121905D01*
X97720476Y-35121905D01*
X97796667Y-35160000D01*
X97834762Y-35198095D01*
X97872857Y-35274286D01*
X97872857Y-35388571D01*
X97834762Y-35464762D01*
X97796667Y-35502857D01*
X97720476Y-35540952D01*
X97415714Y-35540952D01*
X98139524Y-35121905D02*
X98330000Y-35921905D01*
X98482381Y-35350476D01*
X98634762Y-35921905D01*
X98825238Y-35121905D01*
X99587143Y-35921905D02*
X99320476Y-35540952D01*
X99130000Y-35921905D02*
X99130000Y-35121905D01*
X99434762Y-35121905D01*
X99510953Y-35160000D01*
X99549048Y-35198095D01*
X99587143Y-35274286D01*
X99587143Y-35388571D01*
X99549048Y-35464762D01*
X99510953Y-35502857D01*
X99434762Y-35540952D01*
X99130000Y-35540952D01*
X99739524Y-35998095D02*
X100349048Y-35998095D01*
X100501429Y-35883810D02*
X100615715Y-35921905D01*
X100806191Y-35921905D01*
X100882381Y-35883810D01*
X100920477Y-35845714D01*
X100958572Y-35769524D01*
X100958572Y-35693333D01*
X100920477Y-35617143D01*
X100882381Y-35579048D01*
X100806191Y-35540952D01*
X100653810Y-35502857D01*
X100577619Y-35464762D01*
X100539524Y-35426667D01*
X100501429Y-35350476D01*
X100501429Y-35274286D01*
X100539524Y-35198095D01*
X100577619Y-35160000D01*
X100653810Y-35121905D01*
X100844286Y-35121905D01*
X100958572Y-35160000D01*
X101225239Y-35121905D02*
X101415715Y-35921905D01*
X101568096Y-35350476D01*
X101720477Y-35921905D01*
X101910953Y-35121905D01*
X102025239Y-35998095D02*
X102634763Y-35998095D01*
X103091906Y-35502857D02*
X103206192Y-35540952D01*
X103244287Y-35579048D01*
X103282382Y-35655238D01*
X103282382Y-35769524D01*
X103244287Y-35845714D01*
X103206192Y-35883810D01*
X103130001Y-35921905D01*
X102825239Y-35921905D01*
X102825239Y-35121905D01*
X103091906Y-35121905D01*
X103168096Y-35160000D01*
X103206192Y-35198095D01*
X103244287Y-35274286D01*
X103244287Y-35350476D01*
X103206192Y-35426667D01*
X103168096Y-35464762D01*
X103091906Y-35502857D01*
X102825239Y-35502857D01*
X97472857Y-33381905D02*
X97472857Y-32581905D01*
X97777619Y-32581905D01*
X97853810Y-32620000D01*
X97891905Y-32658095D01*
X97930000Y-32734286D01*
X97930000Y-32848571D01*
X97891905Y-32924762D01*
X97853810Y-32962857D01*
X97777619Y-33000952D01*
X97472857Y-33000952D01*
X98196667Y-32581905D02*
X98387143Y-33381905D01*
X98539524Y-32810476D01*
X98691905Y-33381905D01*
X98882381Y-32581905D01*
X99644286Y-33381905D02*
X99377619Y-33000952D01*
X99187143Y-33381905D02*
X99187143Y-32581905D01*
X99491905Y-32581905D01*
X99568096Y-32620000D01*
X99606191Y-32658095D01*
X99644286Y-32734286D01*
X99644286Y-32848571D01*
X99606191Y-32924762D01*
X99568096Y-32962857D01*
X99491905Y-33000952D01*
X99187143Y-33000952D01*
X99796667Y-33458095D02*
X100406191Y-33458095D01*
X100558572Y-33343810D02*
X100672858Y-33381905D01*
X100863334Y-33381905D01*
X100939524Y-33343810D01*
X100977620Y-33305714D01*
X101015715Y-33229524D01*
X101015715Y-33153333D01*
X100977620Y-33077143D01*
X100939524Y-33039048D01*
X100863334Y-33000952D01*
X100710953Y-32962857D01*
X100634762Y-32924762D01*
X100596667Y-32886667D01*
X100558572Y-32810476D01*
X100558572Y-32734286D01*
X100596667Y-32658095D01*
X100634762Y-32620000D01*
X100710953Y-32581905D01*
X100901429Y-32581905D01*
X101015715Y-32620000D01*
X101282382Y-32581905D02*
X101472858Y-33381905D01*
X101625239Y-32810476D01*
X101777620Y-33381905D01*
X101968096Y-32581905D01*
X102082382Y-33458095D02*
X102691906Y-33458095D01*
X102844287Y-33153333D02*
X103225239Y-33153333D01*
X102768096Y-33381905D02*
X103034763Y-32581905D01*
X103301430Y-33381905D01*
X99834762Y-28301905D02*
X99987143Y-28301905D01*
X100063334Y-28263810D01*
X100101429Y-28225714D01*
X100177620Y-28111429D01*
X100215715Y-27959048D01*
X100215715Y-27654286D01*
X100177620Y-27578095D01*
X100139524Y-27540000D01*
X100063334Y-27501905D01*
X99910953Y-27501905D01*
X99834762Y-27540000D01*
X99796667Y-27578095D01*
X99758572Y-27654286D01*
X99758572Y-27844762D01*
X99796667Y-27920952D01*
X99834762Y-27959048D01*
X99910953Y-27997143D01*
X100063334Y-27997143D01*
X100139524Y-27959048D01*
X100177620Y-27920952D01*
X100215715Y-27844762D01*
X100444286Y-27501905D02*
X100710953Y-28301905D01*
X100977620Y-27501905D01*
X99720477Y-30080000D02*
X99644286Y-30041905D01*
X99530001Y-30041905D01*
X99415715Y-30080000D01*
X99339524Y-30156190D01*
X99301429Y-30232381D01*
X99263334Y-30384762D01*
X99263334Y-30499048D01*
X99301429Y-30651429D01*
X99339524Y-30727619D01*
X99415715Y-30803810D01*
X99530001Y-30841905D01*
X99606191Y-30841905D01*
X99720477Y-30803810D01*
X99758572Y-30765714D01*
X99758572Y-30499048D01*
X99606191Y-30499048D01*
X100101429Y-30841905D02*
X100101429Y-30041905D01*
X100558572Y-30841905D01*
X100558572Y-30041905D01*
X100939524Y-30841905D02*
X100939524Y-30041905D01*
X101130000Y-30041905D01*
X101244286Y-30080000D01*
X101320477Y-30156190D01*
X101358572Y-30232381D01*
X101396667Y-30384762D01*
X101396667Y-30499048D01*
X101358572Y-30651429D01*
X101320477Y-30727619D01*
X101244286Y-30803810D01*
X101130000Y-30841905D01*
X100939524Y-30841905D01*
X99015715Y-41001905D02*
X98634762Y-41001905D01*
X98634762Y-40201905D01*
X99282381Y-40582857D02*
X99549048Y-40582857D01*
X99663334Y-41001905D02*
X99282381Y-41001905D01*
X99282381Y-40201905D01*
X99663334Y-40201905D01*
X100006191Y-41001905D02*
X100006191Y-40201905D01*
X100196667Y-40201905D01*
X100310953Y-40240000D01*
X100387144Y-40316190D01*
X100425239Y-40392381D01*
X100463334Y-40544762D01*
X100463334Y-40659048D01*
X100425239Y-40811429D01*
X100387144Y-40887619D01*
X100310953Y-40963810D01*
X100196667Y-41001905D01*
X100006191Y-41001905D01*
X101415715Y-40697143D02*
X102025239Y-40697143D01*
D11*
X56515000Y-55245000D02*
X56515000Y-45720000D01*
X78105000Y-55245000D02*
X56515000Y-55245000D01*
X78105000Y-54610000D02*
X78105000Y-55245000D01*
X78105000Y-45720000D02*
X78105000Y-54610000D01*
X56515000Y-45720000D02*
X78105000Y-45720000D01*
X26035000Y-55245000D02*
X26035000Y-45720000D01*
X26670000Y-55245000D02*
X26035000Y-55245000D01*
X47625000Y-55245000D02*
X26670000Y-55245000D01*
X47625000Y-45720000D02*
X47625000Y-55245000D01*
X26035000Y-45720000D02*
X47625000Y-45720000D01*
D13*
X28340000Y-51714477D02*
X28378095Y-51638286D01*
X28378095Y-51524001D01*
X28340000Y-51409715D01*
X28263810Y-51333524D01*
X28187619Y-51295429D01*
X28035238Y-51257334D01*
X27920952Y-51257334D01*
X27768571Y-51295429D01*
X27692381Y-51333524D01*
X27616190Y-51409715D01*
X27578095Y-51524001D01*
X27578095Y-51600191D01*
X27616190Y-51714477D01*
X27654286Y-51752572D01*
X27920952Y-51752572D01*
X27920952Y-51600191D01*
X27578095Y-52095429D02*
X28378095Y-52095429D01*
X27578095Y-52552572D01*
X28378095Y-52552572D01*
X27578095Y-52933524D02*
X28378095Y-52933524D01*
X28378095Y-53124000D01*
X28340000Y-53238286D01*
X28263810Y-53314477D01*
X28187619Y-53352572D01*
X28035238Y-53390667D01*
X27920952Y-53390667D01*
X27768571Y-53352572D01*
X27692381Y-53314477D01*
X27616190Y-53238286D01*
X27578095Y-53124000D01*
X27578095Y-52933524D01*
X46158095Y-50127143D02*
X46158095Y-50279524D01*
X46120000Y-50355715D01*
X46043810Y-50431905D01*
X45891429Y-50470000D01*
X45624762Y-50470000D01*
X45472381Y-50431905D01*
X45396190Y-50355715D01*
X45358095Y-50279524D01*
X45358095Y-50127143D01*
X45396190Y-50050953D01*
X45472381Y-49974762D01*
X45624762Y-49936667D01*
X45891429Y-49936667D01*
X46043810Y-49974762D01*
X46120000Y-50050953D01*
X46158095Y-50127143D01*
X46158095Y-50812857D02*
X45510476Y-50812857D01*
X45434286Y-50850952D01*
X45396190Y-50889048D01*
X45358095Y-50965238D01*
X45358095Y-51117619D01*
X45396190Y-51193810D01*
X45434286Y-51231905D01*
X45510476Y-51270000D01*
X46158095Y-51270000D01*
X46158095Y-51536666D02*
X46158095Y-51993809D01*
X45358095Y-51765238D02*
X46158095Y-51765238D01*
X45281905Y-52070000D02*
X45281905Y-52679524D01*
X45396190Y-52831905D02*
X45358095Y-52946191D01*
X45358095Y-53136667D01*
X45396190Y-53212857D01*
X45434286Y-53250953D01*
X45510476Y-53289048D01*
X45586667Y-53289048D01*
X45662857Y-53250953D01*
X45700952Y-53212857D01*
X45739048Y-53136667D01*
X45777143Y-52984286D01*
X45815238Y-52908095D01*
X45853333Y-52870000D01*
X45929524Y-52831905D01*
X46005714Y-52831905D01*
X46081905Y-52870000D01*
X46120000Y-52908095D01*
X46158095Y-52984286D01*
X46158095Y-53174762D01*
X46120000Y-53289048D01*
X46158095Y-53555715D02*
X45358095Y-53746191D01*
X45929524Y-53898572D01*
X45358095Y-54050953D01*
X46158095Y-54241429D01*
X43618095Y-51270000D02*
X43618095Y-51422381D01*
X43580000Y-51498572D01*
X43503810Y-51574762D01*
X43351429Y-51612857D01*
X43084762Y-51612857D01*
X42932381Y-51574762D01*
X42856190Y-51498572D01*
X42818095Y-51422381D01*
X42818095Y-51270000D01*
X42856190Y-51193810D01*
X42932381Y-51117619D01*
X43084762Y-51079524D01*
X43351429Y-51079524D01*
X43503810Y-51117619D01*
X43580000Y-51193810D01*
X43618095Y-51270000D01*
X43618095Y-51955714D02*
X42970476Y-51955714D01*
X42894286Y-51993809D01*
X42856190Y-52031905D01*
X42818095Y-52108095D01*
X42818095Y-52260476D01*
X42856190Y-52336667D01*
X42894286Y-52374762D01*
X42970476Y-52412857D01*
X43618095Y-52412857D01*
X43618095Y-52679523D02*
X43618095Y-53136666D01*
X42818095Y-52908095D02*
X43618095Y-52908095D01*
X40354286Y-51060477D02*
X40316190Y-51022382D01*
X40278095Y-50908096D01*
X40278095Y-50831906D01*
X40316190Y-50717620D01*
X40392381Y-50641429D01*
X40468571Y-50603334D01*
X40620952Y-50565239D01*
X40735238Y-50565239D01*
X40887619Y-50603334D01*
X40963810Y-50641429D01*
X41040000Y-50717620D01*
X41078095Y-50831906D01*
X41078095Y-50908096D01*
X41040000Y-51022382D01*
X41001905Y-51060477D01*
X41078095Y-51289048D02*
X40278095Y-51555715D01*
X41078095Y-51822382D01*
X40201905Y-51898572D02*
X40201905Y-52508096D01*
X40278095Y-52698572D02*
X41078095Y-52698572D01*
X40278095Y-53079524D02*
X41078095Y-53079524D01*
X40278095Y-53536667D01*
X41078095Y-53536667D01*
X37814286Y-49860476D02*
X37776190Y-49822381D01*
X37738095Y-49708095D01*
X37738095Y-49631905D01*
X37776190Y-49517619D01*
X37852381Y-49441428D01*
X37928571Y-49403333D01*
X38080952Y-49365238D01*
X38195238Y-49365238D01*
X38347619Y-49403333D01*
X38423810Y-49441428D01*
X38500000Y-49517619D01*
X38538095Y-49631905D01*
X38538095Y-49708095D01*
X38500000Y-49822381D01*
X38461905Y-49860476D01*
X38538095Y-50089047D02*
X37738095Y-50355714D01*
X38538095Y-50622381D01*
X37661905Y-50698571D02*
X37661905Y-51308095D01*
X37966667Y-51460476D02*
X37966667Y-51841428D01*
X37738095Y-51384285D02*
X38538095Y-51650952D01*
X37738095Y-51917619D01*
X37738095Y-52184285D02*
X38538095Y-52184285D01*
X37966667Y-52450952D01*
X38538095Y-52717619D01*
X37738095Y-52717619D01*
X38538095Y-52984285D02*
X38538095Y-53441428D01*
X37738095Y-53212857D02*
X38538095Y-53212857D01*
X37661905Y-53517619D02*
X37661905Y-54127143D01*
X38157143Y-54584286D02*
X38119048Y-54698572D01*
X38080952Y-54736667D01*
X38004762Y-54774762D01*
X37890476Y-54774762D01*
X37814286Y-54736667D01*
X37776190Y-54698572D01*
X37738095Y-54622381D01*
X37738095Y-54317619D01*
X38538095Y-54317619D01*
X38538095Y-54584286D01*
X38500000Y-54660476D01*
X38461905Y-54698572D01*
X38385714Y-54736667D01*
X38309524Y-54736667D01*
X38233333Y-54698572D01*
X38195238Y-54660476D01*
X38157143Y-54584286D01*
X38157143Y-54317619D01*
X35274286Y-49917619D02*
X35236190Y-49879524D01*
X35198095Y-49765238D01*
X35198095Y-49689048D01*
X35236190Y-49574762D01*
X35312381Y-49498571D01*
X35388571Y-49460476D01*
X35540952Y-49422381D01*
X35655238Y-49422381D01*
X35807619Y-49460476D01*
X35883810Y-49498571D01*
X35960000Y-49574762D01*
X35998095Y-49689048D01*
X35998095Y-49765238D01*
X35960000Y-49879524D01*
X35921905Y-49917619D01*
X35998095Y-50146190D02*
X35198095Y-50412857D01*
X35998095Y-50679524D01*
X35121905Y-50755714D02*
X35121905Y-51365238D01*
X35426667Y-51517619D02*
X35426667Y-51898571D01*
X35198095Y-51441428D02*
X35998095Y-51708095D01*
X35198095Y-51974762D01*
X35198095Y-52241428D02*
X35998095Y-52241428D01*
X35426667Y-52508095D01*
X35998095Y-52774762D01*
X35198095Y-52774762D01*
X35998095Y-53041428D02*
X35998095Y-53498571D01*
X35198095Y-53270000D02*
X35998095Y-53270000D01*
X35121905Y-53574762D02*
X35121905Y-54184286D01*
X35426667Y-54336667D02*
X35426667Y-54717619D01*
X35198095Y-54260476D02*
X35998095Y-54527143D01*
X35198095Y-54793810D01*
X32658095Y-49841429D02*
X33458095Y-49841429D01*
X33458095Y-50146191D01*
X33420000Y-50222382D01*
X33381905Y-50260477D01*
X33305714Y-50298572D01*
X33191429Y-50298572D01*
X33115238Y-50260477D01*
X33077143Y-50222382D01*
X33039048Y-50146191D01*
X33039048Y-49841429D01*
X32658095Y-50641429D02*
X33458095Y-50641429D01*
X33458095Y-50908095D02*
X33458095Y-51365238D01*
X32658095Y-51136667D02*
X33458095Y-51136667D01*
X32734286Y-52089048D02*
X32696190Y-52050953D01*
X32658095Y-51936667D01*
X32658095Y-51860477D01*
X32696190Y-51746191D01*
X32772381Y-51670000D01*
X32848571Y-51631905D01*
X33000952Y-51593810D01*
X33115238Y-51593810D01*
X33267619Y-51631905D01*
X33343810Y-51670000D01*
X33420000Y-51746191D01*
X33458095Y-51860477D01*
X33458095Y-51936667D01*
X33420000Y-52050953D01*
X33381905Y-52089048D01*
X32658095Y-52431905D02*
X33458095Y-52431905D01*
X33077143Y-52431905D02*
X33077143Y-52889048D01*
X32658095Y-52889048D02*
X33458095Y-52889048D01*
X32581905Y-53079524D02*
X32581905Y-53689048D01*
X33077143Y-54146191D02*
X33039048Y-54260477D01*
X33000952Y-54298572D01*
X32924762Y-54336667D01*
X32810476Y-54336667D01*
X32734286Y-54298572D01*
X32696190Y-54260477D01*
X32658095Y-54184286D01*
X32658095Y-53879524D01*
X33458095Y-53879524D01*
X33458095Y-54146191D01*
X33420000Y-54222381D01*
X33381905Y-54260477D01*
X33305714Y-54298572D01*
X33229524Y-54298572D01*
X33153333Y-54260477D01*
X33115238Y-54222381D01*
X33077143Y-54146191D01*
X33077143Y-53879524D01*
X30118095Y-49898572D02*
X30918095Y-49898572D01*
X30918095Y-50203334D01*
X30880000Y-50279525D01*
X30841905Y-50317620D01*
X30765714Y-50355715D01*
X30651429Y-50355715D01*
X30575238Y-50317620D01*
X30537143Y-50279525D01*
X30499048Y-50203334D01*
X30499048Y-49898572D01*
X30118095Y-50698572D02*
X30918095Y-50698572D01*
X30918095Y-50965238D02*
X30918095Y-51422381D01*
X30118095Y-51193810D02*
X30918095Y-51193810D01*
X30194286Y-52146191D02*
X30156190Y-52108096D01*
X30118095Y-51993810D01*
X30118095Y-51917620D01*
X30156190Y-51803334D01*
X30232381Y-51727143D01*
X30308571Y-51689048D01*
X30460952Y-51650953D01*
X30575238Y-51650953D01*
X30727619Y-51689048D01*
X30803810Y-51727143D01*
X30880000Y-51803334D01*
X30918095Y-51917620D01*
X30918095Y-51993810D01*
X30880000Y-52108096D01*
X30841905Y-52146191D01*
X30118095Y-52489048D02*
X30918095Y-52489048D01*
X30537143Y-52489048D02*
X30537143Y-52946191D01*
X30118095Y-52946191D02*
X30918095Y-52946191D01*
X30041905Y-53136667D02*
X30041905Y-53746191D01*
X30346667Y-53898572D02*
X30346667Y-54279524D01*
X30118095Y-53822381D02*
X30918095Y-54089048D01*
X30118095Y-54355715D01*
X58820000Y-51714477D02*
X58858095Y-51638286D01*
X58858095Y-51524001D01*
X58820000Y-51409715D01*
X58743810Y-51333524D01*
X58667619Y-51295429D01*
X58515238Y-51257334D01*
X58400952Y-51257334D01*
X58248571Y-51295429D01*
X58172381Y-51333524D01*
X58096190Y-51409715D01*
X58058095Y-51524001D01*
X58058095Y-51600191D01*
X58096190Y-51714477D01*
X58134286Y-51752572D01*
X58400952Y-51752572D01*
X58400952Y-51600191D01*
X58058095Y-52095429D02*
X58858095Y-52095429D01*
X58058095Y-52552572D01*
X58858095Y-52552572D01*
X58058095Y-52933524D02*
X58858095Y-52933524D01*
X58858095Y-53124000D01*
X58820000Y-53238286D01*
X58743810Y-53314477D01*
X58667619Y-53352572D01*
X58515238Y-53390667D01*
X58400952Y-53390667D01*
X58248571Y-53352572D01*
X58172381Y-53314477D01*
X58096190Y-53238286D01*
X58058095Y-53124000D01*
X58058095Y-52933524D01*
X76638095Y-50127143D02*
X76638095Y-50279524D01*
X76600000Y-50355715D01*
X76523810Y-50431905D01*
X76371429Y-50470000D01*
X76104762Y-50470000D01*
X75952381Y-50431905D01*
X75876190Y-50355715D01*
X75838095Y-50279524D01*
X75838095Y-50127143D01*
X75876190Y-50050953D01*
X75952381Y-49974762D01*
X76104762Y-49936667D01*
X76371429Y-49936667D01*
X76523810Y-49974762D01*
X76600000Y-50050953D01*
X76638095Y-50127143D01*
X76638095Y-50812857D02*
X75990476Y-50812857D01*
X75914286Y-50850952D01*
X75876190Y-50889048D01*
X75838095Y-50965238D01*
X75838095Y-51117619D01*
X75876190Y-51193810D01*
X75914286Y-51231905D01*
X75990476Y-51270000D01*
X76638095Y-51270000D01*
X76638095Y-51536666D02*
X76638095Y-51993809D01*
X75838095Y-51765238D02*
X76638095Y-51765238D01*
X75761905Y-52070000D02*
X75761905Y-52679524D01*
X75876190Y-52831905D02*
X75838095Y-52946191D01*
X75838095Y-53136667D01*
X75876190Y-53212857D01*
X75914286Y-53250953D01*
X75990476Y-53289048D01*
X76066667Y-53289048D01*
X76142857Y-53250953D01*
X76180952Y-53212857D01*
X76219048Y-53136667D01*
X76257143Y-52984286D01*
X76295238Y-52908095D01*
X76333333Y-52870000D01*
X76409524Y-52831905D01*
X76485714Y-52831905D01*
X76561905Y-52870000D01*
X76600000Y-52908095D01*
X76638095Y-52984286D01*
X76638095Y-53174762D01*
X76600000Y-53289048D01*
X76638095Y-53555715D02*
X75838095Y-53746191D01*
X76409524Y-53898572D01*
X75838095Y-54050953D01*
X76638095Y-54241429D01*
X74098095Y-51270000D02*
X74098095Y-51422381D01*
X74060000Y-51498572D01*
X73983810Y-51574762D01*
X73831429Y-51612857D01*
X73564762Y-51612857D01*
X73412381Y-51574762D01*
X73336190Y-51498572D01*
X73298095Y-51422381D01*
X73298095Y-51270000D01*
X73336190Y-51193810D01*
X73412381Y-51117619D01*
X73564762Y-51079524D01*
X73831429Y-51079524D01*
X73983810Y-51117619D01*
X74060000Y-51193810D01*
X74098095Y-51270000D01*
X74098095Y-51955714D02*
X73450476Y-51955714D01*
X73374286Y-51993809D01*
X73336190Y-52031905D01*
X73298095Y-52108095D01*
X73298095Y-52260476D01*
X73336190Y-52336667D01*
X73374286Y-52374762D01*
X73450476Y-52412857D01*
X74098095Y-52412857D01*
X74098095Y-52679523D02*
X74098095Y-53136666D01*
X73298095Y-52908095D02*
X74098095Y-52908095D01*
X70834286Y-51060477D02*
X70796190Y-51022382D01*
X70758095Y-50908096D01*
X70758095Y-50831906D01*
X70796190Y-50717620D01*
X70872381Y-50641429D01*
X70948571Y-50603334D01*
X71100952Y-50565239D01*
X71215238Y-50565239D01*
X71367619Y-50603334D01*
X71443810Y-50641429D01*
X71520000Y-50717620D01*
X71558095Y-50831906D01*
X71558095Y-50908096D01*
X71520000Y-51022382D01*
X71481905Y-51060477D01*
X71558095Y-51289048D02*
X70758095Y-51555715D01*
X71558095Y-51822382D01*
X70681905Y-51898572D02*
X70681905Y-52508096D01*
X70758095Y-52698572D02*
X71558095Y-52698572D01*
X70758095Y-53079524D02*
X71558095Y-53079524D01*
X70758095Y-53536667D01*
X71558095Y-53536667D01*
X68294286Y-49860476D02*
X68256190Y-49822381D01*
X68218095Y-49708095D01*
X68218095Y-49631905D01*
X68256190Y-49517619D01*
X68332381Y-49441428D01*
X68408571Y-49403333D01*
X68560952Y-49365238D01*
X68675238Y-49365238D01*
X68827619Y-49403333D01*
X68903810Y-49441428D01*
X68980000Y-49517619D01*
X69018095Y-49631905D01*
X69018095Y-49708095D01*
X68980000Y-49822381D01*
X68941905Y-49860476D01*
X69018095Y-50089047D02*
X68218095Y-50355714D01*
X69018095Y-50622381D01*
X68141905Y-50698571D02*
X68141905Y-51308095D01*
X68446667Y-51460476D02*
X68446667Y-51841428D01*
X68218095Y-51384285D02*
X69018095Y-51650952D01*
X68218095Y-51917619D01*
X68218095Y-52184285D02*
X69018095Y-52184285D01*
X68446667Y-52450952D01*
X69018095Y-52717619D01*
X68218095Y-52717619D01*
X69018095Y-52984285D02*
X69018095Y-53441428D01*
X68218095Y-53212857D02*
X69018095Y-53212857D01*
X68141905Y-53517619D02*
X68141905Y-54127143D01*
X68637143Y-54584286D02*
X68599048Y-54698572D01*
X68560952Y-54736667D01*
X68484762Y-54774762D01*
X68370476Y-54774762D01*
X68294286Y-54736667D01*
X68256190Y-54698572D01*
X68218095Y-54622381D01*
X68218095Y-54317619D01*
X69018095Y-54317619D01*
X69018095Y-54584286D01*
X68980000Y-54660476D01*
X68941905Y-54698572D01*
X68865714Y-54736667D01*
X68789524Y-54736667D01*
X68713333Y-54698572D01*
X68675238Y-54660476D01*
X68637143Y-54584286D01*
X68637143Y-54317619D01*
X65754286Y-49917619D02*
X65716190Y-49879524D01*
X65678095Y-49765238D01*
X65678095Y-49689048D01*
X65716190Y-49574762D01*
X65792381Y-49498571D01*
X65868571Y-49460476D01*
X66020952Y-49422381D01*
X66135238Y-49422381D01*
X66287619Y-49460476D01*
X66363810Y-49498571D01*
X66440000Y-49574762D01*
X66478095Y-49689048D01*
X66478095Y-49765238D01*
X66440000Y-49879524D01*
X66401905Y-49917619D01*
X66478095Y-50146190D02*
X65678095Y-50412857D01*
X66478095Y-50679524D01*
X65601905Y-50755714D02*
X65601905Y-51365238D01*
X65906667Y-51517619D02*
X65906667Y-51898571D01*
X65678095Y-51441428D02*
X66478095Y-51708095D01*
X65678095Y-51974762D01*
X65678095Y-52241428D02*
X66478095Y-52241428D01*
X65906667Y-52508095D01*
X66478095Y-52774762D01*
X65678095Y-52774762D01*
X66478095Y-53041428D02*
X66478095Y-53498571D01*
X65678095Y-53270000D02*
X66478095Y-53270000D01*
X65601905Y-53574762D02*
X65601905Y-54184286D01*
X65906667Y-54336667D02*
X65906667Y-54717619D01*
X65678095Y-54260476D02*
X66478095Y-54527143D01*
X65678095Y-54793810D01*
X63138095Y-49841429D02*
X63938095Y-49841429D01*
X63938095Y-50146191D01*
X63900000Y-50222382D01*
X63861905Y-50260477D01*
X63785714Y-50298572D01*
X63671429Y-50298572D01*
X63595238Y-50260477D01*
X63557143Y-50222382D01*
X63519048Y-50146191D01*
X63519048Y-49841429D01*
X63138095Y-50641429D02*
X63938095Y-50641429D01*
X63938095Y-50908095D02*
X63938095Y-51365238D01*
X63138095Y-51136667D02*
X63938095Y-51136667D01*
X63214286Y-52089048D02*
X63176190Y-52050953D01*
X63138095Y-51936667D01*
X63138095Y-51860477D01*
X63176190Y-51746191D01*
X63252381Y-51670000D01*
X63328571Y-51631905D01*
X63480952Y-51593810D01*
X63595238Y-51593810D01*
X63747619Y-51631905D01*
X63823810Y-51670000D01*
X63900000Y-51746191D01*
X63938095Y-51860477D01*
X63938095Y-51936667D01*
X63900000Y-52050953D01*
X63861905Y-52089048D01*
X63138095Y-52431905D02*
X63938095Y-52431905D01*
X63557143Y-52431905D02*
X63557143Y-52889048D01*
X63138095Y-52889048D02*
X63938095Y-52889048D01*
X63061905Y-53079524D02*
X63061905Y-53689048D01*
X63557143Y-54146191D02*
X63519048Y-54260477D01*
X63480952Y-54298572D01*
X63404762Y-54336667D01*
X63290476Y-54336667D01*
X63214286Y-54298572D01*
X63176190Y-54260477D01*
X63138095Y-54184286D01*
X63138095Y-53879524D01*
X63938095Y-53879524D01*
X63938095Y-54146191D01*
X63900000Y-54222381D01*
X63861905Y-54260477D01*
X63785714Y-54298572D01*
X63709524Y-54298572D01*
X63633333Y-54260477D01*
X63595238Y-54222381D01*
X63557143Y-54146191D01*
X63557143Y-53879524D01*
X60598095Y-49898572D02*
X61398095Y-49898572D01*
X61398095Y-50203334D01*
X61360000Y-50279525D01*
X61321905Y-50317620D01*
X61245714Y-50355715D01*
X61131429Y-50355715D01*
X61055238Y-50317620D01*
X61017143Y-50279525D01*
X60979048Y-50203334D01*
X60979048Y-49898572D01*
X60598095Y-50698572D02*
X61398095Y-50698572D01*
X61398095Y-50965238D02*
X61398095Y-51422381D01*
X60598095Y-51193810D02*
X61398095Y-51193810D01*
X60674286Y-52146191D02*
X60636190Y-52108096D01*
X60598095Y-51993810D01*
X60598095Y-51917620D01*
X60636190Y-51803334D01*
X60712381Y-51727143D01*
X60788571Y-51689048D01*
X60940952Y-51650953D01*
X61055238Y-51650953D01*
X61207619Y-51689048D01*
X61283810Y-51727143D01*
X61360000Y-51803334D01*
X61398095Y-51917620D01*
X61398095Y-51993810D01*
X61360000Y-52108096D01*
X61321905Y-52146191D01*
X60598095Y-52489048D02*
X61398095Y-52489048D01*
X61017143Y-52489048D02*
X61017143Y-52946191D01*
X60598095Y-52946191D02*
X61398095Y-52946191D01*
X60521905Y-53136667D02*
X60521905Y-53746191D01*
X60826667Y-53898572D02*
X60826667Y-54279524D01*
X60598095Y-53822381D02*
X61398095Y-54089048D01*
X60598095Y-54355715D01*
D11*
X86995000Y-55245000D02*
X86995000Y-45720000D01*
X108585000Y-55245000D02*
X86995000Y-55245000D01*
X108585000Y-45720000D02*
X108585000Y-55245000D01*
X86995000Y-45720000D02*
X108585000Y-45720000D01*
X26035000Y-105410000D02*
X26035000Y-95885000D01*
X47625000Y-105410000D02*
X26035000Y-105410000D01*
X47625000Y-95885000D02*
X47625000Y-105410000D01*
X26035000Y-95885000D02*
X47625000Y-95885000D01*
X56515000Y-105410000D02*
X56515000Y-95885000D01*
X78105000Y-105410000D02*
X56515000Y-105410000D01*
X78105000Y-95885000D02*
X78105000Y-105410000D01*
X56515000Y-95885000D02*
X78105000Y-95885000D01*
X86995000Y-95885000D02*
X108585000Y-95885000D01*
X86995000Y-105410000D02*
X86995000Y-95885000D01*
X108585000Y-105410000D02*
X86995000Y-105410000D01*
X108585000Y-95885000D02*
X108585000Y-105410000D01*
D13*
X91078095Y-49898572D02*
X91878095Y-49898572D01*
X91878095Y-50203334D01*
X91840000Y-50279525D01*
X91801905Y-50317620D01*
X91725714Y-50355715D01*
X91611429Y-50355715D01*
X91535238Y-50317620D01*
X91497143Y-50279525D01*
X91459048Y-50203334D01*
X91459048Y-49898572D01*
X91078095Y-50698572D02*
X91878095Y-50698572D01*
X91878095Y-50965238D02*
X91878095Y-51422381D01*
X91078095Y-51193810D02*
X91878095Y-51193810D01*
X91154286Y-52146191D02*
X91116190Y-52108096D01*
X91078095Y-51993810D01*
X91078095Y-51917620D01*
X91116190Y-51803334D01*
X91192381Y-51727143D01*
X91268571Y-51689048D01*
X91420952Y-51650953D01*
X91535238Y-51650953D01*
X91687619Y-51689048D01*
X91763810Y-51727143D01*
X91840000Y-51803334D01*
X91878095Y-51917620D01*
X91878095Y-51993810D01*
X91840000Y-52108096D01*
X91801905Y-52146191D01*
X91078095Y-52489048D02*
X91878095Y-52489048D01*
X91497143Y-52489048D02*
X91497143Y-52946191D01*
X91078095Y-52946191D02*
X91878095Y-52946191D01*
X91001905Y-53136667D02*
X91001905Y-53746191D01*
X91306667Y-53898572D02*
X91306667Y-54279524D01*
X91078095Y-53822381D02*
X91878095Y-54089048D01*
X91078095Y-54355715D01*
X93618095Y-49841429D02*
X94418095Y-49841429D01*
X94418095Y-50146191D01*
X94380000Y-50222382D01*
X94341905Y-50260477D01*
X94265714Y-50298572D01*
X94151429Y-50298572D01*
X94075238Y-50260477D01*
X94037143Y-50222382D01*
X93999048Y-50146191D01*
X93999048Y-49841429D01*
X93618095Y-50641429D02*
X94418095Y-50641429D01*
X94418095Y-50908095D02*
X94418095Y-51365238D01*
X93618095Y-51136667D02*
X94418095Y-51136667D01*
X93694286Y-52089048D02*
X93656190Y-52050953D01*
X93618095Y-51936667D01*
X93618095Y-51860477D01*
X93656190Y-51746191D01*
X93732381Y-51670000D01*
X93808571Y-51631905D01*
X93960952Y-51593810D01*
X94075238Y-51593810D01*
X94227619Y-51631905D01*
X94303810Y-51670000D01*
X94380000Y-51746191D01*
X94418095Y-51860477D01*
X94418095Y-51936667D01*
X94380000Y-52050953D01*
X94341905Y-52089048D01*
X93618095Y-52431905D02*
X94418095Y-52431905D01*
X94037143Y-52431905D02*
X94037143Y-52889048D01*
X93618095Y-52889048D02*
X94418095Y-52889048D01*
X93541905Y-53079524D02*
X93541905Y-53689048D01*
X94037143Y-54146191D02*
X93999048Y-54260477D01*
X93960952Y-54298572D01*
X93884762Y-54336667D01*
X93770476Y-54336667D01*
X93694286Y-54298572D01*
X93656190Y-54260477D01*
X93618095Y-54184286D01*
X93618095Y-53879524D01*
X94418095Y-53879524D01*
X94418095Y-54146191D01*
X94380000Y-54222381D01*
X94341905Y-54260477D01*
X94265714Y-54298572D01*
X94189524Y-54298572D01*
X94113333Y-54260477D01*
X94075238Y-54222381D01*
X94037143Y-54146191D01*
X94037143Y-53879524D01*
X96234286Y-49917619D02*
X96196190Y-49879524D01*
X96158095Y-49765238D01*
X96158095Y-49689048D01*
X96196190Y-49574762D01*
X96272381Y-49498571D01*
X96348571Y-49460476D01*
X96500952Y-49422381D01*
X96615238Y-49422381D01*
X96767619Y-49460476D01*
X96843810Y-49498571D01*
X96920000Y-49574762D01*
X96958095Y-49689048D01*
X96958095Y-49765238D01*
X96920000Y-49879524D01*
X96881905Y-49917619D01*
X96958095Y-50146190D02*
X96158095Y-50412857D01*
X96958095Y-50679524D01*
X96081905Y-50755714D02*
X96081905Y-51365238D01*
X96386667Y-51517619D02*
X96386667Y-51898571D01*
X96158095Y-51441428D02*
X96958095Y-51708095D01*
X96158095Y-51974762D01*
X96158095Y-52241428D02*
X96958095Y-52241428D01*
X96386667Y-52508095D01*
X96958095Y-52774762D01*
X96158095Y-52774762D01*
X96958095Y-53041428D02*
X96958095Y-53498571D01*
X96158095Y-53270000D02*
X96958095Y-53270000D01*
X96081905Y-53574762D02*
X96081905Y-54184286D01*
X96386667Y-54336667D02*
X96386667Y-54717619D01*
X96158095Y-54260476D02*
X96958095Y-54527143D01*
X96158095Y-54793810D01*
X98774286Y-49860476D02*
X98736190Y-49822381D01*
X98698095Y-49708095D01*
X98698095Y-49631905D01*
X98736190Y-49517619D01*
X98812381Y-49441428D01*
X98888571Y-49403333D01*
X99040952Y-49365238D01*
X99155238Y-49365238D01*
X99307619Y-49403333D01*
X99383810Y-49441428D01*
X99460000Y-49517619D01*
X99498095Y-49631905D01*
X99498095Y-49708095D01*
X99460000Y-49822381D01*
X99421905Y-49860476D01*
X99498095Y-50089047D02*
X98698095Y-50355714D01*
X99498095Y-50622381D01*
X98621905Y-50698571D02*
X98621905Y-51308095D01*
X98926667Y-51460476D02*
X98926667Y-51841428D01*
X98698095Y-51384285D02*
X99498095Y-51650952D01*
X98698095Y-51917619D01*
X98698095Y-52184285D02*
X99498095Y-52184285D01*
X98926667Y-52450952D01*
X99498095Y-52717619D01*
X98698095Y-52717619D01*
X99498095Y-52984285D02*
X99498095Y-53441428D01*
X98698095Y-53212857D02*
X99498095Y-53212857D01*
X98621905Y-53517619D02*
X98621905Y-54127143D01*
X99117143Y-54584286D02*
X99079048Y-54698572D01*
X99040952Y-54736667D01*
X98964762Y-54774762D01*
X98850476Y-54774762D01*
X98774286Y-54736667D01*
X98736190Y-54698572D01*
X98698095Y-54622381D01*
X98698095Y-54317619D01*
X99498095Y-54317619D01*
X99498095Y-54584286D01*
X99460000Y-54660476D01*
X99421905Y-54698572D01*
X99345714Y-54736667D01*
X99269524Y-54736667D01*
X99193333Y-54698572D01*
X99155238Y-54660476D01*
X99117143Y-54584286D01*
X99117143Y-54317619D01*
X101314286Y-51060477D02*
X101276190Y-51022382D01*
X101238095Y-50908096D01*
X101238095Y-50831906D01*
X101276190Y-50717620D01*
X101352381Y-50641429D01*
X101428571Y-50603334D01*
X101580952Y-50565239D01*
X101695238Y-50565239D01*
X101847619Y-50603334D01*
X101923810Y-50641429D01*
X102000000Y-50717620D01*
X102038095Y-50831906D01*
X102038095Y-50908096D01*
X102000000Y-51022382D01*
X101961905Y-51060477D01*
X102038095Y-51289048D02*
X101238095Y-51555715D01*
X102038095Y-51822382D01*
X101161905Y-51898572D02*
X101161905Y-52508096D01*
X101238095Y-52698572D02*
X102038095Y-52698572D01*
X101238095Y-53079524D02*
X102038095Y-53079524D01*
X101238095Y-53536667D01*
X102038095Y-53536667D01*
X104578095Y-51270000D02*
X104578095Y-51422381D01*
X104540000Y-51498572D01*
X104463810Y-51574762D01*
X104311429Y-51612857D01*
X104044762Y-51612857D01*
X103892381Y-51574762D01*
X103816190Y-51498572D01*
X103778095Y-51422381D01*
X103778095Y-51270000D01*
X103816190Y-51193810D01*
X103892381Y-51117619D01*
X104044762Y-51079524D01*
X104311429Y-51079524D01*
X104463810Y-51117619D01*
X104540000Y-51193810D01*
X104578095Y-51270000D01*
X104578095Y-51955714D02*
X103930476Y-51955714D01*
X103854286Y-51993809D01*
X103816190Y-52031905D01*
X103778095Y-52108095D01*
X103778095Y-52260476D01*
X103816190Y-52336667D01*
X103854286Y-52374762D01*
X103930476Y-52412857D01*
X104578095Y-52412857D01*
X104578095Y-52679523D02*
X104578095Y-53136666D01*
X103778095Y-52908095D02*
X104578095Y-52908095D01*
X107118095Y-50127143D02*
X107118095Y-50279524D01*
X107080000Y-50355715D01*
X107003810Y-50431905D01*
X106851429Y-50470000D01*
X106584762Y-50470000D01*
X106432381Y-50431905D01*
X106356190Y-50355715D01*
X106318095Y-50279524D01*
X106318095Y-50127143D01*
X106356190Y-50050953D01*
X106432381Y-49974762D01*
X106584762Y-49936667D01*
X106851429Y-49936667D01*
X107003810Y-49974762D01*
X107080000Y-50050953D01*
X107118095Y-50127143D01*
X107118095Y-50812857D02*
X106470476Y-50812857D01*
X106394286Y-50850952D01*
X106356190Y-50889048D01*
X106318095Y-50965238D01*
X106318095Y-51117619D01*
X106356190Y-51193810D01*
X106394286Y-51231905D01*
X106470476Y-51270000D01*
X107118095Y-51270000D01*
X107118095Y-51536666D02*
X107118095Y-51993809D01*
X106318095Y-51765238D02*
X107118095Y-51765238D01*
X106241905Y-52070000D02*
X106241905Y-52679524D01*
X106356190Y-52831905D02*
X106318095Y-52946191D01*
X106318095Y-53136667D01*
X106356190Y-53212857D01*
X106394286Y-53250953D01*
X106470476Y-53289048D01*
X106546667Y-53289048D01*
X106622857Y-53250953D01*
X106660952Y-53212857D01*
X106699048Y-53136667D01*
X106737143Y-52984286D01*
X106775238Y-52908095D01*
X106813333Y-52870000D01*
X106889524Y-52831905D01*
X106965714Y-52831905D01*
X107041905Y-52870000D01*
X107080000Y-52908095D01*
X107118095Y-52984286D01*
X107118095Y-53174762D01*
X107080000Y-53289048D01*
X107118095Y-53555715D02*
X106318095Y-53746191D01*
X106889524Y-53898572D01*
X106318095Y-54050953D01*
X107118095Y-54241429D01*
X89300000Y-51714477D02*
X89338095Y-51638286D01*
X89338095Y-51524001D01*
X89300000Y-51409715D01*
X89223810Y-51333524D01*
X89147619Y-51295429D01*
X88995238Y-51257334D01*
X88880952Y-51257334D01*
X88728571Y-51295429D01*
X88652381Y-51333524D01*
X88576190Y-51409715D01*
X88538095Y-51524001D01*
X88538095Y-51600191D01*
X88576190Y-51714477D01*
X88614286Y-51752572D01*
X88880952Y-51752572D01*
X88880952Y-51600191D01*
X88538095Y-52095429D02*
X89338095Y-52095429D01*
X88538095Y-52552572D01*
X89338095Y-52552572D01*
X88538095Y-52933524D02*
X89338095Y-52933524D01*
X89338095Y-53124000D01*
X89300000Y-53238286D01*
X89223810Y-53314477D01*
X89147619Y-53352572D01*
X88995238Y-53390667D01*
X88880952Y-53390667D01*
X88728571Y-53352572D01*
X88652381Y-53314477D01*
X88576190Y-53238286D01*
X88538095Y-53124000D01*
X88538095Y-52933524D01*
X91078095Y-100063572D02*
X91878095Y-100063572D01*
X91878095Y-100368334D01*
X91840000Y-100444525D01*
X91801905Y-100482620D01*
X91725714Y-100520715D01*
X91611429Y-100520715D01*
X91535238Y-100482620D01*
X91497143Y-100444525D01*
X91459048Y-100368334D01*
X91459048Y-100063572D01*
X91078095Y-100863572D02*
X91878095Y-100863572D01*
X91878095Y-101130238D02*
X91878095Y-101587381D01*
X91078095Y-101358810D02*
X91878095Y-101358810D01*
X91154286Y-102311191D02*
X91116190Y-102273096D01*
X91078095Y-102158810D01*
X91078095Y-102082620D01*
X91116190Y-101968334D01*
X91192381Y-101892143D01*
X91268571Y-101854048D01*
X91420952Y-101815953D01*
X91535238Y-101815953D01*
X91687619Y-101854048D01*
X91763810Y-101892143D01*
X91840000Y-101968334D01*
X91878095Y-102082620D01*
X91878095Y-102158810D01*
X91840000Y-102273096D01*
X91801905Y-102311191D01*
X91078095Y-102654048D02*
X91878095Y-102654048D01*
X91497143Y-102654048D02*
X91497143Y-103111191D01*
X91078095Y-103111191D02*
X91878095Y-103111191D01*
X91001905Y-103301667D02*
X91001905Y-103911191D01*
X91306667Y-104063572D02*
X91306667Y-104444524D01*
X91078095Y-103987381D02*
X91878095Y-104254048D01*
X91078095Y-104520715D01*
X93618095Y-100006429D02*
X94418095Y-100006429D01*
X94418095Y-100311191D01*
X94380000Y-100387382D01*
X94341905Y-100425477D01*
X94265714Y-100463572D01*
X94151429Y-100463572D01*
X94075238Y-100425477D01*
X94037143Y-100387382D01*
X93999048Y-100311191D01*
X93999048Y-100006429D01*
X93618095Y-100806429D02*
X94418095Y-100806429D01*
X94418095Y-101073095D02*
X94418095Y-101530238D01*
X93618095Y-101301667D02*
X94418095Y-101301667D01*
X93694286Y-102254048D02*
X93656190Y-102215953D01*
X93618095Y-102101667D01*
X93618095Y-102025477D01*
X93656190Y-101911191D01*
X93732381Y-101835000D01*
X93808571Y-101796905D01*
X93960952Y-101758810D01*
X94075238Y-101758810D01*
X94227619Y-101796905D01*
X94303810Y-101835000D01*
X94380000Y-101911191D01*
X94418095Y-102025477D01*
X94418095Y-102101667D01*
X94380000Y-102215953D01*
X94341905Y-102254048D01*
X93618095Y-102596905D02*
X94418095Y-102596905D01*
X94037143Y-102596905D02*
X94037143Y-103054048D01*
X93618095Y-103054048D02*
X94418095Y-103054048D01*
X93541905Y-103244524D02*
X93541905Y-103854048D01*
X94037143Y-104311191D02*
X93999048Y-104425477D01*
X93960952Y-104463572D01*
X93884762Y-104501667D01*
X93770476Y-104501667D01*
X93694286Y-104463572D01*
X93656190Y-104425477D01*
X93618095Y-104349286D01*
X93618095Y-104044524D01*
X94418095Y-104044524D01*
X94418095Y-104311191D01*
X94380000Y-104387381D01*
X94341905Y-104425477D01*
X94265714Y-104463572D01*
X94189524Y-104463572D01*
X94113333Y-104425477D01*
X94075238Y-104387381D01*
X94037143Y-104311191D01*
X94037143Y-104044524D01*
X96234286Y-100082619D02*
X96196190Y-100044524D01*
X96158095Y-99930238D01*
X96158095Y-99854048D01*
X96196190Y-99739762D01*
X96272381Y-99663571D01*
X96348571Y-99625476D01*
X96500952Y-99587381D01*
X96615238Y-99587381D01*
X96767619Y-99625476D01*
X96843810Y-99663571D01*
X96920000Y-99739762D01*
X96958095Y-99854048D01*
X96958095Y-99930238D01*
X96920000Y-100044524D01*
X96881905Y-100082619D01*
X96958095Y-100311190D02*
X96158095Y-100577857D01*
X96958095Y-100844524D01*
X96081905Y-100920714D02*
X96081905Y-101530238D01*
X96386667Y-101682619D02*
X96386667Y-102063571D01*
X96158095Y-101606428D02*
X96958095Y-101873095D01*
X96158095Y-102139762D01*
X96158095Y-102406428D02*
X96958095Y-102406428D01*
X96386667Y-102673095D01*
X96958095Y-102939762D01*
X96158095Y-102939762D01*
X96958095Y-103206428D02*
X96958095Y-103663571D01*
X96158095Y-103435000D02*
X96958095Y-103435000D01*
X96081905Y-103739762D02*
X96081905Y-104349286D01*
X96386667Y-104501667D02*
X96386667Y-104882619D01*
X96158095Y-104425476D02*
X96958095Y-104692143D01*
X96158095Y-104958810D01*
X98774286Y-100025476D02*
X98736190Y-99987381D01*
X98698095Y-99873095D01*
X98698095Y-99796905D01*
X98736190Y-99682619D01*
X98812381Y-99606428D01*
X98888571Y-99568333D01*
X99040952Y-99530238D01*
X99155238Y-99530238D01*
X99307619Y-99568333D01*
X99383810Y-99606428D01*
X99460000Y-99682619D01*
X99498095Y-99796905D01*
X99498095Y-99873095D01*
X99460000Y-99987381D01*
X99421905Y-100025476D01*
X99498095Y-100254047D02*
X98698095Y-100520714D01*
X99498095Y-100787381D01*
X98621905Y-100863571D02*
X98621905Y-101473095D01*
X98926667Y-101625476D02*
X98926667Y-102006428D01*
X98698095Y-101549285D02*
X99498095Y-101815952D01*
X98698095Y-102082619D01*
X98698095Y-102349285D02*
X99498095Y-102349285D01*
X98926667Y-102615952D01*
X99498095Y-102882619D01*
X98698095Y-102882619D01*
X99498095Y-103149285D02*
X99498095Y-103606428D01*
X98698095Y-103377857D02*
X99498095Y-103377857D01*
X98621905Y-103682619D02*
X98621905Y-104292143D01*
X99117143Y-104749286D02*
X99079048Y-104863572D01*
X99040952Y-104901667D01*
X98964762Y-104939762D01*
X98850476Y-104939762D01*
X98774286Y-104901667D01*
X98736190Y-104863572D01*
X98698095Y-104787381D01*
X98698095Y-104482619D01*
X99498095Y-104482619D01*
X99498095Y-104749286D01*
X99460000Y-104825476D01*
X99421905Y-104863572D01*
X99345714Y-104901667D01*
X99269524Y-104901667D01*
X99193333Y-104863572D01*
X99155238Y-104825476D01*
X99117143Y-104749286D01*
X99117143Y-104482619D01*
X101314286Y-101225477D02*
X101276190Y-101187382D01*
X101238095Y-101073096D01*
X101238095Y-100996906D01*
X101276190Y-100882620D01*
X101352381Y-100806429D01*
X101428571Y-100768334D01*
X101580952Y-100730239D01*
X101695238Y-100730239D01*
X101847619Y-100768334D01*
X101923810Y-100806429D01*
X102000000Y-100882620D01*
X102038095Y-100996906D01*
X102038095Y-101073096D01*
X102000000Y-101187382D01*
X101961905Y-101225477D01*
X102038095Y-101454048D02*
X101238095Y-101720715D01*
X102038095Y-101987382D01*
X101161905Y-102063572D02*
X101161905Y-102673096D01*
X101238095Y-102863572D02*
X102038095Y-102863572D01*
X101238095Y-103244524D02*
X102038095Y-103244524D01*
X101238095Y-103701667D01*
X102038095Y-103701667D01*
X104578095Y-101435000D02*
X104578095Y-101587381D01*
X104540000Y-101663572D01*
X104463810Y-101739762D01*
X104311429Y-101777857D01*
X104044762Y-101777857D01*
X103892381Y-101739762D01*
X103816190Y-101663572D01*
X103778095Y-101587381D01*
X103778095Y-101435000D01*
X103816190Y-101358810D01*
X103892381Y-101282619D01*
X104044762Y-101244524D01*
X104311429Y-101244524D01*
X104463810Y-101282619D01*
X104540000Y-101358810D01*
X104578095Y-101435000D01*
X104578095Y-102120714D02*
X103930476Y-102120714D01*
X103854286Y-102158809D01*
X103816190Y-102196905D01*
X103778095Y-102273095D01*
X103778095Y-102425476D01*
X103816190Y-102501667D01*
X103854286Y-102539762D01*
X103930476Y-102577857D01*
X104578095Y-102577857D01*
X104578095Y-102844523D02*
X104578095Y-103301666D01*
X103778095Y-103073095D02*
X104578095Y-103073095D01*
X107118095Y-100292143D02*
X107118095Y-100444524D01*
X107080000Y-100520715D01*
X107003810Y-100596905D01*
X106851429Y-100635000D01*
X106584762Y-100635000D01*
X106432381Y-100596905D01*
X106356190Y-100520715D01*
X106318095Y-100444524D01*
X106318095Y-100292143D01*
X106356190Y-100215953D01*
X106432381Y-100139762D01*
X106584762Y-100101667D01*
X106851429Y-100101667D01*
X107003810Y-100139762D01*
X107080000Y-100215953D01*
X107118095Y-100292143D01*
X107118095Y-100977857D02*
X106470476Y-100977857D01*
X106394286Y-101015952D01*
X106356190Y-101054048D01*
X106318095Y-101130238D01*
X106318095Y-101282619D01*
X106356190Y-101358810D01*
X106394286Y-101396905D01*
X106470476Y-101435000D01*
X107118095Y-101435000D01*
X107118095Y-101701666D02*
X107118095Y-102158809D01*
X106318095Y-101930238D02*
X107118095Y-101930238D01*
X106241905Y-102235000D02*
X106241905Y-102844524D01*
X106356190Y-102996905D02*
X106318095Y-103111191D01*
X106318095Y-103301667D01*
X106356190Y-103377857D01*
X106394286Y-103415953D01*
X106470476Y-103454048D01*
X106546667Y-103454048D01*
X106622857Y-103415953D01*
X106660952Y-103377857D01*
X106699048Y-103301667D01*
X106737143Y-103149286D01*
X106775238Y-103073095D01*
X106813333Y-103035000D01*
X106889524Y-102996905D01*
X106965714Y-102996905D01*
X107041905Y-103035000D01*
X107080000Y-103073095D01*
X107118095Y-103149286D01*
X107118095Y-103339762D01*
X107080000Y-103454048D01*
X107118095Y-103720715D02*
X106318095Y-103911191D01*
X106889524Y-104063572D01*
X106318095Y-104215953D01*
X107118095Y-104406429D01*
X89300000Y-102006477D02*
X89338095Y-101930286D01*
X89338095Y-101816001D01*
X89300000Y-101701715D01*
X89223810Y-101625524D01*
X89147619Y-101587429D01*
X88995238Y-101549334D01*
X88880952Y-101549334D01*
X88728571Y-101587429D01*
X88652381Y-101625524D01*
X88576190Y-101701715D01*
X88538095Y-101816001D01*
X88538095Y-101892191D01*
X88576190Y-102006477D01*
X88614286Y-102044572D01*
X88880952Y-102044572D01*
X88880952Y-101892191D01*
X88538095Y-102387429D02*
X89338095Y-102387429D01*
X88538095Y-102844572D01*
X89338095Y-102844572D01*
X88538095Y-103225524D02*
X89338095Y-103225524D01*
X89338095Y-103416000D01*
X89300000Y-103530286D01*
X89223810Y-103606477D01*
X89147619Y-103644572D01*
X88995238Y-103682667D01*
X88880952Y-103682667D01*
X88728571Y-103644572D01*
X88652381Y-103606477D01*
X88576190Y-103530286D01*
X88538095Y-103416000D01*
X88538095Y-103225524D01*
X60598095Y-99936572D02*
X61398095Y-99936572D01*
X61398095Y-100241334D01*
X61360000Y-100317525D01*
X61321905Y-100355620D01*
X61245714Y-100393715D01*
X61131429Y-100393715D01*
X61055238Y-100355620D01*
X61017143Y-100317525D01*
X60979048Y-100241334D01*
X60979048Y-99936572D01*
X60598095Y-100736572D02*
X61398095Y-100736572D01*
X61398095Y-101003238D02*
X61398095Y-101460381D01*
X60598095Y-101231810D02*
X61398095Y-101231810D01*
X60674286Y-102184191D02*
X60636190Y-102146096D01*
X60598095Y-102031810D01*
X60598095Y-101955620D01*
X60636190Y-101841334D01*
X60712381Y-101765143D01*
X60788571Y-101727048D01*
X60940952Y-101688953D01*
X61055238Y-101688953D01*
X61207619Y-101727048D01*
X61283810Y-101765143D01*
X61360000Y-101841334D01*
X61398095Y-101955620D01*
X61398095Y-102031810D01*
X61360000Y-102146096D01*
X61321905Y-102184191D01*
X60598095Y-102527048D02*
X61398095Y-102527048D01*
X61017143Y-102527048D02*
X61017143Y-102984191D01*
X60598095Y-102984191D02*
X61398095Y-102984191D01*
X60521905Y-103174667D02*
X60521905Y-103784191D01*
X60826667Y-103936572D02*
X60826667Y-104317524D01*
X60598095Y-103860381D02*
X61398095Y-104127048D01*
X60598095Y-104393715D01*
X63138095Y-99879429D02*
X63938095Y-99879429D01*
X63938095Y-100184191D01*
X63900000Y-100260382D01*
X63861905Y-100298477D01*
X63785714Y-100336572D01*
X63671429Y-100336572D01*
X63595238Y-100298477D01*
X63557143Y-100260382D01*
X63519048Y-100184191D01*
X63519048Y-99879429D01*
X63138095Y-100679429D02*
X63938095Y-100679429D01*
X63938095Y-100946095D02*
X63938095Y-101403238D01*
X63138095Y-101174667D02*
X63938095Y-101174667D01*
X63214286Y-102127048D02*
X63176190Y-102088953D01*
X63138095Y-101974667D01*
X63138095Y-101898477D01*
X63176190Y-101784191D01*
X63252381Y-101708000D01*
X63328571Y-101669905D01*
X63480952Y-101631810D01*
X63595238Y-101631810D01*
X63747619Y-101669905D01*
X63823810Y-101708000D01*
X63900000Y-101784191D01*
X63938095Y-101898477D01*
X63938095Y-101974667D01*
X63900000Y-102088953D01*
X63861905Y-102127048D01*
X63138095Y-102469905D02*
X63938095Y-102469905D01*
X63557143Y-102469905D02*
X63557143Y-102927048D01*
X63138095Y-102927048D02*
X63938095Y-102927048D01*
X63061905Y-103117524D02*
X63061905Y-103727048D01*
X63557143Y-104184191D02*
X63519048Y-104298477D01*
X63480952Y-104336572D01*
X63404762Y-104374667D01*
X63290476Y-104374667D01*
X63214286Y-104336572D01*
X63176190Y-104298477D01*
X63138095Y-104222286D01*
X63138095Y-103917524D01*
X63938095Y-103917524D01*
X63938095Y-104184191D01*
X63900000Y-104260381D01*
X63861905Y-104298477D01*
X63785714Y-104336572D01*
X63709524Y-104336572D01*
X63633333Y-104298477D01*
X63595238Y-104260381D01*
X63557143Y-104184191D01*
X63557143Y-103917524D01*
X65754286Y-99955619D02*
X65716190Y-99917524D01*
X65678095Y-99803238D01*
X65678095Y-99727048D01*
X65716190Y-99612762D01*
X65792381Y-99536571D01*
X65868571Y-99498476D01*
X66020952Y-99460381D01*
X66135238Y-99460381D01*
X66287619Y-99498476D01*
X66363810Y-99536571D01*
X66440000Y-99612762D01*
X66478095Y-99727048D01*
X66478095Y-99803238D01*
X66440000Y-99917524D01*
X66401905Y-99955619D01*
X66478095Y-100184190D02*
X65678095Y-100450857D01*
X66478095Y-100717524D01*
X65601905Y-100793714D02*
X65601905Y-101403238D01*
X65906667Y-101555619D02*
X65906667Y-101936571D01*
X65678095Y-101479428D02*
X66478095Y-101746095D01*
X65678095Y-102012762D01*
X65678095Y-102279428D02*
X66478095Y-102279428D01*
X65906667Y-102546095D01*
X66478095Y-102812762D01*
X65678095Y-102812762D01*
X66478095Y-103079428D02*
X66478095Y-103536571D01*
X65678095Y-103308000D02*
X66478095Y-103308000D01*
X65601905Y-103612762D02*
X65601905Y-104222286D01*
X65906667Y-104374667D02*
X65906667Y-104755619D01*
X65678095Y-104298476D02*
X66478095Y-104565143D01*
X65678095Y-104831810D01*
X68294286Y-99898476D02*
X68256190Y-99860381D01*
X68218095Y-99746095D01*
X68218095Y-99669905D01*
X68256190Y-99555619D01*
X68332381Y-99479428D01*
X68408571Y-99441333D01*
X68560952Y-99403238D01*
X68675238Y-99403238D01*
X68827619Y-99441333D01*
X68903810Y-99479428D01*
X68980000Y-99555619D01*
X69018095Y-99669905D01*
X69018095Y-99746095D01*
X68980000Y-99860381D01*
X68941905Y-99898476D01*
X69018095Y-100127047D02*
X68218095Y-100393714D01*
X69018095Y-100660381D01*
X68141905Y-100736571D02*
X68141905Y-101346095D01*
X68446667Y-101498476D02*
X68446667Y-101879428D01*
X68218095Y-101422285D02*
X69018095Y-101688952D01*
X68218095Y-101955619D01*
X68218095Y-102222285D02*
X69018095Y-102222285D01*
X68446667Y-102488952D01*
X69018095Y-102755619D01*
X68218095Y-102755619D01*
X69018095Y-103022285D02*
X69018095Y-103479428D01*
X68218095Y-103250857D02*
X69018095Y-103250857D01*
X68141905Y-103555619D02*
X68141905Y-104165143D01*
X68637143Y-104622286D02*
X68599048Y-104736572D01*
X68560952Y-104774667D01*
X68484762Y-104812762D01*
X68370476Y-104812762D01*
X68294286Y-104774667D01*
X68256190Y-104736572D01*
X68218095Y-104660381D01*
X68218095Y-104355619D01*
X69018095Y-104355619D01*
X69018095Y-104622286D01*
X68980000Y-104698476D01*
X68941905Y-104736572D01*
X68865714Y-104774667D01*
X68789524Y-104774667D01*
X68713333Y-104736572D01*
X68675238Y-104698476D01*
X68637143Y-104622286D01*
X68637143Y-104355619D01*
X70834286Y-101098477D02*
X70796190Y-101060382D01*
X70758095Y-100946096D01*
X70758095Y-100869906D01*
X70796190Y-100755620D01*
X70872381Y-100679429D01*
X70948571Y-100641334D01*
X71100952Y-100603239D01*
X71215238Y-100603239D01*
X71367619Y-100641334D01*
X71443810Y-100679429D01*
X71520000Y-100755620D01*
X71558095Y-100869906D01*
X71558095Y-100946096D01*
X71520000Y-101060382D01*
X71481905Y-101098477D01*
X71558095Y-101327048D02*
X70758095Y-101593715D01*
X71558095Y-101860382D01*
X70681905Y-101936572D02*
X70681905Y-102546096D01*
X70758095Y-102736572D02*
X71558095Y-102736572D01*
X70758095Y-103117524D02*
X71558095Y-103117524D01*
X70758095Y-103574667D01*
X71558095Y-103574667D01*
X74098095Y-101308000D02*
X74098095Y-101460381D01*
X74060000Y-101536572D01*
X73983810Y-101612762D01*
X73831429Y-101650857D01*
X73564762Y-101650857D01*
X73412381Y-101612762D01*
X73336190Y-101536572D01*
X73298095Y-101460381D01*
X73298095Y-101308000D01*
X73336190Y-101231810D01*
X73412381Y-101155619D01*
X73564762Y-101117524D01*
X73831429Y-101117524D01*
X73983810Y-101155619D01*
X74060000Y-101231810D01*
X74098095Y-101308000D01*
X74098095Y-101993714D02*
X73450476Y-101993714D01*
X73374286Y-102031809D01*
X73336190Y-102069905D01*
X73298095Y-102146095D01*
X73298095Y-102298476D01*
X73336190Y-102374667D01*
X73374286Y-102412762D01*
X73450476Y-102450857D01*
X74098095Y-102450857D01*
X74098095Y-102717523D02*
X74098095Y-103174666D01*
X73298095Y-102946095D02*
X74098095Y-102946095D01*
X76638095Y-100419143D02*
X76638095Y-100571524D01*
X76600000Y-100647715D01*
X76523810Y-100723905D01*
X76371429Y-100762000D01*
X76104762Y-100762000D01*
X75952381Y-100723905D01*
X75876190Y-100647715D01*
X75838095Y-100571524D01*
X75838095Y-100419143D01*
X75876190Y-100342953D01*
X75952381Y-100266762D01*
X76104762Y-100228667D01*
X76371429Y-100228667D01*
X76523810Y-100266762D01*
X76600000Y-100342953D01*
X76638095Y-100419143D01*
X76638095Y-101104857D02*
X75990476Y-101104857D01*
X75914286Y-101142952D01*
X75876190Y-101181048D01*
X75838095Y-101257238D01*
X75838095Y-101409619D01*
X75876190Y-101485810D01*
X75914286Y-101523905D01*
X75990476Y-101562000D01*
X76638095Y-101562000D01*
X76638095Y-101828666D02*
X76638095Y-102285809D01*
X75838095Y-102057238D02*
X76638095Y-102057238D01*
X75761905Y-102362000D02*
X75761905Y-102971524D01*
X75876190Y-103123905D02*
X75838095Y-103238191D01*
X75838095Y-103428667D01*
X75876190Y-103504857D01*
X75914286Y-103542953D01*
X75990476Y-103581048D01*
X76066667Y-103581048D01*
X76142857Y-103542953D01*
X76180952Y-103504857D01*
X76219048Y-103428667D01*
X76257143Y-103276286D01*
X76295238Y-103200095D01*
X76333333Y-103162000D01*
X76409524Y-103123905D01*
X76485714Y-103123905D01*
X76561905Y-103162000D01*
X76600000Y-103200095D01*
X76638095Y-103276286D01*
X76638095Y-103466762D01*
X76600000Y-103581048D01*
X76638095Y-103847715D02*
X75838095Y-104038191D01*
X76409524Y-104190572D01*
X75838095Y-104342953D01*
X76638095Y-104533429D01*
X58820000Y-101498477D02*
X58858095Y-101422286D01*
X58858095Y-101308001D01*
X58820000Y-101193715D01*
X58743810Y-101117524D01*
X58667619Y-101079429D01*
X58515238Y-101041334D01*
X58400952Y-101041334D01*
X58248571Y-101079429D01*
X58172381Y-101117524D01*
X58096190Y-101193715D01*
X58058095Y-101308001D01*
X58058095Y-101384191D01*
X58096190Y-101498477D01*
X58134286Y-101536572D01*
X58400952Y-101536572D01*
X58400952Y-101384191D01*
X58058095Y-101879429D02*
X58858095Y-101879429D01*
X58058095Y-102336572D01*
X58858095Y-102336572D01*
X58058095Y-102717524D02*
X58858095Y-102717524D01*
X58858095Y-102908000D01*
X58820000Y-103022286D01*
X58743810Y-103098477D01*
X58667619Y-103136572D01*
X58515238Y-103174667D01*
X58400952Y-103174667D01*
X58248571Y-103136572D01*
X58172381Y-103098477D01*
X58096190Y-103022286D01*
X58058095Y-102908000D01*
X58058095Y-102717524D01*
D11*
X26670000Y-30480000D02*
X52070000Y-30480000D01*
D13*
X28340000Y-102006477D02*
X28378095Y-101930286D01*
X28378095Y-101816001D01*
X28340000Y-101701715D01*
X28263810Y-101625524D01*
X28187619Y-101587429D01*
X28035238Y-101549334D01*
X27920952Y-101549334D01*
X27768571Y-101587429D01*
X27692381Y-101625524D01*
X27616190Y-101701715D01*
X27578095Y-101816001D01*
X27578095Y-101892191D01*
X27616190Y-102006477D01*
X27654286Y-102044572D01*
X27920952Y-102044572D01*
X27920952Y-101892191D01*
X27578095Y-102387429D02*
X28378095Y-102387429D01*
X27578095Y-102844572D01*
X28378095Y-102844572D01*
X27578095Y-103225524D02*
X28378095Y-103225524D01*
X28378095Y-103416000D01*
X28340000Y-103530286D01*
X28263810Y-103606477D01*
X28187619Y-103644572D01*
X28035238Y-103682667D01*
X27920952Y-103682667D01*
X27768571Y-103644572D01*
X27692381Y-103606477D01*
X27616190Y-103530286D01*
X27578095Y-103416000D01*
X27578095Y-103225524D01*
X46158095Y-100292143D02*
X46158095Y-100444524D01*
X46120000Y-100520715D01*
X46043810Y-100596905D01*
X45891429Y-100635000D01*
X45624762Y-100635000D01*
X45472381Y-100596905D01*
X45396190Y-100520715D01*
X45358095Y-100444524D01*
X45358095Y-100292143D01*
X45396190Y-100215953D01*
X45472381Y-100139762D01*
X45624762Y-100101667D01*
X45891429Y-100101667D01*
X46043810Y-100139762D01*
X46120000Y-100215953D01*
X46158095Y-100292143D01*
X46158095Y-100977857D02*
X45510476Y-100977857D01*
X45434286Y-101015952D01*
X45396190Y-101054048D01*
X45358095Y-101130238D01*
X45358095Y-101282619D01*
X45396190Y-101358810D01*
X45434286Y-101396905D01*
X45510476Y-101435000D01*
X46158095Y-101435000D01*
X46158095Y-101701666D02*
X46158095Y-102158809D01*
X45358095Y-101930238D02*
X46158095Y-101930238D01*
X45281905Y-102235000D02*
X45281905Y-102844524D01*
X45396190Y-102996905D02*
X45358095Y-103111191D01*
X45358095Y-103301667D01*
X45396190Y-103377857D01*
X45434286Y-103415953D01*
X45510476Y-103454048D01*
X45586667Y-103454048D01*
X45662857Y-103415953D01*
X45700952Y-103377857D01*
X45739048Y-103301667D01*
X45777143Y-103149286D01*
X45815238Y-103073095D01*
X45853333Y-103035000D01*
X45929524Y-102996905D01*
X46005714Y-102996905D01*
X46081905Y-103035000D01*
X46120000Y-103073095D01*
X46158095Y-103149286D01*
X46158095Y-103339762D01*
X46120000Y-103454048D01*
X46158095Y-103720715D02*
X45358095Y-103911191D01*
X45929524Y-104063572D01*
X45358095Y-104215953D01*
X46158095Y-104406429D01*
X43618095Y-101435000D02*
X43618095Y-101587381D01*
X43580000Y-101663572D01*
X43503810Y-101739762D01*
X43351429Y-101777857D01*
X43084762Y-101777857D01*
X42932381Y-101739762D01*
X42856190Y-101663572D01*
X42818095Y-101587381D01*
X42818095Y-101435000D01*
X42856190Y-101358810D01*
X42932381Y-101282619D01*
X43084762Y-101244524D01*
X43351429Y-101244524D01*
X43503810Y-101282619D01*
X43580000Y-101358810D01*
X43618095Y-101435000D01*
X43618095Y-102120714D02*
X42970476Y-102120714D01*
X42894286Y-102158809D01*
X42856190Y-102196905D01*
X42818095Y-102273095D01*
X42818095Y-102425476D01*
X42856190Y-102501667D01*
X42894286Y-102539762D01*
X42970476Y-102577857D01*
X43618095Y-102577857D01*
X43618095Y-102844523D02*
X43618095Y-103301666D01*
X42818095Y-103073095D02*
X43618095Y-103073095D01*
X40354286Y-101225477D02*
X40316190Y-101187382D01*
X40278095Y-101073096D01*
X40278095Y-100996906D01*
X40316190Y-100882620D01*
X40392381Y-100806429D01*
X40468571Y-100768334D01*
X40620952Y-100730239D01*
X40735238Y-100730239D01*
X40887619Y-100768334D01*
X40963810Y-100806429D01*
X41040000Y-100882620D01*
X41078095Y-100996906D01*
X41078095Y-101073096D01*
X41040000Y-101187382D01*
X41001905Y-101225477D01*
X41078095Y-101454048D02*
X40278095Y-101720715D01*
X41078095Y-101987382D01*
X40201905Y-102063572D02*
X40201905Y-102673096D01*
X40278095Y-102863572D02*
X41078095Y-102863572D01*
X40278095Y-103244524D02*
X41078095Y-103244524D01*
X40278095Y-103701667D01*
X41078095Y-103701667D01*
X37814286Y-100025476D02*
X37776190Y-99987381D01*
X37738095Y-99873095D01*
X37738095Y-99796905D01*
X37776190Y-99682619D01*
X37852381Y-99606428D01*
X37928571Y-99568333D01*
X38080952Y-99530238D01*
X38195238Y-99530238D01*
X38347619Y-99568333D01*
X38423810Y-99606428D01*
X38500000Y-99682619D01*
X38538095Y-99796905D01*
X38538095Y-99873095D01*
X38500000Y-99987381D01*
X38461905Y-100025476D01*
X38538095Y-100254047D02*
X37738095Y-100520714D01*
X38538095Y-100787381D01*
X37661905Y-100863571D02*
X37661905Y-101473095D01*
X37966667Y-101625476D02*
X37966667Y-102006428D01*
X37738095Y-101549285D02*
X38538095Y-101815952D01*
X37738095Y-102082619D01*
X37738095Y-102349285D02*
X38538095Y-102349285D01*
X37966667Y-102615952D01*
X38538095Y-102882619D01*
X37738095Y-102882619D01*
X38538095Y-103149285D02*
X38538095Y-103606428D01*
X37738095Y-103377857D02*
X38538095Y-103377857D01*
X37661905Y-103682619D02*
X37661905Y-104292143D01*
X38157143Y-104749286D02*
X38119048Y-104863572D01*
X38080952Y-104901667D01*
X38004762Y-104939762D01*
X37890476Y-104939762D01*
X37814286Y-104901667D01*
X37776190Y-104863572D01*
X37738095Y-104787381D01*
X37738095Y-104482619D01*
X38538095Y-104482619D01*
X38538095Y-104749286D01*
X38500000Y-104825476D01*
X38461905Y-104863572D01*
X38385714Y-104901667D01*
X38309524Y-104901667D01*
X38233333Y-104863572D01*
X38195238Y-104825476D01*
X38157143Y-104749286D01*
X38157143Y-104482619D01*
X35274286Y-100082619D02*
X35236190Y-100044524D01*
X35198095Y-99930238D01*
X35198095Y-99854048D01*
X35236190Y-99739762D01*
X35312381Y-99663571D01*
X35388571Y-99625476D01*
X35540952Y-99587381D01*
X35655238Y-99587381D01*
X35807619Y-99625476D01*
X35883810Y-99663571D01*
X35960000Y-99739762D01*
X35998095Y-99854048D01*
X35998095Y-99930238D01*
X35960000Y-100044524D01*
X35921905Y-100082619D01*
X35998095Y-100311190D02*
X35198095Y-100577857D01*
X35998095Y-100844524D01*
X35121905Y-100920714D02*
X35121905Y-101530238D01*
X35426667Y-101682619D02*
X35426667Y-102063571D01*
X35198095Y-101606428D02*
X35998095Y-101873095D01*
X35198095Y-102139762D01*
X35198095Y-102406428D02*
X35998095Y-102406428D01*
X35426667Y-102673095D01*
X35998095Y-102939762D01*
X35198095Y-102939762D01*
X35998095Y-103206428D02*
X35998095Y-103663571D01*
X35198095Y-103435000D02*
X35998095Y-103435000D01*
X35121905Y-103739762D02*
X35121905Y-104349286D01*
X35426667Y-104501667D02*
X35426667Y-104882619D01*
X35198095Y-104425476D02*
X35998095Y-104692143D01*
X35198095Y-104958810D01*
D10*
X47279072Y-28741714D02*
X47433833Y-29408381D01*
X47755263Y-28741714D01*
X48439787Y-29360762D02*
X48338596Y-29408381D01*
X48148119Y-29408381D01*
X48058834Y-29360762D01*
X48023120Y-29265524D01*
X48070739Y-28884571D01*
X48130262Y-28789333D01*
X48231453Y-28741714D01*
X48421930Y-28741714D01*
X48511215Y-28789333D01*
X48546930Y-28884571D01*
X48535025Y-28979810D01*
X48046929Y-29075048D01*
X48910024Y-29408381D02*
X48993358Y-28741714D01*
X48969548Y-28932190D02*
X49029072Y-28836952D01*
X49082643Y-28789333D01*
X49183834Y-28741714D01*
X49279073Y-28741714D01*
X49540977Y-29313143D02*
X49582644Y-29360762D01*
X49529072Y-29408381D01*
X49487406Y-29360762D01*
X49540977Y-29313143D01*
X49529072Y-29408381D01*
X51290977Y-29408381D02*
X50719548Y-29408381D01*
X51005262Y-29408381D02*
X51130262Y-28408381D01*
X51017167Y-28551238D01*
X50910025Y-28646476D01*
X50808834Y-28694095D01*
X51731453Y-29313143D02*
X51773120Y-29360762D01*
X51719548Y-29408381D01*
X51677882Y-29360762D01*
X51731453Y-29313143D01*
X51719548Y-29408381D01*
X52511214Y-28408381D02*
X52606453Y-28408381D01*
X52695739Y-28456000D01*
X52737406Y-28503619D01*
X52773120Y-28598857D01*
X52796929Y-28789333D01*
X52767167Y-29027429D01*
X52695739Y-29217905D01*
X52636215Y-29313143D01*
X52582644Y-29360762D01*
X52481453Y-29408381D01*
X52386214Y-29408381D01*
X52296929Y-29360762D01*
X52255262Y-29313143D01*
X52219548Y-29217905D01*
X52195738Y-29027429D01*
X52225500Y-28789333D01*
X52296929Y-28598857D01*
X52356453Y-28503619D01*
X52410024Y-28456000D01*
X52511214Y-28408381D01*
D13*
X30118095Y-100063572D02*
X30918095Y-100063572D01*
X30918095Y-100368334D01*
X30880000Y-100444525D01*
X30841905Y-100482620D01*
X30765714Y-100520715D01*
X30651429Y-100520715D01*
X30575238Y-100482620D01*
X30537143Y-100444525D01*
X30499048Y-100368334D01*
X30499048Y-100063572D01*
X30118095Y-100863572D02*
X30918095Y-100863572D01*
X30918095Y-101130238D02*
X30918095Y-101587381D01*
X30118095Y-101358810D02*
X30918095Y-101358810D01*
X30194286Y-102311191D02*
X30156190Y-102273096D01*
X30118095Y-102158810D01*
X30118095Y-102082620D01*
X30156190Y-101968334D01*
X30232381Y-101892143D01*
X30308571Y-101854048D01*
X30460952Y-101815953D01*
X30575238Y-101815953D01*
X30727619Y-101854048D01*
X30803810Y-101892143D01*
X30880000Y-101968334D01*
X30918095Y-102082620D01*
X30918095Y-102158810D01*
X30880000Y-102273096D01*
X30841905Y-102311191D01*
X30118095Y-102654048D02*
X30918095Y-102654048D01*
X30537143Y-102654048D02*
X30537143Y-103111191D01*
X30118095Y-103111191D02*
X30918095Y-103111191D01*
X30041905Y-103301667D02*
X30041905Y-103911191D01*
X30346667Y-104063572D02*
X30346667Y-104444524D01*
X30118095Y-103987381D02*
X30918095Y-104254048D01*
X30118095Y-104520715D01*
X32658095Y-100006429D02*
X33458095Y-100006429D01*
X33458095Y-100311191D01*
X33420000Y-100387382D01*
X33381905Y-100425477D01*
X33305714Y-100463572D01*
X33191429Y-100463572D01*
X33115238Y-100425477D01*
X33077143Y-100387382D01*
X33039048Y-100311191D01*
X33039048Y-100006429D01*
X32658095Y-100806429D02*
X33458095Y-100806429D01*
X33458095Y-101073095D02*
X33458095Y-101530238D01*
X32658095Y-101301667D02*
X33458095Y-101301667D01*
X32734286Y-102254048D02*
X32696190Y-102215953D01*
X32658095Y-102101667D01*
X32658095Y-102025477D01*
X32696190Y-101911191D01*
X32772381Y-101835000D01*
X32848571Y-101796905D01*
X33000952Y-101758810D01*
X33115238Y-101758810D01*
X33267619Y-101796905D01*
X33343810Y-101835000D01*
X33420000Y-101911191D01*
X33458095Y-102025477D01*
X33458095Y-102101667D01*
X33420000Y-102215953D01*
X33381905Y-102254048D01*
X32658095Y-102596905D02*
X33458095Y-102596905D01*
X33077143Y-102596905D02*
X33077143Y-103054048D01*
X32658095Y-103054048D02*
X33458095Y-103054048D01*
X32581905Y-103244524D02*
X32581905Y-103854048D01*
X33077143Y-104311191D02*
X33039048Y-104425477D01*
X33000952Y-104463572D01*
X32924762Y-104501667D01*
X32810476Y-104501667D01*
X32734286Y-104463572D01*
X32696190Y-104425477D01*
X32658095Y-104349286D01*
X32658095Y-104044524D01*
X33458095Y-104044524D01*
X33458095Y-104311191D01*
X33420000Y-104387381D01*
X33381905Y-104425477D01*
X33305714Y-104463572D01*
X33229524Y-104463572D01*
X33153333Y-104425477D01*
X33115238Y-104387381D01*
X33077143Y-104311191D01*
X33077143Y-104044524D01*
D10*
X41171547Y-26287381D02*
X41296547Y-25287381D01*
X41248928Y-25668333D02*
X41350119Y-25620714D01*
X41540596Y-25620714D01*
X41629881Y-25668333D01*
X41671548Y-25715952D01*
X41707262Y-25811190D01*
X41671548Y-26096905D01*
X41612024Y-26192143D01*
X41558453Y-26239762D01*
X41457262Y-26287381D01*
X41266785Y-26287381D01*
X41177500Y-26239762D01*
X42064405Y-25620714D02*
X42219166Y-26287381D01*
X42540596Y-25620714D02*
X42219166Y-26287381D01*
X42094166Y-26525476D01*
X42040595Y-26573095D01*
X41939405Y-26620714D01*
X43558453Y-26239762D02*
X43647738Y-26287381D01*
X43838214Y-26287381D01*
X43939406Y-26239762D01*
X43998930Y-26144524D01*
X44004882Y-26096905D01*
X43969168Y-26001667D01*
X43879881Y-25954048D01*
X43737024Y-25954048D01*
X43647738Y-25906429D01*
X43612024Y-25811190D01*
X43617977Y-25763571D01*
X43677500Y-25668333D01*
X43778691Y-25620714D01*
X43921548Y-25620714D01*
X44010834Y-25668333D01*
X44397739Y-25620714D02*
X44552500Y-26287381D01*
X44873930Y-25620714D02*
X44552500Y-26287381D01*
X44427500Y-26525476D01*
X44373929Y-26573095D01*
X44272739Y-26620714D01*
X45254882Y-25620714D02*
X45171548Y-26287381D01*
X45242977Y-25715952D02*
X45296548Y-25668333D01*
X45397739Y-25620714D01*
X45540597Y-25620714D01*
X45629882Y-25668333D01*
X45665597Y-25763571D01*
X45600120Y-26287381D01*
X46016787Y-25620714D02*
X46397739Y-25620714D01*
X46201310Y-25287381D02*
X46094168Y-26144524D01*
X46129882Y-26239762D01*
X46219167Y-26287381D01*
X46314405Y-26287381D01*
X46647739Y-26287381D02*
X46772739Y-25287381D01*
X47076311Y-26287381D02*
X47141788Y-25763571D01*
X47106073Y-25668333D01*
X47016788Y-25620714D01*
X46873930Y-25620714D01*
X46772739Y-25668333D01*
X46719168Y-25715952D01*
X47600120Y-25906429D02*
X48362025Y-25906429D01*
X49219168Y-26287381D02*
X49344168Y-25287381D01*
X49225121Y-26239762D02*
X49123930Y-26287381D01*
X48933453Y-26287381D01*
X48844168Y-26239762D01*
X48802501Y-26192143D01*
X48766787Y-26096905D01*
X48802501Y-25811190D01*
X48862025Y-25715952D01*
X48915596Y-25668333D01*
X49016787Y-25620714D01*
X49207264Y-25620714D01*
X49296549Y-25668333D01*
X49695358Y-26287381D02*
X49778692Y-25620714D01*
X49820358Y-25287381D02*
X49766787Y-25335000D01*
X49808454Y-25382619D01*
X49862025Y-25335000D01*
X49820358Y-25287381D01*
X49808454Y-25382619D01*
X50159644Y-25620714D02*
X50314405Y-26287381D01*
X50635835Y-25620714D02*
X50314405Y-26287381D01*
X50189405Y-26525476D01*
X50135834Y-26573095D01*
X50034644Y-26620714D01*
X50945358Y-26192143D02*
X50987025Y-26239762D01*
X50933453Y-26287381D01*
X50891787Y-26239762D01*
X50945358Y-26192143D01*
X50933453Y-26287381D01*
X51838215Y-26287381D02*
X51963215Y-25287381D01*
X51844168Y-26239762D02*
X51742977Y-26287381D01*
X51552500Y-26287381D01*
X51463215Y-26239762D01*
X51421548Y-26192143D01*
X51385834Y-26096905D01*
X51421548Y-25811190D01*
X51481072Y-25715952D01*
X51534643Y-25668333D01*
X51635834Y-25620714D01*
X51826311Y-25620714D01*
X51915596Y-25668333D01*
X52701311Y-26239762D02*
X52600120Y-26287381D01*
X52409643Y-26287381D01*
X52320358Y-26239762D01*
X52284644Y-26144524D01*
X52332263Y-25763571D01*
X52391786Y-25668333D01*
X52492977Y-25620714D01*
X52683454Y-25620714D01*
X52772739Y-25668333D01*
X52808454Y-25763571D01*
X52796549Y-25858810D01*
X52308453Y-25954048D01*
D12*
X26357143Y-28467857D02*
X26857143Y-28467857D01*
X27071429Y-29253571D02*
X26357143Y-29253571D01*
X26357143Y-27753571D01*
X27071429Y-27753571D01*
X27571429Y-29253571D02*
X28357143Y-28253571D01*
X27571429Y-28253571D02*
X28357143Y-29253571D01*
X28928572Y-28253571D02*
X28928572Y-29753571D01*
X28928572Y-28325000D02*
X29071429Y-28253571D01*
X29357143Y-28253571D01*
X29500000Y-28325000D01*
X29571429Y-28396429D01*
X29642858Y-28539286D01*
X29642858Y-28967857D01*
X29571429Y-29110714D01*
X29500000Y-29182143D01*
X29357143Y-29253571D01*
X29071429Y-29253571D01*
X28928572Y-29182143D01*
X30857143Y-29182143D02*
X30714286Y-29253571D01*
X30428572Y-29253571D01*
X30285715Y-29182143D01*
X30214286Y-29039286D01*
X30214286Y-28467857D01*
X30285715Y-28325000D01*
X30428572Y-28253571D01*
X30714286Y-28253571D01*
X30857143Y-28325000D01*
X30928572Y-28467857D01*
X30928572Y-28610714D01*
X30214286Y-28753571D01*
X31571429Y-29253571D02*
X31571429Y-28253571D01*
X31571429Y-28539286D02*
X31642857Y-28396429D01*
X31714286Y-28325000D01*
X31857143Y-28253571D01*
X32000000Y-28253571D01*
X32500000Y-29253571D02*
X32500000Y-28253571D01*
X32500000Y-27753571D02*
X32428571Y-27825000D01*
X32500000Y-27896429D01*
X32571428Y-27825000D01*
X32500000Y-27753571D01*
X32500000Y-27896429D01*
X33214286Y-29253571D02*
X33214286Y-28253571D01*
X33214286Y-28396429D02*
X33285714Y-28325000D01*
X33428572Y-28253571D01*
X33642857Y-28253571D01*
X33785714Y-28325000D01*
X33857143Y-28467857D01*
X33857143Y-29253571D01*
X33857143Y-28467857D02*
X33928572Y-28325000D01*
X34071429Y-28253571D01*
X34285714Y-28253571D01*
X34428572Y-28325000D01*
X34500000Y-28467857D01*
X34500000Y-29253571D01*
X35785714Y-29182143D02*
X35642857Y-29253571D01*
X35357143Y-29253571D01*
X35214286Y-29182143D01*
X35142857Y-29039286D01*
X35142857Y-28467857D01*
X35214286Y-28325000D01*
X35357143Y-28253571D01*
X35642857Y-28253571D01*
X35785714Y-28325000D01*
X35857143Y-28467857D01*
X35857143Y-28610714D01*
X35142857Y-28753571D01*
X36500000Y-28253571D02*
X36500000Y-29253571D01*
X36500000Y-28396429D02*
X36571428Y-28325000D01*
X36714286Y-28253571D01*
X36928571Y-28253571D01*
X37071428Y-28325000D01*
X37142857Y-28467857D01*
X37142857Y-29253571D01*
X37642857Y-28253571D02*
X38214286Y-28253571D01*
X37857143Y-27753571D02*
X37857143Y-29039286D01*
X37928571Y-29182143D01*
X38071429Y-29253571D01*
X38214286Y-29253571D01*
X40357143Y-28467857D02*
X40571429Y-28539286D01*
X40642857Y-28610714D01*
X40714286Y-28753571D01*
X40714286Y-28967857D01*
X40642857Y-29110714D01*
X40571429Y-29182143D01*
X40428571Y-29253571D01*
X39857143Y-29253571D01*
X39857143Y-27753571D01*
X40357143Y-27753571D01*
X40500000Y-27825000D01*
X40571429Y-27896429D01*
X40642857Y-28039286D01*
X40642857Y-28182143D01*
X40571429Y-28325000D01*
X40500000Y-28396429D01*
X40357143Y-28467857D01*
X39857143Y-28467857D01*
X41571429Y-29253571D02*
X41428571Y-29182143D01*
X41357143Y-29110714D01*
X41285714Y-28967857D01*
X41285714Y-28539286D01*
X41357143Y-28396429D01*
X41428571Y-28325000D01*
X41571429Y-28253571D01*
X41785714Y-28253571D01*
X41928571Y-28325000D01*
X42000000Y-28396429D01*
X42071429Y-28539286D01*
X42071429Y-28967857D01*
X42000000Y-29110714D01*
X41928571Y-29182143D01*
X41785714Y-29253571D01*
X41571429Y-29253571D01*
X43357143Y-29253571D02*
X43357143Y-28467857D01*
X43285714Y-28325000D01*
X43142857Y-28253571D01*
X42857143Y-28253571D01*
X42714286Y-28325000D01*
X43357143Y-29182143D02*
X43214286Y-29253571D01*
X42857143Y-29253571D01*
X42714286Y-29182143D01*
X42642857Y-29039286D01*
X42642857Y-28896429D01*
X42714286Y-28753571D01*
X42857143Y-28682143D01*
X43214286Y-28682143D01*
X43357143Y-28610714D01*
X44071429Y-29253571D02*
X44071429Y-28253571D01*
X44071429Y-28539286D02*
X44142857Y-28396429D01*
X44214286Y-28325000D01*
X44357143Y-28253571D01*
X44500000Y-28253571D01*
X45642857Y-29253571D02*
X45642857Y-27753571D01*
X45642857Y-29182143D02*
X45500000Y-29253571D01*
X45214286Y-29253571D01*
X45071428Y-29182143D01*
X45000000Y-29110714D01*
X44928571Y-28967857D01*
X44928571Y-28539286D01*
X45000000Y-28396429D01*
X45071428Y-28325000D01*
X45214286Y-28253571D01*
X45500000Y-28253571D01*
X45642857Y-28325000D01*
D14*
X27877143Y-24122143D02*
X27877143Y-26122143D01*
X27162857Y-22979286D02*
X26448572Y-25122143D01*
X28305714Y-25122143D01*
X30020000Y-23122143D02*
X30305715Y-23122143D01*
X30591429Y-23265000D01*
X30734286Y-23407857D01*
X30877143Y-23693571D01*
X31020000Y-24265000D01*
X31020000Y-24979286D01*
X30877143Y-25550714D01*
X30734286Y-25836429D01*
X30591429Y-25979286D01*
X30305715Y-26122143D01*
X30020000Y-26122143D01*
X29734286Y-25979286D01*
X29591429Y-25836429D01*
X29448572Y-25550714D01*
X29305715Y-24979286D01*
X29305715Y-24265000D01*
X29448572Y-23693571D01*
X29591429Y-23407857D01*
X29734286Y-23265000D01*
X30020000Y-23122143D01*
X33877143Y-26122143D02*
X32162858Y-26122143D01*
X33020000Y-26122143D02*
X33020000Y-23122143D01*
X32734286Y-23550714D01*
X32448572Y-23836429D01*
X32162858Y-23979286D01*
X35734286Y-23122143D02*
X36020001Y-23122143D01*
X36305715Y-23265000D01*
X36448572Y-23407857D01*
X36591429Y-23693571D01*
X36734286Y-24265000D01*
X36734286Y-24979286D01*
X36591429Y-25550714D01*
X36448572Y-25836429D01*
X36305715Y-25979286D01*
X36020001Y-26122143D01*
X35734286Y-26122143D01*
X35448572Y-25979286D01*
X35305715Y-25836429D01*
X35162858Y-25550714D01*
X35020001Y-24979286D01*
X35020001Y-24265000D01*
X35162858Y-23693571D01*
X35305715Y-23407857D01*
X35448572Y-23265000D01*
X35734286Y-23122143D01*
X39305715Y-23122143D02*
X38734286Y-23122143D01*
X38448572Y-23265000D01*
X38305715Y-23407857D01*
X38020001Y-23836429D01*
X37877144Y-24407857D01*
X37877144Y-25550714D01*
X38020001Y-25836429D01*
X38162858Y-25979286D01*
X38448572Y-26122143D01*
X39020001Y-26122143D01*
X39305715Y-25979286D01*
X39448572Y-25836429D01*
X39591429Y-25550714D01*
X39591429Y-24836429D01*
X39448572Y-24550714D01*
X39305715Y-24407857D01*
X39020001Y-24265000D01*
X38448572Y-24265000D01*
X38162858Y-24407857D01*
X38020001Y-24550714D01*
X37877144Y-24836429D01*
D12*
X97822286Y-59098571D02*
X97822286Y-57598571D01*
X98322286Y-58670000D01*
X98822286Y-57598571D01*
X98822286Y-59098571D01*
X99536572Y-59098571D02*
X99536572Y-57598571D01*
X100108001Y-57598571D02*
X101108001Y-59098571D01*
X101108001Y-57598571D02*
X100108001Y-59098571D01*
X101322286Y-59241429D02*
X102465143Y-59241429D01*
X103679429Y-59098571D02*
X103179429Y-58384286D01*
X102822286Y-59098571D02*
X102822286Y-57598571D01*
X103393714Y-57598571D01*
X103536572Y-57670000D01*
X103608000Y-57741429D01*
X103679429Y-57884286D01*
X103679429Y-58098571D01*
X103608000Y-58241429D01*
X103536572Y-58312857D01*
X103393714Y-58384286D01*
X102822286Y-58384286D01*
X104322286Y-58312857D02*
X104822286Y-58312857D01*
X105036572Y-59098571D02*
X104322286Y-59098571D01*
X104322286Y-57598571D01*
X105036572Y-57598571D01*
X105608000Y-59027143D02*
X105822286Y-59098571D01*
X106179429Y-59098571D01*
X106322286Y-59027143D01*
X106393715Y-58955714D01*
X106465143Y-58812857D01*
X106465143Y-58670000D01*
X106393715Y-58527143D01*
X106322286Y-58455714D01*
X106179429Y-58384286D01*
X105893715Y-58312857D01*
X105750857Y-58241429D01*
X105679429Y-58170000D01*
X105608000Y-58027143D01*
X105608000Y-57884286D01*
X105679429Y-57741429D01*
X105750857Y-57670000D01*
X105893715Y-57598571D01*
X106250857Y-57598571D01*
X106465143Y-57670000D01*
X82606286Y-58955714D02*
X82534857Y-59027143D01*
X82320571Y-59098571D01*
X82177714Y-59098571D01*
X81963429Y-59027143D01*
X81820571Y-58884286D01*
X81749143Y-58741429D01*
X81677714Y-58455714D01*
X81677714Y-58241429D01*
X81749143Y-57955714D01*
X81820571Y-57812857D01*
X81963429Y-57670000D01*
X82177714Y-57598571D01*
X82320571Y-57598571D01*
X82534857Y-57670000D01*
X82606286Y-57741429D01*
X83034857Y-57598571D02*
X83534857Y-59098571D01*
X84034857Y-57598571D01*
X84177714Y-59241429D02*
X85320571Y-59241429D01*
X85677714Y-59098571D02*
X85677714Y-57598571D01*
X86392000Y-59098571D02*
X86392000Y-57598571D01*
X87249143Y-59098571D01*
X87249143Y-57598571D01*
X87606286Y-59241429D02*
X88749143Y-59241429D01*
X89106286Y-59098571D02*
X89106286Y-57598571D01*
X89463429Y-57598571D01*
X89677714Y-57670000D01*
X89820572Y-57812857D01*
X89892000Y-57955714D01*
X89963429Y-58241429D01*
X89963429Y-58455714D01*
X89892000Y-58741429D01*
X89820572Y-58884286D01*
X89677714Y-59027143D01*
X89463429Y-59098571D01*
X89106286Y-59098571D01*
X90606286Y-59098571D02*
X90606286Y-57598571D01*
X91606286Y-57598571D02*
X91892000Y-57598571D01*
X92034858Y-57670000D01*
X92177715Y-57812857D01*
X92249143Y-58098571D01*
X92249143Y-58598571D01*
X92177715Y-58884286D01*
X92034858Y-59027143D01*
X91892000Y-59098571D01*
X91606286Y-59098571D01*
X91463429Y-59027143D01*
X91320572Y-58884286D01*
X91249143Y-58598571D01*
X91249143Y-58098571D01*
X91320572Y-57812857D01*
X91463429Y-57670000D01*
X91606286Y-57598571D01*
X92892001Y-59098571D02*
X92892001Y-57598571D01*
X93249144Y-57598571D01*
X93463429Y-57670000D01*
X93606287Y-57812857D01*
X93677715Y-57955714D01*
X93749144Y-58241429D01*
X93749144Y-58455714D01*
X93677715Y-58741429D01*
X93606287Y-58884286D01*
X93463429Y-59027143D01*
X93249144Y-59098571D01*
X92892001Y-59098571D01*
X94392001Y-58312857D02*
X94892001Y-58312857D01*
X95106287Y-59098571D02*
X94392001Y-59098571D01*
X94392001Y-57598571D01*
X95106287Y-57598571D01*
X70576858Y-58955714D02*
X70505429Y-59027143D01*
X70291143Y-59098571D01*
X70148286Y-59098571D01*
X69934001Y-59027143D01*
X69791143Y-58884286D01*
X69719715Y-58741429D01*
X69648286Y-58455714D01*
X69648286Y-58241429D01*
X69719715Y-57955714D01*
X69791143Y-57812857D01*
X69934001Y-57670000D01*
X70148286Y-57598571D01*
X70291143Y-57598571D01*
X70505429Y-57670000D01*
X70576858Y-57741429D01*
X71005429Y-57598571D02*
X71505429Y-59098571D01*
X72005429Y-57598571D01*
X72148286Y-59241429D02*
X73291143Y-59241429D01*
X73648286Y-59098571D02*
X73648286Y-57598571D01*
X74362572Y-59098571D02*
X74362572Y-57598571D01*
X75219715Y-59098571D01*
X75219715Y-57598571D01*
X75576858Y-59241429D02*
X76719715Y-59241429D01*
X77934001Y-59098571D02*
X77434001Y-58384286D01*
X77076858Y-59098571D02*
X77076858Y-57598571D01*
X77648286Y-57598571D01*
X77791144Y-57670000D01*
X77862572Y-57741429D01*
X77934001Y-57884286D01*
X77934001Y-58098571D01*
X77862572Y-58241429D01*
X77791144Y-58312857D01*
X77648286Y-58384286D01*
X77076858Y-58384286D01*
X78576858Y-58312857D02*
X79076858Y-58312857D01*
X79291144Y-59098571D02*
X78576858Y-59098571D01*
X78576858Y-57598571D01*
X79291144Y-57598571D01*
X79862572Y-59027143D02*
X80076858Y-59098571D01*
X80434001Y-59098571D01*
X80576858Y-59027143D01*
X80648287Y-58955714D01*
X80719715Y-58812857D01*
X80719715Y-58670000D01*
X80648287Y-58527143D01*
X80576858Y-58455714D01*
X80434001Y-58384286D01*
X80148287Y-58312857D01*
X80005429Y-58241429D01*
X79934001Y-58170000D01*
X79862572Y-58027143D01*
X79862572Y-57884286D01*
X79934001Y-57741429D01*
X80005429Y-57670000D01*
X80148287Y-57598571D01*
X80505429Y-57598571D01*
X80719715Y-57670000D01*
X58777714Y-57598571D02*
X59063428Y-57598571D01*
X59206286Y-57670000D01*
X59349143Y-57812857D01*
X59420571Y-58098571D01*
X59420571Y-58598571D01*
X59349143Y-58884286D01*
X59206286Y-59027143D01*
X59063428Y-59098571D01*
X58777714Y-59098571D01*
X58634857Y-59027143D01*
X58492000Y-58884286D01*
X58420571Y-58598571D01*
X58420571Y-58098571D01*
X58492000Y-57812857D01*
X58634857Y-57670000D01*
X58777714Y-57598571D01*
X60063429Y-57598571D02*
X60063429Y-58812857D01*
X60134857Y-58955714D01*
X60206286Y-59027143D01*
X60349143Y-59098571D01*
X60634857Y-59098571D01*
X60777715Y-59027143D01*
X60849143Y-58955714D01*
X60920572Y-58812857D01*
X60920572Y-57598571D01*
X61420572Y-57598571D02*
X62277715Y-57598571D01*
X61849144Y-59098571D02*
X61849144Y-57598571D01*
X62420572Y-59241429D02*
X63563429Y-59241429D01*
X64777715Y-59098571D02*
X64277715Y-58384286D01*
X63920572Y-59098571D02*
X63920572Y-57598571D01*
X64492000Y-57598571D01*
X64634858Y-57670000D01*
X64706286Y-57741429D01*
X64777715Y-57884286D01*
X64777715Y-58098571D01*
X64706286Y-58241429D01*
X64634858Y-58312857D01*
X64492000Y-58384286D01*
X63920572Y-58384286D01*
X65420572Y-58312857D02*
X65920572Y-58312857D01*
X66134858Y-59098571D02*
X65420572Y-59098571D01*
X65420572Y-57598571D01*
X66134858Y-57598571D01*
X66706286Y-59027143D02*
X66920572Y-59098571D01*
X67277715Y-59098571D01*
X67420572Y-59027143D01*
X67492001Y-58955714D01*
X67563429Y-58812857D01*
X67563429Y-58670000D01*
X67492001Y-58527143D01*
X67420572Y-58455714D01*
X67277715Y-58384286D01*
X66992001Y-58312857D01*
X66849143Y-58241429D01*
X66777715Y-58170000D01*
X66706286Y-58027143D01*
X66706286Y-57884286D01*
X66777715Y-57741429D01*
X66849143Y-57670000D01*
X66992001Y-57598571D01*
X67349143Y-57598571D01*
X67563429Y-57670000D01*
X46371429Y-59098571D02*
X46371429Y-57598571D01*
X47085715Y-59098571D02*
X47085715Y-57598571D01*
X47942858Y-59098571D01*
X47942858Y-57598571D01*
X48657144Y-59098571D02*
X48657144Y-57598571D01*
X49157144Y-57598571D02*
X50014287Y-57598571D01*
X49585716Y-59098571D02*
X49585716Y-57598571D01*
X50157144Y-59241429D02*
X51300001Y-59241429D01*
X52514287Y-59098571D02*
X52014287Y-58384286D01*
X51657144Y-59098571D02*
X51657144Y-57598571D01*
X52228572Y-57598571D01*
X52371430Y-57670000D01*
X52442858Y-57741429D01*
X52514287Y-57884286D01*
X52514287Y-58098571D01*
X52442858Y-58241429D01*
X52371430Y-58312857D01*
X52228572Y-58384286D01*
X51657144Y-58384286D01*
X53157144Y-58312857D02*
X53657144Y-58312857D01*
X53871430Y-59098571D02*
X53157144Y-59098571D01*
X53157144Y-57598571D01*
X53871430Y-57598571D01*
X54442858Y-59027143D02*
X54657144Y-59098571D01*
X55014287Y-59098571D01*
X55157144Y-59027143D01*
X55228573Y-58955714D01*
X55300001Y-58812857D01*
X55300001Y-58670000D01*
X55228573Y-58527143D01*
X55157144Y-58455714D01*
X55014287Y-58384286D01*
X54728573Y-58312857D01*
X54585715Y-58241429D01*
X54514287Y-58170000D01*
X54442858Y-58027143D01*
X54442858Y-57884286D01*
X54514287Y-57741429D01*
X54585715Y-57670000D01*
X54728573Y-57598571D01*
X55085715Y-57598571D01*
X55300001Y-57670000D01*
X38949429Y-58955714D02*
X38878000Y-59027143D01*
X38663714Y-59098571D01*
X38520857Y-59098571D01*
X38306572Y-59027143D01*
X38163714Y-58884286D01*
X38092286Y-58741429D01*
X38020857Y-58455714D01*
X38020857Y-58241429D01*
X38092286Y-57955714D01*
X38163714Y-57812857D01*
X38306572Y-57670000D01*
X38520857Y-57598571D01*
X38663714Y-57598571D01*
X38878000Y-57670000D01*
X38949429Y-57741429D01*
X39520857Y-58670000D02*
X40235143Y-58670000D01*
X39378000Y-59098571D02*
X39878000Y-57598571D01*
X40378000Y-59098571D01*
X40878000Y-59098571D02*
X40878000Y-57598571D01*
X41449428Y-57598571D01*
X41592286Y-57670000D01*
X41663714Y-57741429D01*
X41735143Y-57884286D01*
X41735143Y-58098571D01*
X41663714Y-58241429D01*
X41592286Y-58312857D01*
X41449428Y-58384286D01*
X40878000Y-58384286D01*
D11*
X26670000Y-86360000D02*
X107950000Y-86360000D01*
X26670000Y-81280000D02*
X26670000Y-80010000D01*
X107950000Y-81280000D02*
X26670000Y-81280000D01*
X26670000Y-76200000D02*
X107950000Y-76200000D01*
X26670000Y-67310000D02*
X26670000Y-66040000D01*
X26670000Y-91440000D02*
X26670000Y-71120000D01*
X107950000Y-91440000D02*
X26670000Y-91440000D01*
X26670000Y-71120000D02*
X107950000Y-71120000D01*
X26670000Y-67310000D02*
X26670000Y-71120000D01*
D12*
X27587143Y-88078571D02*
X27872857Y-88078571D01*
X28015715Y-88150000D01*
X28158572Y-88292857D01*
X28230000Y-88578571D01*
X28230000Y-89078571D01*
X28158572Y-89364286D01*
X28015715Y-89507143D01*
X27872857Y-89578571D01*
X27587143Y-89578571D01*
X27444286Y-89507143D01*
X27301429Y-89364286D01*
X27230000Y-89078571D01*
X27230000Y-88578571D01*
X27301429Y-88292857D01*
X27444286Y-88150000D01*
X27587143Y-88078571D01*
X28801429Y-89507143D02*
X29015715Y-89578571D01*
X29372858Y-89578571D01*
X29515715Y-89507143D01*
X29587144Y-89435714D01*
X29658572Y-89292857D01*
X29658572Y-89150000D01*
X29587144Y-89007143D01*
X29515715Y-88935714D01*
X29372858Y-88864286D01*
X29087144Y-88792857D01*
X28944286Y-88721429D01*
X28872858Y-88650000D01*
X28801429Y-88507143D01*
X28801429Y-88364286D01*
X28872858Y-88221429D01*
X28944286Y-88150000D01*
X29087144Y-88078571D01*
X29444286Y-88078571D01*
X29658572Y-88150000D01*
X31158572Y-89435714D02*
X31087143Y-89507143D01*
X30872857Y-89578571D01*
X30730000Y-89578571D01*
X30515715Y-89507143D01*
X30372857Y-89364286D01*
X30301429Y-89221429D01*
X30230000Y-88935714D01*
X30230000Y-88721429D01*
X30301429Y-88435714D01*
X30372857Y-88292857D01*
X30515715Y-88150000D01*
X30730000Y-88078571D01*
X30872857Y-88078571D01*
X31087143Y-88150000D01*
X31158572Y-88221429D01*
X31444286Y-89721429D02*
X32587143Y-89721429D01*
X33587143Y-88078571D02*
X33301429Y-88078571D01*
X33158572Y-88150000D01*
X33087143Y-88221429D01*
X32944286Y-88435714D01*
X32872857Y-88721429D01*
X32872857Y-89292857D01*
X32944286Y-89435714D01*
X33015714Y-89507143D01*
X33158572Y-89578571D01*
X33444286Y-89578571D01*
X33587143Y-89507143D01*
X33658572Y-89435714D01*
X33730000Y-89292857D01*
X33730000Y-88935714D01*
X33658572Y-88792857D01*
X33587143Y-88721429D01*
X33444286Y-88650000D01*
X33158572Y-88650000D01*
X33015714Y-88721429D01*
X32944286Y-88792857D01*
X32872857Y-88935714D01*
X27587143Y-82998571D02*
X27872857Y-82998571D01*
X28015715Y-83070000D01*
X28158572Y-83212857D01*
X28230000Y-83498571D01*
X28230000Y-83998571D01*
X28158572Y-84284286D01*
X28015715Y-84427143D01*
X27872857Y-84498571D01*
X27587143Y-84498571D01*
X27444286Y-84427143D01*
X27301429Y-84284286D01*
X27230000Y-83998571D01*
X27230000Y-83498571D01*
X27301429Y-83212857D01*
X27444286Y-83070000D01*
X27587143Y-82998571D01*
X28801429Y-84427143D02*
X29015715Y-84498571D01*
X29372858Y-84498571D01*
X29515715Y-84427143D01*
X29587144Y-84355714D01*
X29658572Y-84212857D01*
X29658572Y-84070000D01*
X29587144Y-83927143D01*
X29515715Y-83855714D01*
X29372858Y-83784286D01*
X29087144Y-83712857D01*
X28944286Y-83641429D01*
X28872858Y-83570000D01*
X28801429Y-83427143D01*
X28801429Y-83284286D01*
X28872858Y-83141429D01*
X28944286Y-83070000D01*
X29087144Y-82998571D01*
X29444286Y-82998571D01*
X29658572Y-83070000D01*
X31158572Y-84355714D02*
X31087143Y-84427143D01*
X30872857Y-84498571D01*
X30730000Y-84498571D01*
X30515715Y-84427143D01*
X30372857Y-84284286D01*
X30301429Y-84141429D01*
X30230000Y-83855714D01*
X30230000Y-83641429D01*
X30301429Y-83355714D01*
X30372857Y-83212857D01*
X30515715Y-83070000D01*
X30730000Y-82998571D01*
X30872857Y-82998571D01*
X31087143Y-83070000D01*
X31158572Y-83141429D01*
X31444286Y-84641429D02*
X32587143Y-84641429D01*
X33658572Y-82998571D02*
X32944286Y-82998571D01*
X32872857Y-83712857D01*
X32944286Y-83641429D01*
X33087143Y-83570000D01*
X33444286Y-83570000D01*
X33587143Y-83641429D01*
X33658572Y-83712857D01*
X33730000Y-83855714D01*
X33730000Y-84212857D01*
X33658572Y-84355714D01*
X33587143Y-84427143D01*
X33444286Y-84498571D01*
X33087143Y-84498571D01*
X32944286Y-84427143D01*
X32872857Y-84355714D01*
X27587143Y-77918571D02*
X27872857Y-77918571D01*
X28015715Y-77990000D01*
X28158572Y-78132857D01*
X28230000Y-78418571D01*
X28230000Y-78918571D01*
X28158572Y-79204286D01*
X28015715Y-79347143D01*
X27872857Y-79418571D01*
X27587143Y-79418571D01*
X27444286Y-79347143D01*
X27301429Y-79204286D01*
X27230000Y-78918571D01*
X27230000Y-78418571D01*
X27301429Y-78132857D01*
X27444286Y-77990000D01*
X27587143Y-77918571D01*
X28801429Y-79347143D02*
X29015715Y-79418571D01*
X29372858Y-79418571D01*
X29515715Y-79347143D01*
X29587144Y-79275714D01*
X29658572Y-79132857D01*
X29658572Y-78990000D01*
X29587144Y-78847143D01*
X29515715Y-78775714D01*
X29372858Y-78704286D01*
X29087144Y-78632857D01*
X28944286Y-78561429D01*
X28872858Y-78490000D01*
X28801429Y-78347143D01*
X28801429Y-78204286D01*
X28872858Y-78061429D01*
X28944286Y-77990000D01*
X29087144Y-77918571D01*
X29444286Y-77918571D01*
X29658572Y-77990000D01*
X31158572Y-79275714D02*
X31087143Y-79347143D01*
X30872857Y-79418571D01*
X30730000Y-79418571D01*
X30515715Y-79347143D01*
X30372857Y-79204286D01*
X30301429Y-79061429D01*
X30230000Y-78775714D01*
X30230000Y-78561429D01*
X30301429Y-78275714D01*
X30372857Y-78132857D01*
X30515715Y-77990000D01*
X30730000Y-77918571D01*
X30872857Y-77918571D01*
X31087143Y-77990000D01*
X31158572Y-78061429D01*
X31444286Y-79561429D02*
X32587143Y-79561429D01*
X33587143Y-78418571D02*
X33587143Y-79418571D01*
X33230000Y-77847143D02*
X32872857Y-78918571D01*
X33801429Y-78918571D01*
X27587143Y-72838571D02*
X27872857Y-72838571D01*
X28015715Y-72910000D01*
X28158572Y-73052857D01*
X28230000Y-73338571D01*
X28230000Y-73838571D01*
X28158572Y-74124286D01*
X28015715Y-74267143D01*
X27872857Y-74338571D01*
X27587143Y-74338571D01*
X27444286Y-74267143D01*
X27301429Y-74124286D01*
X27230000Y-73838571D01*
X27230000Y-73338571D01*
X27301429Y-73052857D01*
X27444286Y-72910000D01*
X27587143Y-72838571D01*
X28801429Y-74267143D02*
X29015715Y-74338571D01*
X29372858Y-74338571D01*
X29515715Y-74267143D01*
X29587144Y-74195714D01*
X29658572Y-74052857D01*
X29658572Y-73910000D01*
X29587144Y-73767143D01*
X29515715Y-73695714D01*
X29372858Y-73624286D01*
X29087144Y-73552857D01*
X28944286Y-73481429D01*
X28872858Y-73410000D01*
X28801429Y-73267143D01*
X28801429Y-73124286D01*
X28872858Y-72981429D01*
X28944286Y-72910000D01*
X29087144Y-72838571D01*
X29444286Y-72838571D01*
X29658572Y-72910000D01*
X31158572Y-74195714D02*
X31087143Y-74267143D01*
X30872857Y-74338571D01*
X30730000Y-74338571D01*
X30515715Y-74267143D01*
X30372857Y-74124286D01*
X30301429Y-73981429D01*
X30230000Y-73695714D01*
X30230000Y-73481429D01*
X30301429Y-73195714D01*
X30372857Y-73052857D01*
X30515715Y-72910000D01*
X30730000Y-72838571D01*
X30872857Y-72838571D01*
X31087143Y-72910000D01*
X31158572Y-72981429D01*
X31444286Y-74481429D02*
X32587143Y-74481429D01*
X32801429Y-72838571D02*
X33730000Y-72838571D01*
X33230000Y-73410000D01*
X33444286Y-73410000D01*
X33587143Y-73481429D01*
X33658572Y-73552857D01*
X33730000Y-73695714D01*
X33730000Y-74052857D01*
X33658572Y-74195714D01*
X33587143Y-74267143D01*
X33444286Y-74338571D01*
X33015714Y-74338571D01*
X32872857Y-74267143D01*
X32801429Y-74195714D01*
D11*
X26670000Y-60960000D02*
X26670000Y-62230000D01*
X107950000Y-60960000D02*
X26670000Y-60960000D01*
X26670000Y-66040000D02*
X107950000Y-66040000D01*
X26670000Y-62230000D02*
X26670000Y-66040000D01*
D12*
X27587143Y-67758571D02*
X27872857Y-67758571D01*
X28015715Y-67830000D01*
X28158572Y-67972857D01*
X28230000Y-68258571D01*
X28230000Y-68758571D01*
X28158572Y-69044286D01*
X28015715Y-69187143D01*
X27872857Y-69258571D01*
X27587143Y-69258571D01*
X27444286Y-69187143D01*
X27301429Y-69044286D01*
X27230000Y-68758571D01*
X27230000Y-68258571D01*
X27301429Y-67972857D01*
X27444286Y-67830000D01*
X27587143Y-67758571D01*
X28801429Y-69187143D02*
X29015715Y-69258571D01*
X29372858Y-69258571D01*
X29515715Y-69187143D01*
X29587144Y-69115714D01*
X29658572Y-68972857D01*
X29658572Y-68830000D01*
X29587144Y-68687143D01*
X29515715Y-68615714D01*
X29372858Y-68544286D01*
X29087144Y-68472857D01*
X28944286Y-68401429D01*
X28872858Y-68330000D01*
X28801429Y-68187143D01*
X28801429Y-68044286D01*
X28872858Y-67901429D01*
X28944286Y-67830000D01*
X29087144Y-67758571D01*
X29444286Y-67758571D01*
X29658572Y-67830000D01*
X31158572Y-69115714D02*
X31087143Y-69187143D01*
X30872857Y-69258571D01*
X30730000Y-69258571D01*
X30515715Y-69187143D01*
X30372857Y-69044286D01*
X30301429Y-68901429D01*
X30230000Y-68615714D01*
X30230000Y-68401429D01*
X30301429Y-68115714D01*
X30372857Y-67972857D01*
X30515715Y-67830000D01*
X30730000Y-67758571D01*
X30872857Y-67758571D01*
X31087143Y-67830000D01*
X31158572Y-67901429D01*
X31444286Y-69401429D02*
X32587143Y-69401429D01*
X32872857Y-67901429D02*
X32944286Y-67830000D01*
X33087143Y-67758571D01*
X33444286Y-67758571D01*
X33587143Y-67830000D01*
X33658572Y-67901429D01*
X33730000Y-68044286D01*
X33730000Y-68187143D01*
X33658572Y-68401429D01*
X32801429Y-69258571D01*
X33730000Y-69258571D01*
X27587143Y-62678571D02*
X27872857Y-62678571D01*
X28015715Y-62750000D01*
X28158572Y-62892857D01*
X28230000Y-63178571D01*
X28230000Y-63678571D01*
X28158572Y-63964286D01*
X28015715Y-64107143D01*
X27872857Y-64178571D01*
X27587143Y-64178571D01*
X27444286Y-64107143D01*
X27301429Y-63964286D01*
X27230000Y-63678571D01*
X27230000Y-63178571D01*
X27301429Y-62892857D01*
X27444286Y-62750000D01*
X27587143Y-62678571D01*
X28801429Y-64107143D02*
X29015715Y-64178571D01*
X29372858Y-64178571D01*
X29515715Y-64107143D01*
X29587144Y-64035714D01*
X29658572Y-63892857D01*
X29658572Y-63750000D01*
X29587144Y-63607143D01*
X29515715Y-63535714D01*
X29372858Y-63464286D01*
X29087144Y-63392857D01*
X28944286Y-63321429D01*
X28872858Y-63250000D01*
X28801429Y-63107143D01*
X28801429Y-62964286D01*
X28872858Y-62821429D01*
X28944286Y-62750000D01*
X29087144Y-62678571D01*
X29444286Y-62678571D01*
X29658572Y-62750000D01*
X31158572Y-64035714D02*
X31087143Y-64107143D01*
X30872857Y-64178571D01*
X30730000Y-64178571D01*
X30515715Y-64107143D01*
X30372857Y-63964286D01*
X30301429Y-63821429D01*
X30230000Y-63535714D01*
X30230000Y-63321429D01*
X30301429Y-63035714D01*
X30372857Y-62892857D01*
X30515715Y-62750000D01*
X30730000Y-62678571D01*
X30872857Y-62678571D01*
X31087143Y-62750000D01*
X31158572Y-62821429D01*
X31444286Y-64321429D02*
X32587143Y-64321429D01*
X33730000Y-64178571D02*
X32872857Y-64178571D01*
X33301429Y-64178571D02*
X33301429Y-62678571D01*
X33158572Y-62892857D01*
X33015714Y-63035714D01*
X32872857Y-63107143D01*
D15*
X99568000Y-72390000D02*
X104648000Y-72390000D01*
X104648000Y-72390000D02*
X104648000Y-74930000D01*
X104648000Y-74930000D02*
X99568000Y-74930000D01*
X99568000Y-74930000D02*
X99568000Y-72390000D01*
X103505000Y-24765000D02*
X98425000Y-24765000D01*
X98425000Y-24765000D02*
X98425000Y-22225000D01*
X98425000Y-22225000D02*
X103505000Y-22225000D01*
X103505000Y-22225000D02*
X103505000Y-24765000D01*
X43470000Y-62200000D02*
X38370000Y-62200000D01*
X38370000Y-64800000D02*
X43470000Y-64800000D01*
X43470000Y-62300000D02*
X43470000Y-64700000D01*
X38370000Y-64750000D02*
X38370000Y-62250000D01*
X67915000Y-23205000D02*
X67915000Y-28305000D01*
X70515000Y-28305000D02*
X70515000Y-23205000D01*
X68015000Y-23205000D02*
X70415000Y-23205000D01*
X70465000Y-28305000D02*
X67965000Y-28305000D01*
X90551520Y-63497460D02*
X91948520Y-63497460D01*
X86106520Y-63497460D02*
X84582520Y-63497460D01*
X86487520Y-62735460D02*
X86487520Y-64259460D01*
X86233520Y-62735460D02*
X86233520Y-64259460D01*
X85979520Y-63497460D02*
X85979520Y-64259460D01*
X85979520Y-64259460D02*
X90551520Y-64259460D01*
X90551520Y-64259460D02*
X90551520Y-62735460D01*
X90551520Y-62735460D02*
X85979520Y-62735460D01*
X85979520Y-62735460D02*
X85979520Y-63497460D01*
X73027540Y-38100000D02*
X73027540Y-39116000D01*
X73027540Y-33274000D02*
X73027540Y-32004000D01*
X74297540Y-33528000D02*
X71757540Y-33528000D01*
X74297540Y-33782000D02*
X71757540Y-33782000D01*
X74297540Y-34036000D02*
X71757540Y-34036000D01*
X74297540Y-33274000D02*
X71757540Y-33274000D01*
X74297540Y-34290000D02*
X71757540Y-33020000D01*
X74297540Y-33020000D02*
X71757540Y-34290000D01*
X74297540Y-34290000D02*
X71757540Y-34290000D01*
X74297540Y-33655000D02*
X71757540Y-33655000D01*
X71757540Y-33020000D02*
X74297540Y-33020000D01*
X74297540Y-33020000D02*
X74297540Y-38100000D01*
X74297540Y-38100000D02*
X71757540Y-38100000D01*
X71757540Y-38100000D02*
X71757540Y-33020000D01*
X69217540Y-38100000D02*
X69217540Y-39116000D01*
X69217540Y-33274000D02*
X69217540Y-32004000D01*
X70487540Y-33528000D02*
X67947540Y-33528000D01*
X70487540Y-33782000D02*
X67947540Y-33782000D01*
X70487540Y-34036000D02*
X67947540Y-34036000D01*
X70487540Y-33274000D02*
X67947540Y-33274000D01*
X70487540Y-34290000D02*
X67947540Y-33020000D01*
X70487540Y-33020000D02*
X67947540Y-34290000D01*
X70487540Y-34290000D02*
X67947540Y-34290000D01*
X70487540Y-33655000D02*
X67947540Y-33655000D01*
X67947540Y-33020000D02*
X70487540Y-33020000D01*
X70487540Y-33020000D02*
X70487540Y-38100000D01*
X70487540Y-38100000D02*
X67947540Y-38100000D01*
X67947540Y-38100000D02*
X67947540Y-33020000D01*
X57031000Y-21835000D02*
X57031000Y-23105000D01*
X64381000Y-21835000D02*
X64381000Y-23105000D01*
X64381000Y-41665000D02*
X64381000Y-40395000D01*
X57031000Y-41665000D02*
X57031000Y-40395000D01*
X57031000Y-21835000D02*
X64381000Y-21835000D01*
X57031000Y-41665000D02*
X64381000Y-41665000D01*
X57031000Y-23105000D02*
X55746000Y-23105000D01*
X60325000Y-62230000D02*
X65405000Y-62230000D01*
X65405000Y-62230000D02*
X65405000Y-64770000D01*
X65405000Y-64770000D02*
X60325000Y-64770000D01*
X60325000Y-64770000D02*
X60325000Y-62230000D01*
X72390000Y-62230000D02*
X77470000Y-62230000D01*
X77470000Y-62230000D02*
X77470000Y-64770000D01*
X77470000Y-64770000D02*
X72390000Y-64770000D01*
X72390000Y-64770000D02*
X72390000Y-62230000D01*
X43470000Y-67280000D02*
X38370000Y-67280000D01*
X38370000Y-69880000D02*
X43470000Y-69880000D01*
X43470000Y-67380000D02*
X43470000Y-69780000D01*
X38370000Y-69830000D02*
X38370000Y-67330000D01*
X43470000Y-72360000D02*
X38370000Y-72360000D01*
X38370000Y-74960000D02*
X43470000Y-74960000D01*
X43470000Y-72460000D02*
X43470000Y-74860000D01*
X38370000Y-74910000D02*
X38370000Y-72410000D01*
X43470000Y-77440000D02*
X38370000Y-77440000D01*
X38370000Y-80040000D02*
X43470000Y-80040000D01*
X43470000Y-77540000D02*
X43470000Y-79940000D01*
X38370000Y-79990000D02*
X38370000Y-77490000D01*
X43470000Y-82520000D02*
X38370000Y-82520000D01*
X38370000Y-85120000D02*
X43470000Y-85120000D01*
X43470000Y-82620000D02*
X43470000Y-85020000D01*
X38370000Y-85070000D02*
X38370000Y-82570000D01*
X43470000Y-87600000D02*
X38370000Y-87600000D01*
X38370000Y-90200000D02*
X43470000Y-90200000D01*
X43470000Y-87700000D02*
X43470000Y-90100000D01*
X38370000Y-90150000D02*
X38370000Y-87650000D01*
X90551520Y-68577460D02*
X91948520Y-68577460D01*
X86106520Y-68577460D02*
X84582520Y-68577460D01*
X86487520Y-67815460D02*
X86487520Y-69339460D01*
X86233520Y-67815460D02*
X86233520Y-69339460D01*
X85979520Y-68577460D02*
X85979520Y-69339460D01*
X85979520Y-69339460D02*
X90551520Y-69339460D01*
X90551520Y-69339460D02*
X90551520Y-67815460D01*
X90551520Y-67815460D02*
X85979520Y-67815460D01*
X85979520Y-67815460D02*
X85979520Y-68577460D01*
X90551520Y-73657460D02*
X91948520Y-73657460D01*
X86106520Y-73657460D02*
X84582520Y-73657460D01*
X86487520Y-72895460D02*
X86487520Y-74419460D01*
X86233520Y-72895460D02*
X86233520Y-74419460D01*
X85979520Y-73657460D02*
X85979520Y-74419460D01*
X85979520Y-74419460D02*
X90551520Y-74419460D01*
X90551520Y-74419460D02*
X90551520Y-72895460D01*
X90551520Y-72895460D02*
X85979520Y-72895460D01*
X85979520Y-72895460D02*
X85979520Y-73657460D01*
X90551520Y-78737460D02*
X91948520Y-78737460D01*
X86106520Y-78737460D02*
X84582520Y-78737460D01*
X86487520Y-77975460D02*
X86487520Y-79499460D01*
X86233520Y-77975460D02*
X86233520Y-79499460D01*
X85979520Y-78737460D02*
X85979520Y-79499460D01*
X85979520Y-79499460D02*
X90551520Y-79499460D01*
X90551520Y-79499460D02*
X90551520Y-77975460D01*
X90551520Y-77975460D02*
X85979520Y-77975460D01*
X85979520Y-77975460D02*
X85979520Y-78737460D01*
X90551520Y-83817460D02*
X91948520Y-83817460D01*
X86106520Y-83817460D02*
X84582520Y-83817460D01*
X86487520Y-83055460D02*
X86487520Y-84579460D01*
X86233520Y-83055460D02*
X86233520Y-84579460D01*
X85979520Y-83817460D02*
X85979520Y-84579460D01*
X85979520Y-84579460D02*
X90551520Y-84579460D01*
X90551520Y-84579460D02*
X90551520Y-83055460D01*
X90551520Y-83055460D02*
X85979520Y-83055460D01*
X85979520Y-83055460D02*
X85979520Y-83817460D01*
X90551520Y-88897460D02*
X91948520Y-88897460D01*
X86106520Y-88897460D02*
X84582520Y-88897460D01*
X86487520Y-88135460D02*
X86487520Y-89659460D01*
X86233520Y-88135460D02*
X86233520Y-89659460D01*
X85979520Y-88897460D02*
X85979520Y-89659460D01*
X85979520Y-89659460D02*
X90551520Y-89659460D01*
X90551520Y-89659460D02*
X90551520Y-88135460D01*
X90551520Y-88135460D02*
X85979520Y-88135460D01*
X85979520Y-88135460D02*
X85979520Y-88897460D01*
X29210000Y-46355000D02*
X46990000Y-46355000D01*
X46990000Y-46355000D02*
X46990000Y-48895000D01*
X46990000Y-48895000D02*
X29210000Y-48895000D01*
X26390000Y-46075000D02*
X27940000Y-46075000D01*
X29210000Y-46355000D02*
X29210000Y-48895000D01*
X27940000Y-49175000D02*
X26390000Y-49175000D01*
X26390000Y-49175000D02*
X26390000Y-46075000D01*
X59690000Y-46355000D02*
X77470000Y-46355000D01*
X77470000Y-46355000D02*
X77470000Y-48895000D01*
X77470000Y-48895000D02*
X59690000Y-48895000D01*
X56870000Y-46075000D02*
X58420000Y-46075000D01*
X59690000Y-46355000D02*
X59690000Y-48895000D01*
X58420000Y-49175000D02*
X56870000Y-49175000D01*
X56870000Y-49175000D02*
X56870000Y-46075000D01*
X90170000Y-46355000D02*
X107950000Y-46355000D01*
X107950000Y-46355000D02*
X107950000Y-48895000D01*
X107950000Y-48895000D02*
X90170000Y-48895000D01*
X87350000Y-46075000D02*
X88900000Y-46075000D01*
X90170000Y-46355000D02*
X90170000Y-48895000D01*
X88900000Y-49175000D02*
X87350000Y-49175000D01*
X87350000Y-49175000D02*
X87350000Y-46075000D01*
X29210000Y-96520000D02*
X46990000Y-96520000D01*
X46990000Y-96520000D02*
X46990000Y-99060000D01*
X46990000Y-99060000D02*
X29210000Y-99060000D01*
X26390000Y-96240000D02*
X27940000Y-96240000D01*
X29210000Y-96520000D02*
X29210000Y-99060000D01*
X27940000Y-99340000D02*
X26390000Y-99340000D01*
X26390000Y-99340000D02*
X26390000Y-96240000D01*
X59690000Y-96520000D02*
X77470000Y-96520000D01*
X77470000Y-96520000D02*
X77470000Y-99060000D01*
X77470000Y-99060000D02*
X59690000Y-99060000D01*
X56870000Y-96240000D02*
X58420000Y-96240000D01*
X59690000Y-96520000D02*
X59690000Y-99060000D01*
X58420000Y-99340000D02*
X56870000Y-99340000D01*
X56870000Y-99340000D02*
X56870000Y-96240000D01*
X90170000Y-96520000D02*
X107950000Y-96520000D01*
X107950000Y-96520000D02*
X107950000Y-99060000D01*
X107950000Y-99060000D02*
X90170000Y-99060000D01*
X87350000Y-96240000D02*
X88900000Y-96240000D01*
X90170000Y-96520000D02*
X90170000Y-99060000D01*
X88900000Y-99340000D02*
X87350000Y-99340000D01*
X87350000Y-99340000D02*
X87350000Y-96240000D01*
X43180000Y-35560000D02*
X43180000Y-40640000D01*
X43180000Y-40640000D02*
X45720000Y-40640000D01*
X45720000Y-40640000D02*
X45720000Y-35560000D01*
X46000000Y-32740000D02*
X46000000Y-34290000D01*
X45720000Y-35560000D02*
X43180000Y-35560000D01*
X42900000Y-34290000D02*
X42900000Y-32740000D01*
X42900000Y-32740000D02*
X46000000Y-32740000D01*
X31115000Y-35560000D02*
X31115000Y-40640000D01*
X31115000Y-40640000D02*
X33655000Y-40640000D01*
X33655000Y-40640000D02*
X33655000Y-35560000D01*
X33935000Y-32740000D02*
X33935000Y-34290000D01*
X33655000Y-35560000D02*
X31115000Y-35560000D01*
X30835000Y-34290000D02*
X30835000Y-32740000D01*
X30835000Y-32740000D02*
X33935000Y-32740000D01*
X48260000Y-62230000D02*
X53340000Y-62230000D01*
X53340000Y-62230000D02*
X53340000Y-64770000D01*
X53340000Y-64770000D02*
X48260000Y-64770000D01*
X48260000Y-64770000D02*
X48260000Y-62230000D01*
X48260000Y-67310000D02*
X53340000Y-67310000D01*
X53340000Y-67310000D02*
X53340000Y-69850000D01*
X53340000Y-69850000D02*
X48260000Y-69850000D01*
X48260000Y-69850000D02*
X48260000Y-67310000D01*
X60325000Y-67310000D02*
X65405000Y-67310000D01*
X65405000Y-67310000D02*
X65405000Y-69850000D01*
X65405000Y-69850000D02*
X60325000Y-69850000D01*
X60325000Y-69850000D02*
X60325000Y-67310000D01*
X48260000Y-72390000D02*
X53340000Y-72390000D01*
X53340000Y-72390000D02*
X53340000Y-74930000D01*
X53340000Y-74930000D02*
X48260000Y-74930000D01*
X48260000Y-74930000D02*
X48260000Y-72390000D01*
X60325000Y-72390000D02*
X65405000Y-72390000D01*
X65405000Y-72390000D02*
X65405000Y-74930000D01*
X65405000Y-74930000D02*
X60325000Y-74930000D01*
X60325000Y-74930000D02*
X60325000Y-72390000D01*
X48260000Y-77470000D02*
X53340000Y-77470000D01*
X53340000Y-77470000D02*
X53340000Y-80010000D01*
X53340000Y-80010000D02*
X48260000Y-80010000D01*
X48260000Y-80010000D02*
X48260000Y-77470000D01*
X60325000Y-77470000D02*
X65405000Y-77470000D01*
X65405000Y-77470000D02*
X65405000Y-80010000D01*
X65405000Y-80010000D02*
X60325000Y-80010000D01*
X60325000Y-80010000D02*
X60325000Y-77470000D01*
X48260000Y-82550000D02*
X53340000Y-82550000D01*
X53340000Y-82550000D02*
X53340000Y-85090000D01*
X53340000Y-85090000D02*
X48260000Y-85090000D01*
X48260000Y-85090000D02*
X48260000Y-82550000D01*
X60325000Y-82550000D02*
X65405000Y-82550000D01*
X65405000Y-82550000D02*
X65405000Y-85090000D01*
X65405000Y-85090000D02*
X60325000Y-85090000D01*
X60325000Y-85090000D02*
X60325000Y-82550000D01*
X48260000Y-87630000D02*
X53340000Y-87630000D01*
X53340000Y-87630000D02*
X53340000Y-90170000D01*
X53340000Y-90170000D02*
X48260000Y-90170000D01*
X48260000Y-90170000D02*
X48260000Y-87630000D01*
X60325000Y-87630000D02*
X65405000Y-87630000D01*
X65405000Y-87630000D02*
X65405000Y-90170000D01*
X65405000Y-90170000D02*
X60325000Y-90170000D01*
X60325000Y-90170000D02*
X60325000Y-87630000D01*
X72390000Y-67310000D02*
X77470000Y-67310000D01*
X77470000Y-67310000D02*
X77470000Y-69850000D01*
X77470000Y-69850000D02*
X72390000Y-69850000D01*
X72390000Y-69850000D02*
X72390000Y-67310000D01*
X72390000Y-72390000D02*
X77470000Y-72390000D01*
X77470000Y-72390000D02*
X77470000Y-74930000D01*
X77470000Y-74930000D02*
X72390000Y-74930000D01*
X72390000Y-74930000D02*
X72390000Y-72390000D01*
X72390000Y-77470000D02*
X77470000Y-77470000D01*
X77470000Y-77470000D02*
X77470000Y-80010000D01*
X77470000Y-80010000D02*
X72390000Y-80010000D01*
X72390000Y-80010000D02*
X72390000Y-77470000D01*
X72390000Y-82550000D02*
X77470000Y-82550000D01*
X77470000Y-82550000D02*
X77470000Y-85090000D01*
X77470000Y-85090000D02*
X72390000Y-85090000D01*
X72390000Y-85090000D02*
X72390000Y-82550000D01*
X72390000Y-87630000D02*
X77470000Y-87630000D01*
X77470000Y-87630000D02*
X77470000Y-90170000D01*
X77470000Y-90170000D02*
X72390000Y-90170000D01*
X72390000Y-90170000D02*
X72390000Y-87630000D01*
X99568000Y-62230000D02*
X104648000Y-62230000D01*
X104648000Y-62230000D02*
X104648000Y-64770000D01*
X104648000Y-64770000D02*
X99568000Y-64770000D01*
X99568000Y-64770000D02*
X99568000Y-62230000D01*
X99568000Y-67310000D02*
X104648000Y-67310000D01*
X104648000Y-67310000D02*
X104648000Y-69850000D01*
X104648000Y-69850000D02*
X99568000Y-69850000D01*
X99568000Y-69850000D02*
X99568000Y-67310000D01*
X99568000Y-77470000D02*
X104648000Y-77470000D01*
X104648000Y-77470000D02*
X104648000Y-80010000D01*
X104648000Y-80010000D02*
X99568000Y-80010000D01*
X99568000Y-80010000D02*
X99568000Y-77470000D01*
X99568000Y-82550000D02*
X104648000Y-82550000D01*
X104648000Y-82550000D02*
X104648000Y-85090000D01*
X104648000Y-85090000D02*
X99568000Y-85090000D01*
X99568000Y-85090000D02*
X99568000Y-82550000D01*
X99568000Y-87630000D02*
X104648000Y-87630000D01*
X104648000Y-87630000D02*
X104648000Y-90170000D01*
X104648000Y-90170000D02*
X99568000Y-90170000D01*
X99568000Y-90170000D02*
X99568000Y-87630000D01*
X106045000Y-29210000D02*
X106045000Y-41910000D01*
X106045000Y-41910000D02*
X103505000Y-41910000D01*
X103505000Y-41910000D02*
X103505000Y-29210000D01*
X106325000Y-26390000D02*
X106325000Y-27940000D01*
X106045000Y-29210000D02*
X103505000Y-29210000D01*
X103225000Y-27940000D02*
X103225000Y-26390000D01*
X103225000Y-26390000D02*
X106325000Y-26390000D01*
X76561990Y-26952695D02*
G75*
G03X77265000Y-26465000I-996990J2187695D01*
G01*
X76561990Y-22577305D02*
G75*
G02X77265000Y-23065000I-996990J-2187695D01*
G01*
X77265000Y-26465000D02*
X77265000Y-23065000D01*
X74571873Y-26949879D02*
G75*
G02X73165000Y-24765000I993127J2184879D01*
G01*
X74571873Y-22580121D02*
G75*
G03X73165000Y-24765000I993127J-2184879D01*
G01*
X90225000Y-22286000D02*
X90225000Y-29784000D01*
X90365000Y-22291000D02*
X90365000Y-29779000D01*
X90505000Y-22302000D02*
X90505000Y-25589000D01*
X90505000Y-26481000D02*
X90505000Y-29768000D01*
X90645000Y-22318000D02*
X90645000Y-25379000D01*
X90645000Y-26691000D02*
X90645000Y-29752000D01*
X90785000Y-22339000D02*
X90785000Y-25246000D01*
X90785000Y-26824000D02*
X90785000Y-29731000D01*
X90925000Y-22366000D02*
X90925000Y-25155000D01*
X90925000Y-26915000D02*
X90925000Y-29704000D01*
X91065000Y-22398000D02*
X91065000Y-25093000D01*
X91065000Y-26977000D02*
X91065000Y-29672000D01*
X91205000Y-22436000D02*
X91205000Y-25054000D01*
X91205000Y-27016000D02*
X91205000Y-29634000D01*
X91345000Y-22480000D02*
X91345000Y-25037000D01*
X91345000Y-27033000D02*
X91345000Y-29590000D01*
X91485000Y-22531000D02*
X91485000Y-25039000D01*
X91485000Y-27031000D02*
X91485000Y-29539000D01*
X91625000Y-22587000D02*
X91625000Y-25061000D01*
X91625000Y-27009000D02*
X91625000Y-29483000D01*
X91765000Y-22651000D02*
X91765000Y-25104000D01*
X91765000Y-26966000D02*
X91765000Y-29419000D01*
X91905000Y-22721000D02*
X91905000Y-25172000D01*
X91905000Y-26898000D02*
X91905000Y-29349000D01*
X92045000Y-22799000D02*
X92045000Y-25271000D01*
X92045000Y-26799000D02*
X92045000Y-29271000D01*
X92185000Y-22885000D02*
X92185000Y-25416000D01*
X92185000Y-26654000D02*
X92185000Y-29185000D01*
X92325000Y-22980000D02*
X92325000Y-25655000D01*
X92325000Y-26415000D02*
X92325000Y-29090000D01*
X92465000Y-23085000D02*
X92465000Y-28985000D01*
X92605000Y-23200000D02*
X92605000Y-28870000D01*
X92745000Y-23328000D02*
X92745000Y-28742000D01*
X92885000Y-23469000D02*
X92885000Y-28601000D01*
X93025000Y-23627000D02*
X93025000Y-28443000D01*
X93165000Y-23805000D02*
X93165000Y-28265000D01*
X93305000Y-24008000D02*
X93305000Y-28062000D01*
X93445000Y-24245000D02*
X93445000Y-27825000D01*
X93585000Y-24531000D02*
X93585000Y-27539000D01*
X93725000Y-24903000D02*
X93725000Y-27167000D01*
X93865000Y-25524000D02*
X93865000Y-26546000D01*
X92400000Y-26035000D02*
G75*
G03X92400000Y-26035000I-1000000J0D01*
G01*
X93937500Y-26035000D02*
G75*
G03X93937500Y-26035000I-3787500J0D01*
G01*
X81970000Y-23536000D02*
X81970000Y-28534000D01*
X82110000Y-23544000D02*
X82110000Y-28526000D01*
X82250000Y-23560000D02*
X82250000Y-25940000D01*
X82250000Y-26130000D02*
X82250000Y-28510000D01*
X82390000Y-23584000D02*
X82390000Y-25545000D01*
X82390000Y-26525000D02*
X82390000Y-28486000D01*
X82530000Y-23617000D02*
X82530000Y-25378000D01*
X82530000Y-26692000D02*
X82530000Y-28453000D01*
X82670000Y-23658000D02*
X82670000Y-25271000D01*
X82670000Y-26799000D02*
X82670000Y-28412000D01*
X82810000Y-23708000D02*
X82810000Y-25200000D01*
X82810000Y-26870000D02*
X82810000Y-28362000D01*
X82950000Y-23769000D02*
X82950000Y-25156000D01*
X82950000Y-26914000D02*
X82950000Y-28301000D01*
X83090000Y-23839000D02*
X83090000Y-25137000D01*
X83090000Y-26933000D02*
X83090000Y-28231000D01*
X83230000Y-23921000D02*
X83230000Y-25139000D01*
X83230000Y-26931000D02*
X83230000Y-28149000D01*
X83370000Y-24016000D02*
X83370000Y-25164000D01*
X83370000Y-26906000D02*
X83370000Y-28054000D01*
X83510000Y-24127000D02*
X83510000Y-25212000D01*
X83510000Y-26858000D02*
X83510000Y-27943000D01*
X83650000Y-24255000D02*
X83650000Y-25290000D01*
X83650000Y-26780000D02*
X83650000Y-27815000D01*
X83790000Y-24404000D02*
X83790000Y-25407000D01*
X83790000Y-26663000D02*
X83790000Y-27666000D01*
X83930000Y-24583000D02*
X83930000Y-25595000D01*
X83930000Y-26475000D02*
X83930000Y-27487000D01*
X84070000Y-24802000D02*
X84070000Y-27268000D01*
X84210000Y-25091000D02*
X84210000Y-26979000D01*
X84350000Y-25563000D02*
X84350000Y-26507000D01*
X84045000Y-26035000D02*
G75*
G03X84045000Y-26035000I-900000J0D01*
G01*
X84432500Y-26035000D02*
G75*
G03X84432500Y-26035000I-2537500J0D01*
G01*
X85090000Y-102616000D02*
G75*
G03X85090000Y-102616000I-2286000J0D01*
G01*
X54356000Y-102616000D02*
G75*
G03X54356000Y-102616000I-2286000J0D01*
G01*
X90424000Y-36322000D02*
G75*
G03X90424000Y-36322000I-2286000J0D01*
G01*
X30734000Y-58166000D02*
G75*
G03X30734000Y-58166000I-2286000J0D01*
G01*
X100655143Y-74112381D02*
X100321809Y-73636190D01*
X100083714Y-74112381D02*
X100083714Y-73112381D01*
X100464667Y-73112381D01*
X100559905Y-73160000D01*
X100607524Y-73207619D01*
X100655143Y-73302857D01*
X100655143Y-73445714D01*
X100607524Y-73540952D01*
X100559905Y-73588571D01*
X100464667Y-73636190D01*
X100083714Y-73636190D01*
X101036095Y-73207619D02*
X101083714Y-73160000D01*
X101178952Y-73112381D01*
X101417048Y-73112381D01*
X101512286Y-73160000D01*
X101559905Y-73207619D01*
X101607524Y-73302857D01*
X101607524Y-73398095D01*
X101559905Y-73540952D01*
X100988476Y-74112381D01*
X101607524Y-74112381D01*
X102559905Y-74112381D02*
X101988476Y-74112381D01*
X102274190Y-74112381D02*
X102274190Y-73112381D01*
X102178952Y-73255238D01*
X102083714Y-73350476D01*
X101988476Y-73398095D01*
X100322143Y-23947381D02*
X99988809Y-23471190D01*
X99750714Y-23947381D02*
X99750714Y-22947381D01*
X100131667Y-22947381D01*
X100226905Y-22995000D01*
X100274524Y-23042619D01*
X100322143Y-23137857D01*
X100322143Y-23280714D01*
X100274524Y-23375952D01*
X100226905Y-23423571D01*
X100131667Y-23471190D01*
X99750714Y-23471190D01*
X100703095Y-23042619D02*
X100750714Y-22995000D01*
X100845952Y-22947381D01*
X101084048Y-22947381D01*
X101179286Y-22995000D01*
X101226905Y-23042619D01*
X101274524Y-23137857D01*
X101274524Y-23233095D01*
X101226905Y-23375952D01*
X100655476Y-23947381D01*
X101274524Y-23947381D01*
X102179286Y-22947381D02*
X101703095Y-22947381D01*
X101655476Y-23423571D01*
X101703095Y-23375952D01*
X101798333Y-23328333D01*
X102036429Y-23328333D01*
X102131667Y-23375952D01*
X102179286Y-23423571D01*
X102226905Y-23518810D01*
X102226905Y-23756905D01*
X102179286Y-23852143D01*
X102131667Y-23899762D01*
X102036429Y-23947381D01*
X101798333Y-23947381D01*
X101703095Y-23899762D01*
X101655476Y-23852143D01*
X36663334Y-63857143D02*
X36615715Y-63904762D01*
X36472858Y-63952381D01*
X36377620Y-63952381D01*
X36234762Y-63904762D01*
X36139524Y-63809524D01*
X36091905Y-63714286D01*
X36044286Y-63523810D01*
X36044286Y-63380952D01*
X36091905Y-63190476D01*
X36139524Y-63095238D01*
X36234762Y-63000000D01*
X36377620Y-62952381D01*
X36472858Y-62952381D01*
X36615715Y-63000000D01*
X36663334Y-63047619D01*
X37615715Y-63952381D02*
X37044286Y-63952381D01*
X37330000Y-63952381D02*
X37330000Y-62952381D01*
X37234762Y-63095238D01*
X37139524Y-63190476D01*
X37044286Y-63238095D01*
X69048334Y-22582143D02*
X69000715Y-22629762D01*
X68857858Y-22677381D01*
X68762620Y-22677381D01*
X68619762Y-22629762D01*
X68524524Y-22534524D01*
X68476905Y-22439286D01*
X68429286Y-22248810D01*
X68429286Y-22105952D01*
X68476905Y-21915476D01*
X68524524Y-21820238D01*
X68619762Y-21725000D01*
X68762620Y-21677381D01*
X68857858Y-21677381D01*
X69000715Y-21725000D01*
X69048334Y-21772619D01*
X69619762Y-22105952D02*
X69524524Y-22058333D01*
X69476905Y-22010714D01*
X69429286Y-21915476D01*
X69429286Y-21867857D01*
X69476905Y-21772619D01*
X69524524Y-21725000D01*
X69619762Y-21677381D01*
X69810239Y-21677381D01*
X69905477Y-21725000D01*
X69953096Y-21772619D01*
X70000715Y-21867857D01*
X70000715Y-21915476D01*
X69953096Y-22010714D01*
X69905477Y-22058333D01*
X69810239Y-22105952D01*
X69619762Y-22105952D01*
X69524524Y-22153571D01*
X69476905Y-22201190D01*
X69429286Y-22296429D01*
X69429286Y-22486905D01*
X69476905Y-22582143D01*
X69524524Y-22629762D01*
X69619762Y-22677381D01*
X69810239Y-22677381D01*
X69905477Y-22629762D01*
X69953096Y-22582143D01*
X70000715Y-22486905D01*
X70000715Y-22296429D01*
X69953096Y-22201190D01*
X69905477Y-22153571D01*
X69810239Y-22105952D01*
X87446905Y-63952381D02*
X87446905Y-62952381D01*
X87685000Y-62952381D01*
X87827858Y-63000000D01*
X87923096Y-63095238D01*
X87970715Y-63190476D01*
X88018334Y-63380952D01*
X88018334Y-63523810D01*
X87970715Y-63714286D01*
X87923096Y-63809524D01*
X87827858Y-63904762D01*
X87685000Y-63952381D01*
X87446905Y-63952381D01*
X88970715Y-63952381D02*
X88399286Y-63952381D01*
X88685000Y-63952381D02*
X88685000Y-62952381D01*
X88589762Y-63095238D01*
X88494524Y-63190476D01*
X88399286Y-63238095D01*
X73477381Y-36933095D02*
X72477381Y-36933095D01*
X72477381Y-36695000D01*
X72525000Y-36552142D01*
X72620238Y-36456904D01*
X72715476Y-36409285D01*
X72905952Y-36361666D01*
X73048810Y-36361666D01*
X73239286Y-36409285D01*
X73334524Y-36456904D01*
X73429762Y-36552142D01*
X73477381Y-36695000D01*
X73477381Y-36933095D01*
X72477381Y-36028333D02*
X72477381Y-35361666D01*
X73477381Y-35790238D01*
X69667381Y-36933095D02*
X68667381Y-36933095D01*
X68667381Y-36695000D01*
X68715000Y-36552142D01*
X68810238Y-36456904D01*
X68905476Y-36409285D01*
X69095952Y-36361666D01*
X69238810Y-36361666D01*
X69429286Y-36409285D01*
X69524524Y-36456904D01*
X69619762Y-36552142D01*
X69667381Y-36695000D01*
X69667381Y-36933095D01*
X69095952Y-35790238D02*
X69048333Y-35885476D01*
X69000714Y-35933095D01*
X68905476Y-35980714D01*
X68857857Y-35980714D01*
X68762619Y-35933095D01*
X68715000Y-35885476D01*
X68667381Y-35790238D01*
X68667381Y-35599761D01*
X68715000Y-35504523D01*
X68762619Y-35456904D01*
X68857857Y-35409285D01*
X68905476Y-35409285D01*
X69000714Y-35456904D01*
X69048333Y-35504523D01*
X69095952Y-35599761D01*
X69095952Y-35790238D01*
X69143571Y-35885476D01*
X69191190Y-35933095D01*
X69286429Y-35980714D01*
X69476905Y-35980714D01*
X69572143Y-35933095D01*
X69619762Y-35885476D01*
X69667381Y-35790238D01*
X69667381Y-35599761D01*
X69619762Y-35504523D01*
X69572143Y-35456904D01*
X69476905Y-35409285D01*
X69286429Y-35409285D01*
X69191190Y-35456904D01*
X69143571Y-35504523D01*
X69095952Y-35599761D01*
D12*
X60374571Y-34201427D02*
X61374571Y-34201427D01*
X59803143Y-34558570D02*
X60874571Y-34915713D01*
X60874571Y-33987141D01*
X59874571Y-33129999D02*
X59874571Y-32987142D01*
X59946000Y-32844285D01*
X60017429Y-32772856D01*
X60160286Y-32701427D01*
X60446000Y-32629999D01*
X60803143Y-32629999D01*
X61088857Y-32701427D01*
X61231714Y-32772856D01*
X61303143Y-32844285D01*
X61374571Y-32987142D01*
X61374571Y-33129999D01*
X61303143Y-33272856D01*
X61231714Y-33344285D01*
X61088857Y-33415713D01*
X60803143Y-33487142D01*
X60446000Y-33487142D01*
X60160286Y-33415713D01*
X60017429Y-33344285D01*
X59946000Y-33272856D01*
X59874571Y-33129999D01*
X61374571Y-31201428D02*
X61374571Y-32058571D01*
X61374571Y-31629999D02*
X59874571Y-31629999D01*
X60088857Y-31772856D01*
X60231714Y-31915714D01*
X60303143Y-32058571D01*
X59874571Y-30272857D02*
X59874571Y-30130000D01*
X59946000Y-29987143D01*
X60017429Y-29915714D01*
X60160286Y-29844285D01*
X60446000Y-29772857D01*
X60803143Y-29772857D01*
X61088857Y-29844285D01*
X61231714Y-29915714D01*
X61303143Y-29987143D01*
X61374571Y-30130000D01*
X61374571Y-30272857D01*
X61303143Y-30415714D01*
X61231714Y-30487143D01*
X61088857Y-30558571D01*
X60803143Y-30630000D01*
X60446000Y-30630000D01*
X60160286Y-30558571D01*
X60017429Y-30487143D01*
X59946000Y-30415714D01*
X59874571Y-30272857D01*
X59874571Y-28487143D02*
X59874571Y-28772857D01*
X59946000Y-28915714D01*
X60017429Y-28987143D01*
X60231714Y-29130000D01*
X60517429Y-29201429D01*
X61088857Y-29201429D01*
X61231714Y-29130000D01*
X61303143Y-29058572D01*
X61374571Y-28915714D01*
X61374571Y-28630000D01*
X61303143Y-28487143D01*
X61231714Y-28415714D01*
X61088857Y-28344286D01*
X60731714Y-28344286D01*
X60588857Y-28415714D01*
X60517429Y-28487143D01*
X60446000Y-28630000D01*
X60446000Y-28915714D01*
X60517429Y-29058572D01*
X60588857Y-29130000D01*
X60731714Y-29201429D01*
D15*
X61888334Y-63952381D02*
X61555000Y-63476190D01*
X61316905Y-63952381D02*
X61316905Y-62952381D01*
X61697858Y-62952381D01*
X61793096Y-63000000D01*
X61840715Y-63047619D01*
X61888334Y-63142857D01*
X61888334Y-63285714D01*
X61840715Y-63380952D01*
X61793096Y-63428571D01*
X61697858Y-63476190D01*
X61316905Y-63476190D01*
X62269286Y-63047619D02*
X62316905Y-63000000D01*
X62412143Y-62952381D01*
X62650239Y-62952381D01*
X62745477Y-63000000D01*
X62793096Y-63047619D01*
X62840715Y-63142857D01*
X62840715Y-63238095D01*
X62793096Y-63380952D01*
X62221667Y-63952381D01*
X62840715Y-63952381D01*
X73477143Y-63952381D02*
X73143809Y-63476190D01*
X72905714Y-63952381D02*
X72905714Y-62952381D01*
X73286667Y-62952381D01*
X73381905Y-63000000D01*
X73429524Y-63047619D01*
X73477143Y-63142857D01*
X73477143Y-63285714D01*
X73429524Y-63380952D01*
X73381905Y-63428571D01*
X73286667Y-63476190D01*
X72905714Y-63476190D01*
X74429524Y-63952381D02*
X73858095Y-63952381D01*
X74143809Y-63952381D02*
X74143809Y-62952381D01*
X74048571Y-63095238D01*
X73953333Y-63190476D01*
X73858095Y-63238095D01*
X74762857Y-62952381D02*
X75381905Y-62952381D01*
X75048571Y-63333333D01*
X75191429Y-63333333D01*
X75286667Y-63380952D01*
X75334286Y-63428571D01*
X75381905Y-63523810D01*
X75381905Y-63761905D01*
X75334286Y-63857143D01*
X75286667Y-63904762D01*
X75191429Y-63952381D01*
X74905714Y-63952381D01*
X74810476Y-63904762D01*
X74762857Y-63857143D01*
X36663334Y-68937143D02*
X36615715Y-68984762D01*
X36472858Y-69032381D01*
X36377620Y-69032381D01*
X36234762Y-68984762D01*
X36139524Y-68889524D01*
X36091905Y-68794286D01*
X36044286Y-68603810D01*
X36044286Y-68460952D01*
X36091905Y-68270476D01*
X36139524Y-68175238D01*
X36234762Y-68080000D01*
X36377620Y-68032381D01*
X36472858Y-68032381D01*
X36615715Y-68080000D01*
X36663334Y-68127619D01*
X37044286Y-68127619D02*
X37091905Y-68080000D01*
X37187143Y-68032381D01*
X37425239Y-68032381D01*
X37520477Y-68080000D01*
X37568096Y-68127619D01*
X37615715Y-68222857D01*
X37615715Y-68318095D01*
X37568096Y-68460952D01*
X36996667Y-69032381D01*
X37615715Y-69032381D01*
X36663334Y-74017143D02*
X36615715Y-74064762D01*
X36472858Y-74112381D01*
X36377620Y-74112381D01*
X36234762Y-74064762D01*
X36139524Y-73969524D01*
X36091905Y-73874286D01*
X36044286Y-73683810D01*
X36044286Y-73540952D01*
X36091905Y-73350476D01*
X36139524Y-73255238D01*
X36234762Y-73160000D01*
X36377620Y-73112381D01*
X36472858Y-73112381D01*
X36615715Y-73160000D01*
X36663334Y-73207619D01*
X36996667Y-73112381D02*
X37615715Y-73112381D01*
X37282381Y-73493333D01*
X37425239Y-73493333D01*
X37520477Y-73540952D01*
X37568096Y-73588571D01*
X37615715Y-73683810D01*
X37615715Y-73921905D01*
X37568096Y-74017143D01*
X37520477Y-74064762D01*
X37425239Y-74112381D01*
X37139524Y-74112381D01*
X37044286Y-74064762D01*
X36996667Y-74017143D01*
X36663334Y-79097143D02*
X36615715Y-79144762D01*
X36472858Y-79192381D01*
X36377620Y-79192381D01*
X36234762Y-79144762D01*
X36139524Y-79049524D01*
X36091905Y-78954286D01*
X36044286Y-78763810D01*
X36044286Y-78620952D01*
X36091905Y-78430476D01*
X36139524Y-78335238D01*
X36234762Y-78240000D01*
X36377620Y-78192381D01*
X36472858Y-78192381D01*
X36615715Y-78240000D01*
X36663334Y-78287619D01*
X37520477Y-78525714D02*
X37520477Y-79192381D01*
X37282381Y-78144762D02*
X37044286Y-78859048D01*
X37663334Y-78859048D01*
X36663334Y-84177143D02*
X36615715Y-84224762D01*
X36472858Y-84272381D01*
X36377620Y-84272381D01*
X36234762Y-84224762D01*
X36139524Y-84129524D01*
X36091905Y-84034286D01*
X36044286Y-83843810D01*
X36044286Y-83700952D01*
X36091905Y-83510476D01*
X36139524Y-83415238D01*
X36234762Y-83320000D01*
X36377620Y-83272381D01*
X36472858Y-83272381D01*
X36615715Y-83320000D01*
X36663334Y-83367619D01*
X37568096Y-83272381D02*
X37091905Y-83272381D01*
X37044286Y-83748571D01*
X37091905Y-83700952D01*
X37187143Y-83653333D01*
X37425239Y-83653333D01*
X37520477Y-83700952D01*
X37568096Y-83748571D01*
X37615715Y-83843810D01*
X37615715Y-84081905D01*
X37568096Y-84177143D01*
X37520477Y-84224762D01*
X37425239Y-84272381D01*
X37187143Y-84272381D01*
X37091905Y-84224762D01*
X37044286Y-84177143D01*
X36663334Y-89257143D02*
X36615715Y-89304762D01*
X36472858Y-89352381D01*
X36377620Y-89352381D01*
X36234762Y-89304762D01*
X36139524Y-89209524D01*
X36091905Y-89114286D01*
X36044286Y-88923810D01*
X36044286Y-88780952D01*
X36091905Y-88590476D01*
X36139524Y-88495238D01*
X36234762Y-88400000D01*
X36377620Y-88352381D01*
X36472858Y-88352381D01*
X36615715Y-88400000D01*
X36663334Y-88447619D01*
X37520477Y-88352381D02*
X37330000Y-88352381D01*
X37234762Y-88400000D01*
X37187143Y-88447619D01*
X37091905Y-88590476D01*
X37044286Y-88780952D01*
X37044286Y-89161905D01*
X37091905Y-89257143D01*
X37139524Y-89304762D01*
X37234762Y-89352381D01*
X37425239Y-89352381D01*
X37520477Y-89304762D01*
X37568096Y-89257143D01*
X37615715Y-89161905D01*
X37615715Y-88923810D01*
X37568096Y-88828571D01*
X37520477Y-88780952D01*
X37425239Y-88733333D01*
X37234762Y-88733333D01*
X37139524Y-88780952D01*
X37091905Y-88828571D01*
X37044286Y-88923810D01*
X87446905Y-69032381D02*
X87446905Y-68032381D01*
X87685000Y-68032381D01*
X87827858Y-68080000D01*
X87923096Y-68175238D01*
X87970715Y-68270476D01*
X88018334Y-68460952D01*
X88018334Y-68603810D01*
X87970715Y-68794286D01*
X87923096Y-68889524D01*
X87827858Y-68984762D01*
X87685000Y-69032381D01*
X87446905Y-69032381D01*
X88399286Y-68127619D02*
X88446905Y-68080000D01*
X88542143Y-68032381D01*
X88780239Y-68032381D01*
X88875477Y-68080000D01*
X88923096Y-68127619D01*
X88970715Y-68222857D01*
X88970715Y-68318095D01*
X88923096Y-68460952D01*
X88351667Y-69032381D01*
X88970715Y-69032381D01*
X87446905Y-74112381D02*
X87446905Y-73112381D01*
X87685000Y-73112381D01*
X87827858Y-73160000D01*
X87923096Y-73255238D01*
X87970715Y-73350476D01*
X88018334Y-73540952D01*
X88018334Y-73683810D01*
X87970715Y-73874286D01*
X87923096Y-73969524D01*
X87827858Y-74064762D01*
X87685000Y-74112381D01*
X87446905Y-74112381D01*
X88351667Y-73112381D02*
X88970715Y-73112381D01*
X88637381Y-73493333D01*
X88780239Y-73493333D01*
X88875477Y-73540952D01*
X88923096Y-73588571D01*
X88970715Y-73683810D01*
X88970715Y-73921905D01*
X88923096Y-74017143D01*
X88875477Y-74064762D01*
X88780239Y-74112381D01*
X88494524Y-74112381D01*
X88399286Y-74064762D01*
X88351667Y-74017143D01*
X87446905Y-79192381D02*
X87446905Y-78192381D01*
X87685000Y-78192381D01*
X87827858Y-78240000D01*
X87923096Y-78335238D01*
X87970715Y-78430476D01*
X88018334Y-78620952D01*
X88018334Y-78763810D01*
X87970715Y-78954286D01*
X87923096Y-79049524D01*
X87827858Y-79144762D01*
X87685000Y-79192381D01*
X87446905Y-79192381D01*
X88875477Y-78525714D02*
X88875477Y-79192381D01*
X88637381Y-78144762D02*
X88399286Y-78859048D01*
X89018334Y-78859048D01*
X87446905Y-84272381D02*
X87446905Y-83272381D01*
X87685000Y-83272381D01*
X87827858Y-83320000D01*
X87923096Y-83415238D01*
X87970715Y-83510476D01*
X88018334Y-83700952D01*
X88018334Y-83843810D01*
X87970715Y-84034286D01*
X87923096Y-84129524D01*
X87827858Y-84224762D01*
X87685000Y-84272381D01*
X87446905Y-84272381D01*
X88923096Y-83272381D02*
X88446905Y-83272381D01*
X88399286Y-83748571D01*
X88446905Y-83700952D01*
X88542143Y-83653333D01*
X88780239Y-83653333D01*
X88875477Y-83700952D01*
X88923096Y-83748571D01*
X88970715Y-83843810D01*
X88970715Y-84081905D01*
X88923096Y-84177143D01*
X88875477Y-84224762D01*
X88780239Y-84272381D01*
X88542143Y-84272381D01*
X88446905Y-84224762D01*
X88399286Y-84177143D01*
X87446905Y-89352381D02*
X87446905Y-88352381D01*
X87685000Y-88352381D01*
X87827858Y-88400000D01*
X87923096Y-88495238D01*
X87970715Y-88590476D01*
X88018334Y-88780952D01*
X88018334Y-88923810D01*
X87970715Y-89114286D01*
X87923096Y-89209524D01*
X87827858Y-89304762D01*
X87685000Y-89352381D01*
X87446905Y-89352381D01*
X88875477Y-88352381D02*
X88685000Y-88352381D01*
X88589762Y-88400000D01*
X88542143Y-88447619D01*
X88446905Y-88590476D01*
X88399286Y-88780952D01*
X88399286Y-89161905D01*
X88446905Y-89257143D01*
X88494524Y-89304762D01*
X88589762Y-89352381D01*
X88780239Y-89352381D01*
X88875477Y-89304762D01*
X88923096Y-89257143D01*
X88970715Y-89161905D01*
X88970715Y-88923810D01*
X88923096Y-88828571D01*
X88875477Y-88780952D01*
X88780239Y-88733333D01*
X88589762Y-88733333D01*
X88494524Y-88780952D01*
X88446905Y-88828571D01*
X88399286Y-88923810D01*
D12*
X27047143Y-43803571D02*
X27332857Y-43803571D01*
X27475715Y-43875000D01*
X27618572Y-44017857D01*
X27690000Y-44303571D01*
X27690000Y-44803571D01*
X27618572Y-45089286D01*
X27475715Y-45232143D01*
X27332857Y-45303571D01*
X27047143Y-45303571D01*
X26904286Y-45232143D01*
X26761429Y-45089286D01*
X26690000Y-44803571D01*
X26690000Y-44303571D01*
X26761429Y-44017857D01*
X26904286Y-43875000D01*
X27047143Y-43803571D01*
X28261429Y-45232143D02*
X28475715Y-45303571D01*
X28832858Y-45303571D01*
X28975715Y-45232143D01*
X29047144Y-45160714D01*
X29118572Y-45017857D01*
X29118572Y-44875000D01*
X29047144Y-44732143D01*
X28975715Y-44660714D01*
X28832858Y-44589286D01*
X28547144Y-44517857D01*
X28404286Y-44446429D01*
X28332858Y-44375000D01*
X28261429Y-44232143D01*
X28261429Y-44089286D01*
X28332858Y-43946429D01*
X28404286Y-43875000D01*
X28547144Y-43803571D01*
X28904286Y-43803571D01*
X29118572Y-43875000D01*
X30618572Y-45160714D02*
X30547143Y-45232143D01*
X30332857Y-45303571D01*
X30190000Y-45303571D01*
X29975715Y-45232143D01*
X29832857Y-45089286D01*
X29761429Y-44946429D01*
X29690000Y-44660714D01*
X29690000Y-44446429D01*
X29761429Y-44160714D01*
X29832857Y-44017857D01*
X29975715Y-43875000D01*
X30190000Y-43803571D01*
X30332857Y-43803571D01*
X30547143Y-43875000D01*
X30618572Y-43946429D01*
X30904286Y-45446429D02*
X32047143Y-45446429D01*
X33190000Y-45303571D02*
X32332857Y-45303571D01*
X32761429Y-45303571D02*
X32761429Y-43803571D01*
X32618572Y-44017857D01*
X32475714Y-44160714D01*
X32332857Y-44232143D01*
X57527143Y-43803571D02*
X57812857Y-43803571D01*
X57955715Y-43875000D01*
X58098572Y-44017857D01*
X58170000Y-44303571D01*
X58170000Y-44803571D01*
X58098572Y-45089286D01*
X57955715Y-45232143D01*
X57812857Y-45303571D01*
X57527143Y-45303571D01*
X57384286Y-45232143D01*
X57241429Y-45089286D01*
X57170000Y-44803571D01*
X57170000Y-44303571D01*
X57241429Y-44017857D01*
X57384286Y-43875000D01*
X57527143Y-43803571D01*
X58741429Y-45232143D02*
X58955715Y-45303571D01*
X59312858Y-45303571D01*
X59455715Y-45232143D01*
X59527144Y-45160714D01*
X59598572Y-45017857D01*
X59598572Y-44875000D01*
X59527144Y-44732143D01*
X59455715Y-44660714D01*
X59312858Y-44589286D01*
X59027144Y-44517857D01*
X58884286Y-44446429D01*
X58812858Y-44375000D01*
X58741429Y-44232143D01*
X58741429Y-44089286D01*
X58812858Y-43946429D01*
X58884286Y-43875000D01*
X59027144Y-43803571D01*
X59384286Y-43803571D01*
X59598572Y-43875000D01*
X61098572Y-45160714D02*
X61027143Y-45232143D01*
X60812857Y-45303571D01*
X60670000Y-45303571D01*
X60455715Y-45232143D01*
X60312857Y-45089286D01*
X60241429Y-44946429D01*
X60170000Y-44660714D01*
X60170000Y-44446429D01*
X60241429Y-44160714D01*
X60312857Y-44017857D01*
X60455715Y-43875000D01*
X60670000Y-43803571D01*
X60812857Y-43803571D01*
X61027143Y-43875000D01*
X61098572Y-43946429D01*
X61384286Y-45446429D02*
X62527143Y-45446429D01*
X62812857Y-43946429D02*
X62884286Y-43875000D01*
X63027143Y-43803571D01*
X63384286Y-43803571D01*
X63527143Y-43875000D01*
X63598572Y-43946429D01*
X63670000Y-44089286D01*
X63670000Y-44232143D01*
X63598572Y-44446429D01*
X62741429Y-45303571D01*
X63670000Y-45303571D01*
X88007143Y-43803571D02*
X88292857Y-43803571D01*
X88435715Y-43875000D01*
X88578572Y-44017857D01*
X88650000Y-44303571D01*
X88650000Y-44803571D01*
X88578572Y-45089286D01*
X88435715Y-45232143D01*
X88292857Y-45303571D01*
X88007143Y-45303571D01*
X87864286Y-45232143D01*
X87721429Y-45089286D01*
X87650000Y-44803571D01*
X87650000Y-44303571D01*
X87721429Y-44017857D01*
X87864286Y-43875000D01*
X88007143Y-43803571D01*
X89221429Y-45232143D02*
X89435715Y-45303571D01*
X89792858Y-45303571D01*
X89935715Y-45232143D01*
X90007144Y-45160714D01*
X90078572Y-45017857D01*
X90078572Y-44875000D01*
X90007144Y-44732143D01*
X89935715Y-44660714D01*
X89792858Y-44589286D01*
X89507144Y-44517857D01*
X89364286Y-44446429D01*
X89292858Y-44375000D01*
X89221429Y-44232143D01*
X89221429Y-44089286D01*
X89292858Y-43946429D01*
X89364286Y-43875000D01*
X89507144Y-43803571D01*
X89864286Y-43803571D01*
X90078572Y-43875000D01*
X91578572Y-45160714D02*
X91507143Y-45232143D01*
X91292857Y-45303571D01*
X91150000Y-45303571D01*
X90935715Y-45232143D01*
X90792857Y-45089286D01*
X90721429Y-44946429D01*
X90650000Y-44660714D01*
X90650000Y-44446429D01*
X90721429Y-44160714D01*
X90792857Y-44017857D01*
X90935715Y-43875000D01*
X91150000Y-43803571D01*
X91292857Y-43803571D01*
X91507143Y-43875000D01*
X91578572Y-43946429D01*
X91864286Y-45446429D02*
X93007143Y-45446429D01*
X93221429Y-43803571D02*
X94150000Y-43803571D01*
X93650000Y-44375000D01*
X93864286Y-44375000D01*
X94007143Y-44446429D01*
X94078572Y-44517857D01*
X94150000Y-44660714D01*
X94150000Y-45017857D01*
X94078572Y-45160714D01*
X94007143Y-45232143D01*
X93864286Y-45303571D01*
X93435714Y-45303571D01*
X93292857Y-45232143D01*
X93221429Y-45160714D01*
X27047143Y-93968571D02*
X27332857Y-93968571D01*
X27475715Y-94040000D01*
X27618572Y-94182857D01*
X27690000Y-94468571D01*
X27690000Y-94968571D01*
X27618572Y-95254286D01*
X27475715Y-95397143D01*
X27332857Y-95468571D01*
X27047143Y-95468571D01*
X26904286Y-95397143D01*
X26761429Y-95254286D01*
X26690000Y-94968571D01*
X26690000Y-94468571D01*
X26761429Y-94182857D01*
X26904286Y-94040000D01*
X27047143Y-93968571D01*
X28261429Y-95397143D02*
X28475715Y-95468571D01*
X28832858Y-95468571D01*
X28975715Y-95397143D01*
X29047144Y-95325714D01*
X29118572Y-95182857D01*
X29118572Y-95040000D01*
X29047144Y-94897143D01*
X28975715Y-94825714D01*
X28832858Y-94754286D01*
X28547144Y-94682857D01*
X28404286Y-94611429D01*
X28332858Y-94540000D01*
X28261429Y-94397143D01*
X28261429Y-94254286D01*
X28332858Y-94111429D01*
X28404286Y-94040000D01*
X28547144Y-93968571D01*
X28904286Y-93968571D01*
X29118572Y-94040000D01*
X30618572Y-95325714D02*
X30547143Y-95397143D01*
X30332857Y-95468571D01*
X30190000Y-95468571D01*
X29975715Y-95397143D01*
X29832857Y-95254286D01*
X29761429Y-95111429D01*
X29690000Y-94825714D01*
X29690000Y-94611429D01*
X29761429Y-94325714D01*
X29832857Y-94182857D01*
X29975715Y-94040000D01*
X30190000Y-93968571D01*
X30332857Y-93968571D01*
X30547143Y-94040000D01*
X30618572Y-94111429D01*
X30904286Y-95611429D02*
X32047143Y-95611429D01*
X33047143Y-94468571D02*
X33047143Y-95468571D01*
X32690000Y-93897143D02*
X32332857Y-94968571D01*
X33261429Y-94968571D01*
X57527143Y-93968571D02*
X57812857Y-93968571D01*
X57955715Y-94040000D01*
X58098572Y-94182857D01*
X58170000Y-94468571D01*
X58170000Y-94968571D01*
X58098572Y-95254286D01*
X57955715Y-95397143D01*
X57812857Y-95468571D01*
X57527143Y-95468571D01*
X57384286Y-95397143D01*
X57241429Y-95254286D01*
X57170000Y-94968571D01*
X57170000Y-94468571D01*
X57241429Y-94182857D01*
X57384286Y-94040000D01*
X57527143Y-93968571D01*
X58741429Y-95397143D02*
X58955715Y-95468571D01*
X59312858Y-95468571D01*
X59455715Y-95397143D01*
X59527144Y-95325714D01*
X59598572Y-95182857D01*
X59598572Y-95040000D01*
X59527144Y-94897143D01*
X59455715Y-94825714D01*
X59312858Y-94754286D01*
X59027144Y-94682857D01*
X58884286Y-94611429D01*
X58812858Y-94540000D01*
X58741429Y-94397143D01*
X58741429Y-94254286D01*
X58812858Y-94111429D01*
X58884286Y-94040000D01*
X59027144Y-93968571D01*
X59384286Y-93968571D01*
X59598572Y-94040000D01*
X61098572Y-95325714D02*
X61027143Y-95397143D01*
X60812857Y-95468571D01*
X60670000Y-95468571D01*
X60455715Y-95397143D01*
X60312857Y-95254286D01*
X60241429Y-95111429D01*
X60170000Y-94825714D01*
X60170000Y-94611429D01*
X60241429Y-94325714D01*
X60312857Y-94182857D01*
X60455715Y-94040000D01*
X60670000Y-93968571D01*
X60812857Y-93968571D01*
X61027143Y-94040000D01*
X61098572Y-94111429D01*
X61384286Y-95611429D02*
X62527143Y-95611429D01*
X63598572Y-93968571D02*
X62884286Y-93968571D01*
X62812857Y-94682857D01*
X62884286Y-94611429D01*
X63027143Y-94540000D01*
X63384286Y-94540000D01*
X63527143Y-94611429D01*
X63598572Y-94682857D01*
X63670000Y-94825714D01*
X63670000Y-95182857D01*
X63598572Y-95325714D01*
X63527143Y-95397143D01*
X63384286Y-95468571D01*
X63027143Y-95468571D01*
X62884286Y-95397143D01*
X62812857Y-95325714D01*
X88007143Y-93968571D02*
X88292857Y-93968571D01*
X88435715Y-94040000D01*
X88578572Y-94182857D01*
X88650000Y-94468571D01*
X88650000Y-94968571D01*
X88578572Y-95254286D01*
X88435715Y-95397143D01*
X88292857Y-95468571D01*
X88007143Y-95468571D01*
X87864286Y-95397143D01*
X87721429Y-95254286D01*
X87650000Y-94968571D01*
X87650000Y-94468571D01*
X87721429Y-94182857D01*
X87864286Y-94040000D01*
X88007143Y-93968571D01*
X89221429Y-95397143D02*
X89435715Y-95468571D01*
X89792858Y-95468571D01*
X89935715Y-95397143D01*
X90007144Y-95325714D01*
X90078572Y-95182857D01*
X90078572Y-95040000D01*
X90007144Y-94897143D01*
X89935715Y-94825714D01*
X89792858Y-94754286D01*
X89507144Y-94682857D01*
X89364286Y-94611429D01*
X89292858Y-94540000D01*
X89221429Y-94397143D01*
X89221429Y-94254286D01*
X89292858Y-94111429D01*
X89364286Y-94040000D01*
X89507144Y-93968571D01*
X89864286Y-93968571D01*
X90078572Y-94040000D01*
X91578572Y-95325714D02*
X91507143Y-95397143D01*
X91292857Y-95468571D01*
X91150000Y-95468571D01*
X90935715Y-95397143D01*
X90792857Y-95254286D01*
X90721429Y-95111429D01*
X90650000Y-94825714D01*
X90650000Y-94611429D01*
X90721429Y-94325714D01*
X90792857Y-94182857D01*
X90935715Y-94040000D01*
X91150000Y-93968571D01*
X91292857Y-93968571D01*
X91507143Y-94040000D01*
X91578572Y-94111429D01*
X91864286Y-95611429D02*
X93007143Y-95611429D01*
X94007143Y-93968571D02*
X93721429Y-93968571D01*
X93578572Y-94040000D01*
X93507143Y-94111429D01*
X93364286Y-94325714D01*
X93292857Y-94611429D01*
X93292857Y-95182857D01*
X93364286Y-95325714D01*
X93435714Y-95397143D01*
X93578572Y-95468571D01*
X93864286Y-95468571D01*
X94007143Y-95397143D01*
X94078572Y-95325714D01*
X94150000Y-95182857D01*
X94150000Y-94825714D01*
X94078572Y-94682857D01*
X94007143Y-94611429D01*
X93864286Y-94540000D01*
X93578572Y-94540000D01*
X93435714Y-94611429D01*
X93364286Y-94682857D01*
X93292857Y-94825714D01*
X48232143Y-40544285D02*
X48303571Y-40329999D01*
X48303571Y-39972856D01*
X48232143Y-39829999D01*
X48160714Y-39758570D01*
X48017857Y-39687142D01*
X47875000Y-39687142D01*
X47732143Y-39758570D01*
X47660714Y-39829999D01*
X47589286Y-39972856D01*
X47517857Y-40258570D01*
X47446429Y-40401428D01*
X47375000Y-40472856D01*
X47232143Y-40544285D01*
X47089286Y-40544285D01*
X46946429Y-40472856D01*
X46875000Y-40401428D01*
X46803571Y-40258570D01*
X46803571Y-39901428D01*
X46875000Y-39687142D01*
X46803571Y-39258571D02*
X46803571Y-38401428D01*
X48303571Y-38829999D02*
X46803571Y-38829999D01*
X47875000Y-37972857D02*
X47875000Y-37258571D01*
X48303571Y-38115714D02*
X46803571Y-37615714D01*
X48303571Y-37115714D01*
X48303571Y-35758571D02*
X47589286Y-36258571D01*
X48303571Y-36615714D02*
X46803571Y-36615714D01*
X46803571Y-36044286D01*
X46875000Y-35901428D01*
X46946429Y-35830000D01*
X47089286Y-35758571D01*
X47303571Y-35758571D01*
X47446429Y-35830000D01*
X47517857Y-35901428D01*
X47589286Y-36044286D01*
X47589286Y-36615714D01*
X46803571Y-35330000D02*
X48303571Y-34830000D01*
X46803571Y-34330000D01*
X47517857Y-33830000D02*
X47517857Y-33330000D01*
X48303571Y-33115714D02*
X48303571Y-33830000D01*
X46803571Y-33830000D01*
X46803571Y-33115714D01*
X34738571Y-40235000D02*
X34738571Y-39949286D01*
X34810000Y-39806428D01*
X34952857Y-39663571D01*
X35238571Y-39592143D01*
X35738571Y-39592143D01*
X36024286Y-39663571D01*
X36167143Y-39806428D01*
X36238571Y-39949286D01*
X36238571Y-40235000D01*
X36167143Y-40377857D01*
X36024286Y-40520714D01*
X35738571Y-40592143D01*
X35238571Y-40592143D01*
X34952857Y-40520714D01*
X34810000Y-40377857D01*
X34738571Y-40235000D01*
X34738571Y-38949285D02*
X35952857Y-38949285D01*
X36095714Y-38877857D01*
X36167143Y-38806428D01*
X36238571Y-38663571D01*
X36238571Y-38377857D01*
X36167143Y-38234999D01*
X36095714Y-38163571D01*
X35952857Y-38092142D01*
X34738571Y-38092142D01*
X34738571Y-37592142D02*
X34738571Y-36734999D01*
X36238571Y-37163570D02*
X34738571Y-37163570D01*
D15*
X49823334Y-63952381D02*
X49490000Y-63476190D01*
X49251905Y-63952381D02*
X49251905Y-62952381D01*
X49632858Y-62952381D01*
X49728096Y-63000000D01*
X49775715Y-63047619D01*
X49823334Y-63142857D01*
X49823334Y-63285714D01*
X49775715Y-63380952D01*
X49728096Y-63428571D01*
X49632858Y-63476190D01*
X49251905Y-63476190D01*
X50775715Y-63952381D02*
X50204286Y-63952381D01*
X50490000Y-63952381D02*
X50490000Y-62952381D01*
X50394762Y-63095238D01*
X50299524Y-63190476D01*
X50204286Y-63238095D01*
X49823334Y-69032381D02*
X49490000Y-68556190D01*
X49251905Y-69032381D02*
X49251905Y-68032381D01*
X49632858Y-68032381D01*
X49728096Y-68080000D01*
X49775715Y-68127619D01*
X49823334Y-68222857D01*
X49823334Y-68365714D01*
X49775715Y-68460952D01*
X49728096Y-68508571D01*
X49632858Y-68556190D01*
X49251905Y-68556190D01*
X50156667Y-68032381D02*
X50775715Y-68032381D01*
X50442381Y-68413333D01*
X50585239Y-68413333D01*
X50680477Y-68460952D01*
X50728096Y-68508571D01*
X50775715Y-68603810D01*
X50775715Y-68841905D01*
X50728096Y-68937143D01*
X50680477Y-68984762D01*
X50585239Y-69032381D01*
X50299524Y-69032381D01*
X50204286Y-68984762D01*
X50156667Y-68937143D01*
X61888334Y-69032381D02*
X61555000Y-68556190D01*
X61316905Y-69032381D02*
X61316905Y-68032381D01*
X61697858Y-68032381D01*
X61793096Y-68080000D01*
X61840715Y-68127619D01*
X61888334Y-68222857D01*
X61888334Y-68365714D01*
X61840715Y-68460952D01*
X61793096Y-68508571D01*
X61697858Y-68556190D01*
X61316905Y-68556190D01*
X62745477Y-68365714D02*
X62745477Y-69032381D01*
X62507381Y-67984762D02*
X62269286Y-68699048D01*
X62888334Y-68699048D01*
X49823334Y-74112381D02*
X49490000Y-73636190D01*
X49251905Y-74112381D02*
X49251905Y-73112381D01*
X49632858Y-73112381D01*
X49728096Y-73160000D01*
X49775715Y-73207619D01*
X49823334Y-73302857D01*
X49823334Y-73445714D01*
X49775715Y-73540952D01*
X49728096Y-73588571D01*
X49632858Y-73636190D01*
X49251905Y-73636190D01*
X50728096Y-73112381D02*
X50251905Y-73112381D01*
X50204286Y-73588571D01*
X50251905Y-73540952D01*
X50347143Y-73493333D01*
X50585239Y-73493333D01*
X50680477Y-73540952D01*
X50728096Y-73588571D01*
X50775715Y-73683810D01*
X50775715Y-73921905D01*
X50728096Y-74017143D01*
X50680477Y-74064762D01*
X50585239Y-74112381D01*
X50347143Y-74112381D01*
X50251905Y-74064762D01*
X50204286Y-74017143D01*
X61888334Y-74112381D02*
X61555000Y-73636190D01*
X61316905Y-74112381D02*
X61316905Y-73112381D01*
X61697858Y-73112381D01*
X61793096Y-73160000D01*
X61840715Y-73207619D01*
X61888334Y-73302857D01*
X61888334Y-73445714D01*
X61840715Y-73540952D01*
X61793096Y-73588571D01*
X61697858Y-73636190D01*
X61316905Y-73636190D01*
X62745477Y-73112381D02*
X62555000Y-73112381D01*
X62459762Y-73160000D01*
X62412143Y-73207619D01*
X62316905Y-73350476D01*
X62269286Y-73540952D01*
X62269286Y-73921905D01*
X62316905Y-74017143D01*
X62364524Y-74064762D01*
X62459762Y-74112381D01*
X62650239Y-74112381D01*
X62745477Y-74064762D01*
X62793096Y-74017143D01*
X62840715Y-73921905D01*
X62840715Y-73683810D01*
X62793096Y-73588571D01*
X62745477Y-73540952D01*
X62650239Y-73493333D01*
X62459762Y-73493333D01*
X62364524Y-73540952D01*
X62316905Y-73588571D01*
X62269286Y-73683810D01*
X49823334Y-79192381D02*
X49490000Y-78716190D01*
X49251905Y-79192381D02*
X49251905Y-78192381D01*
X49632858Y-78192381D01*
X49728096Y-78240000D01*
X49775715Y-78287619D01*
X49823334Y-78382857D01*
X49823334Y-78525714D01*
X49775715Y-78620952D01*
X49728096Y-78668571D01*
X49632858Y-78716190D01*
X49251905Y-78716190D01*
X50156667Y-78192381D02*
X50823334Y-78192381D01*
X50394762Y-79192381D01*
X61888334Y-79192381D02*
X61555000Y-78716190D01*
X61316905Y-79192381D02*
X61316905Y-78192381D01*
X61697858Y-78192381D01*
X61793096Y-78240000D01*
X61840715Y-78287619D01*
X61888334Y-78382857D01*
X61888334Y-78525714D01*
X61840715Y-78620952D01*
X61793096Y-78668571D01*
X61697858Y-78716190D01*
X61316905Y-78716190D01*
X62459762Y-78620952D02*
X62364524Y-78573333D01*
X62316905Y-78525714D01*
X62269286Y-78430476D01*
X62269286Y-78382857D01*
X62316905Y-78287619D01*
X62364524Y-78240000D01*
X62459762Y-78192381D01*
X62650239Y-78192381D01*
X62745477Y-78240000D01*
X62793096Y-78287619D01*
X62840715Y-78382857D01*
X62840715Y-78430476D01*
X62793096Y-78525714D01*
X62745477Y-78573333D01*
X62650239Y-78620952D01*
X62459762Y-78620952D01*
X62364524Y-78668571D01*
X62316905Y-78716190D01*
X62269286Y-78811429D01*
X62269286Y-79001905D01*
X62316905Y-79097143D01*
X62364524Y-79144762D01*
X62459762Y-79192381D01*
X62650239Y-79192381D01*
X62745477Y-79144762D01*
X62793096Y-79097143D01*
X62840715Y-79001905D01*
X62840715Y-78811429D01*
X62793096Y-78716190D01*
X62745477Y-78668571D01*
X62650239Y-78620952D01*
X49823334Y-84272381D02*
X49490000Y-83796190D01*
X49251905Y-84272381D02*
X49251905Y-83272381D01*
X49632858Y-83272381D01*
X49728096Y-83320000D01*
X49775715Y-83367619D01*
X49823334Y-83462857D01*
X49823334Y-83605714D01*
X49775715Y-83700952D01*
X49728096Y-83748571D01*
X49632858Y-83796190D01*
X49251905Y-83796190D01*
X50299524Y-84272381D02*
X50490000Y-84272381D01*
X50585239Y-84224762D01*
X50632858Y-84177143D01*
X50728096Y-84034286D01*
X50775715Y-83843810D01*
X50775715Y-83462857D01*
X50728096Y-83367619D01*
X50680477Y-83320000D01*
X50585239Y-83272381D01*
X50394762Y-83272381D01*
X50299524Y-83320000D01*
X50251905Y-83367619D01*
X50204286Y-83462857D01*
X50204286Y-83700952D01*
X50251905Y-83796190D01*
X50299524Y-83843810D01*
X50394762Y-83891429D01*
X50585239Y-83891429D01*
X50680477Y-83843810D01*
X50728096Y-83796190D01*
X50775715Y-83700952D01*
X61412143Y-84272381D02*
X61078809Y-83796190D01*
X60840714Y-84272381D02*
X60840714Y-83272381D01*
X61221667Y-83272381D01*
X61316905Y-83320000D01*
X61364524Y-83367619D01*
X61412143Y-83462857D01*
X61412143Y-83605714D01*
X61364524Y-83700952D01*
X61316905Y-83748571D01*
X61221667Y-83796190D01*
X60840714Y-83796190D01*
X62364524Y-84272381D02*
X61793095Y-84272381D01*
X62078809Y-84272381D02*
X62078809Y-83272381D01*
X61983571Y-83415238D01*
X61888333Y-83510476D01*
X61793095Y-83558095D01*
X62983571Y-83272381D02*
X63078810Y-83272381D01*
X63174048Y-83320000D01*
X63221667Y-83367619D01*
X63269286Y-83462857D01*
X63316905Y-83653333D01*
X63316905Y-83891429D01*
X63269286Y-84081905D01*
X63221667Y-84177143D01*
X63174048Y-84224762D01*
X63078810Y-84272381D01*
X62983571Y-84272381D01*
X62888333Y-84224762D01*
X62840714Y-84177143D01*
X62793095Y-84081905D01*
X62745476Y-83891429D01*
X62745476Y-83653333D01*
X62793095Y-83462857D01*
X62840714Y-83367619D01*
X62888333Y-83320000D01*
X62983571Y-83272381D01*
X49347143Y-89352381D02*
X49013809Y-88876190D01*
X48775714Y-89352381D02*
X48775714Y-88352381D01*
X49156667Y-88352381D01*
X49251905Y-88400000D01*
X49299524Y-88447619D01*
X49347143Y-88542857D01*
X49347143Y-88685714D01*
X49299524Y-88780952D01*
X49251905Y-88828571D01*
X49156667Y-88876190D01*
X48775714Y-88876190D01*
X50299524Y-89352381D02*
X49728095Y-89352381D01*
X50013809Y-89352381D02*
X50013809Y-88352381D01*
X49918571Y-88495238D01*
X49823333Y-88590476D01*
X49728095Y-88638095D01*
X51251905Y-89352381D02*
X50680476Y-89352381D01*
X50966190Y-89352381D02*
X50966190Y-88352381D01*
X50870952Y-88495238D01*
X50775714Y-88590476D01*
X50680476Y-88638095D01*
X61412143Y-89352381D02*
X61078809Y-88876190D01*
X60840714Y-89352381D02*
X60840714Y-88352381D01*
X61221667Y-88352381D01*
X61316905Y-88400000D01*
X61364524Y-88447619D01*
X61412143Y-88542857D01*
X61412143Y-88685714D01*
X61364524Y-88780952D01*
X61316905Y-88828571D01*
X61221667Y-88876190D01*
X60840714Y-88876190D01*
X62364524Y-89352381D02*
X61793095Y-89352381D01*
X62078809Y-89352381D02*
X62078809Y-88352381D01*
X61983571Y-88495238D01*
X61888333Y-88590476D01*
X61793095Y-88638095D01*
X62745476Y-88447619D02*
X62793095Y-88400000D01*
X62888333Y-88352381D01*
X63126429Y-88352381D01*
X63221667Y-88400000D01*
X63269286Y-88447619D01*
X63316905Y-88542857D01*
X63316905Y-88638095D01*
X63269286Y-88780952D01*
X62697857Y-89352381D01*
X63316905Y-89352381D01*
X73477143Y-69032381D02*
X73143809Y-68556190D01*
X72905714Y-69032381D02*
X72905714Y-68032381D01*
X73286667Y-68032381D01*
X73381905Y-68080000D01*
X73429524Y-68127619D01*
X73477143Y-68222857D01*
X73477143Y-68365714D01*
X73429524Y-68460952D01*
X73381905Y-68508571D01*
X73286667Y-68556190D01*
X72905714Y-68556190D01*
X74429524Y-69032381D02*
X73858095Y-69032381D01*
X74143809Y-69032381D02*
X74143809Y-68032381D01*
X74048571Y-68175238D01*
X73953333Y-68270476D01*
X73858095Y-68318095D01*
X75286667Y-68365714D02*
X75286667Y-69032381D01*
X75048571Y-67984762D02*
X74810476Y-68699048D01*
X75429524Y-68699048D01*
X73477143Y-74112381D02*
X73143809Y-73636190D01*
X72905714Y-74112381D02*
X72905714Y-73112381D01*
X73286667Y-73112381D01*
X73381905Y-73160000D01*
X73429524Y-73207619D01*
X73477143Y-73302857D01*
X73477143Y-73445714D01*
X73429524Y-73540952D01*
X73381905Y-73588571D01*
X73286667Y-73636190D01*
X72905714Y-73636190D01*
X74429524Y-74112381D02*
X73858095Y-74112381D01*
X74143809Y-74112381D02*
X74143809Y-73112381D01*
X74048571Y-73255238D01*
X73953333Y-73350476D01*
X73858095Y-73398095D01*
X75334286Y-73112381D02*
X74858095Y-73112381D01*
X74810476Y-73588571D01*
X74858095Y-73540952D01*
X74953333Y-73493333D01*
X75191429Y-73493333D01*
X75286667Y-73540952D01*
X75334286Y-73588571D01*
X75381905Y-73683810D01*
X75381905Y-73921905D01*
X75334286Y-74017143D01*
X75286667Y-74064762D01*
X75191429Y-74112381D01*
X74953333Y-74112381D01*
X74858095Y-74064762D01*
X74810476Y-74017143D01*
X73477143Y-79192381D02*
X73143809Y-78716190D01*
X72905714Y-79192381D02*
X72905714Y-78192381D01*
X73286667Y-78192381D01*
X73381905Y-78240000D01*
X73429524Y-78287619D01*
X73477143Y-78382857D01*
X73477143Y-78525714D01*
X73429524Y-78620952D01*
X73381905Y-78668571D01*
X73286667Y-78716190D01*
X72905714Y-78716190D01*
X74429524Y-79192381D02*
X73858095Y-79192381D01*
X74143809Y-79192381D02*
X74143809Y-78192381D01*
X74048571Y-78335238D01*
X73953333Y-78430476D01*
X73858095Y-78478095D01*
X75286667Y-78192381D02*
X75096190Y-78192381D01*
X75000952Y-78240000D01*
X74953333Y-78287619D01*
X74858095Y-78430476D01*
X74810476Y-78620952D01*
X74810476Y-79001905D01*
X74858095Y-79097143D01*
X74905714Y-79144762D01*
X75000952Y-79192381D01*
X75191429Y-79192381D01*
X75286667Y-79144762D01*
X75334286Y-79097143D01*
X75381905Y-79001905D01*
X75381905Y-78763810D01*
X75334286Y-78668571D01*
X75286667Y-78620952D01*
X75191429Y-78573333D01*
X75000952Y-78573333D01*
X74905714Y-78620952D01*
X74858095Y-78668571D01*
X74810476Y-78763810D01*
X73477143Y-84272381D02*
X73143809Y-83796190D01*
X72905714Y-84272381D02*
X72905714Y-83272381D01*
X73286667Y-83272381D01*
X73381905Y-83320000D01*
X73429524Y-83367619D01*
X73477143Y-83462857D01*
X73477143Y-83605714D01*
X73429524Y-83700952D01*
X73381905Y-83748571D01*
X73286667Y-83796190D01*
X72905714Y-83796190D01*
X74429524Y-84272381D02*
X73858095Y-84272381D01*
X74143809Y-84272381D02*
X74143809Y-83272381D01*
X74048571Y-83415238D01*
X73953333Y-83510476D01*
X73858095Y-83558095D01*
X74762857Y-83272381D02*
X75429524Y-83272381D01*
X75000952Y-84272381D01*
X73477143Y-89352381D02*
X73143809Y-88876190D01*
X72905714Y-89352381D02*
X72905714Y-88352381D01*
X73286667Y-88352381D01*
X73381905Y-88400000D01*
X73429524Y-88447619D01*
X73477143Y-88542857D01*
X73477143Y-88685714D01*
X73429524Y-88780952D01*
X73381905Y-88828571D01*
X73286667Y-88876190D01*
X72905714Y-88876190D01*
X74429524Y-89352381D02*
X73858095Y-89352381D01*
X74143809Y-89352381D02*
X74143809Y-88352381D01*
X74048571Y-88495238D01*
X73953333Y-88590476D01*
X73858095Y-88638095D01*
X75000952Y-88780952D02*
X74905714Y-88733333D01*
X74858095Y-88685714D01*
X74810476Y-88590476D01*
X74810476Y-88542857D01*
X74858095Y-88447619D01*
X74905714Y-88400000D01*
X75000952Y-88352381D01*
X75191429Y-88352381D01*
X75286667Y-88400000D01*
X75334286Y-88447619D01*
X75381905Y-88542857D01*
X75381905Y-88590476D01*
X75334286Y-88685714D01*
X75286667Y-88733333D01*
X75191429Y-88780952D01*
X75000952Y-88780952D01*
X74905714Y-88828571D01*
X74858095Y-88876190D01*
X74810476Y-88971429D01*
X74810476Y-89161905D01*
X74858095Y-89257143D01*
X74905714Y-89304762D01*
X75000952Y-89352381D01*
X75191429Y-89352381D01*
X75286667Y-89304762D01*
X75334286Y-89257143D01*
X75381905Y-89161905D01*
X75381905Y-88971429D01*
X75334286Y-88876190D01*
X75286667Y-88828571D01*
X75191429Y-88780952D01*
X100655143Y-63952381D02*
X100321809Y-63476190D01*
X100083714Y-63952381D02*
X100083714Y-62952381D01*
X100464667Y-62952381D01*
X100559905Y-63000000D01*
X100607524Y-63047619D01*
X100655143Y-63142857D01*
X100655143Y-63285714D01*
X100607524Y-63380952D01*
X100559905Y-63428571D01*
X100464667Y-63476190D01*
X100083714Y-63476190D01*
X101607524Y-63952381D02*
X101036095Y-63952381D01*
X101321809Y-63952381D02*
X101321809Y-62952381D01*
X101226571Y-63095238D01*
X101131333Y-63190476D01*
X101036095Y-63238095D01*
X102083714Y-63952381D02*
X102274190Y-63952381D01*
X102369429Y-63904762D01*
X102417048Y-63857143D01*
X102512286Y-63714286D01*
X102559905Y-63523810D01*
X102559905Y-63142857D01*
X102512286Y-63047619D01*
X102464667Y-63000000D01*
X102369429Y-62952381D01*
X102178952Y-62952381D01*
X102083714Y-63000000D01*
X102036095Y-63047619D01*
X101988476Y-63142857D01*
X101988476Y-63380952D01*
X102036095Y-63476190D01*
X102083714Y-63523810D01*
X102178952Y-63571429D01*
X102369429Y-63571429D01*
X102464667Y-63523810D01*
X102512286Y-63476190D01*
X102559905Y-63380952D01*
X100655143Y-69032381D02*
X100321809Y-68556190D01*
X100083714Y-69032381D02*
X100083714Y-68032381D01*
X100464667Y-68032381D01*
X100559905Y-68080000D01*
X100607524Y-68127619D01*
X100655143Y-68222857D01*
X100655143Y-68365714D01*
X100607524Y-68460952D01*
X100559905Y-68508571D01*
X100464667Y-68556190D01*
X100083714Y-68556190D01*
X101036095Y-68127619D02*
X101083714Y-68080000D01*
X101178952Y-68032381D01*
X101417048Y-68032381D01*
X101512286Y-68080000D01*
X101559905Y-68127619D01*
X101607524Y-68222857D01*
X101607524Y-68318095D01*
X101559905Y-68460952D01*
X100988476Y-69032381D01*
X101607524Y-69032381D01*
X102226571Y-68032381D02*
X102321810Y-68032381D01*
X102417048Y-68080000D01*
X102464667Y-68127619D01*
X102512286Y-68222857D01*
X102559905Y-68413333D01*
X102559905Y-68651429D01*
X102512286Y-68841905D01*
X102464667Y-68937143D01*
X102417048Y-68984762D01*
X102321810Y-69032381D01*
X102226571Y-69032381D01*
X102131333Y-68984762D01*
X102083714Y-68937143D01*
X102036095Y-68841905D01*
X101988476Y-68651429D01*
X101988476Y-68413333D01*
X102036095Y-68222857D01*
X102083714Y-68127619D01*
X102131333Y-68080000D01*
X102226571Y-68032381D01*
X100655143Y-79192381D02*
X100321809Y-78716190D01*
X100083714Y-79192381D02*
X100083714Y-78192381D01*
X100464667Y-78192381D01*
X100559905Y-78240000D01*
X100607524Y-78287619D01*
X100655143Y-78382857D01*
X100655143Y-78525714D01*
X100607524Y-78620952D01*
X100559905Y-78668571D01*
X100464667Y-78716190D01*
X100083714Y-78716190D01*
X101036095Y-78287619D02*
X101083714Y-78240000D01*
X101178952Y-78192381D01*
X101417048Y-78192381D01*
X101512286Y-78240000D01*
X101559905Y-78287619D01*
X101607524Y-78382857D01*
X101607524Y-78478095D01*
X101559905Y-78620952D01*
X100988476Y-79192381D01*
X101607524Y-79192381D01*
X101988476Y-78287619D02*
X102036095Y-78240000D01*
X102131333Y-78192381D01*
X102369429Y-78192381D01*
X102464667Y-78240000D01*
X102512286Y-78287619D01*
X102559905Y-78382857D01*
X102559905Y-78478095D01*
X102512286Y-78620952D01*
X101940857Y-79192381D01*
X102559905Y-79192381D01*
X100655143Y-84272381D02*
X100321809Y-83796190D01*
X100083714Y-84272381D02*
X100083714Y-83272381D01*
X100464667Y-83272381D01*
X100559905Y-83320000D01*
X100607524Y-83367619D01*
X100655143Y-83462857D01*
X100655143Y-83605714D01*
X100607524Y-83700952D01*
X100559905Y-83748571D01*
X100464667Y-83796190D01*
X100083714Y-83796190D01*
X101036095Y-83367619D02*
X101083714Y-83320000D01*
X101178952Y-83272381D01*
X101417048Y-83272381D01*
X101512286Y-83320000D01*
X101559905Y-83367619D01*
X101607524Y-83462857D01*
X101607524Y-83558095D01*
X101559905Y-83700952D01*
X100988476Y-84272381D01*
X101607524Y-84272381D01*
X101940857Y-83272381D02*
X102559905Y-83272381D01*
X102226571Y-83653333D01*
X102369429Y-83653333D01*
X102464667Y-83700952D01*
X102512286Y-83748571D01*
X102559905Y-83843810D01*
X102559905Y-84081905D01*
X102512286Y-84177143D01*
X102464667Y-84224762D01*
X102369429Y-84272381D01*
X102083714Y-84272381D01*
X101988476Y-84224762D01*
X101940857Y-84177143D01*
X100655143Y-89352381D02*
X100321809Y-88876190D01*
X100083714Y-89352381D02*
X100083714Y-88352381D01*
X100464667Y-88352381D01*
X100559905Y-88400000D01*
X100607524Y-88447619D01*
X100655143Y-88542857D01*
X100655143Y-88685714D01*
X100607524Y-88780952D01*
X100559905Y-88828571D01*
X100464667Y-88876190D01*
X100083714Y-88876190D01*
X101036095Y-88447619D02*
X101083714Y-88400000D01*
X101178952Y-88352381D01*
X101417048Y-88352381D01*
X101512286Y-88400000D01*
X101559905Y-88447619D01*
X101607524Y-88542857D01*
X101607524Y-88638095D01*
X101559905Y-88780952D01*
X100988476Y-89352381D01*
X101607524Y-89352381D01*
X102464667Y-88685714D02*
X102464667Y-89352381D01*
X102226571Y-88304762D02*
X101988476Y-89019048D01*
X102607524Y-89019048D01*
D12*
X108628571Y-42199286D02*
X107128571Y-42199286D01*
X107128571Y-41627858D01*
X107200000Y-41485000D01*
X107271429Y-41413572D01*
X107414286Y-41342143D01*
X107628571Y-41342143D01*
X107771429Y-41413572D01*
X107842857Y-41485000D01*
X107914286Y-41627858D01*
X107914286Y-42199286D01*
X107128571Y-40413572D02*
X107128571Y-40127858D01*
X107200000Y-39985000D01*
X107342857Y-39842143D01*
X107628571Y-39770715D01*
X108128571Y-39770715D01*
X108414286Y-39842143D01*
X108557143Y-39985000D01*
X108628571Y-40127858D01*
X108628571Y-40413572D01*
X108557143Y-40556429D01*
X108414286Y-40699286D01*
X108128571Y-40770715D01*
X107628571Y-40770715D01*
X107342857Y-40699286D01*
X107200000Y-40556429D01*
X107128571Y-40413572D01*
X107128571Y-39270714D02*
X108628571Y-38913571D01*
X107557143Y-38627857D01*
X108628571Y-38342143D01*
X107128571Y-37985000D01*
X107842857Y-37413571D02*
X107842857Y-36913571D01*
X108628571Y-36699285D02*
X108628571Y-37413571D01*
X107128571Y-37413571D01*
X107128571Y-36699285D01*
X108628571Y-35199285D02*
X107914286Y-35699285D01*
X108628571Y-36056428D02*
X107128571Y-36056428D01*
X107128571Y-35485000D01*
X107200000Y-35342142D01*
X107271429Y-35270714D01*
X107414286Y-35199285D01*
X107628571Y-35199285D01*
X107771429Y-35270714D01*
X107842857Y-35342142D01*
X107914286Y-35485000D01*
X107914286Y-36056428D01*
D15*
X71842381Y-25526905D02*
X72651905Y-25526905D01*
X72747143Y-25479286D01*
X72794762Y-25431667D01*
X72842381Y-25336429D01*
X72842381Y-25145952D01*
X72794762Y-25050714D01*
X72747143Y-25003095D01*
X72651905Y-24955476D01*
X71842381Y-24955476D01*
X71937619Y-24526905D02*
X71890000Y-24479286D01*
X71842381Y-24384048D01*
X71842381Y-24145952D01*
X71890000Y-24050714D01*
X71937619Y-24003095D01*
X72032857Y-23955476D01*
X72128095Y-23955476D01*
X72270952Y-24003095D01*
X72842381Y-24574524D01*
X72842381Y-23955476D01*
X90003334Y-31472143D02*
X89955715Y-31519762D01*
X89812858Y-31567381D01*
X89717620Y-31567381D01*
X89574762Y-31519762D01*
X89479524Y-31424524D01*
X89431905Y-31329286D01*
X89384286Y-31138810D01*
X89384286Y-30995952D01*
X89431905Y-30805476D01*
X89479524Y-30710238D01*
X89574762Y-30615000D01*
X89717620Y-30567381D01*
X89812858Y-30567381D01*
X89955715Y-30615000D01*
X90003334Y-30662619D01*
X90336667Y-30567381D02*
X91003334Y-30567381D01*
X90574762Y-31567381D01*
X81748334Y-30202143D02*
X81700715Y-30249762D01*
X81557858Y-30297381D01*
X81462620Y-30297381D01*
X81319762Y-30249762D01*
X81224524Y-30154524D01*
X81176905Y-30059286D01*
X81129286Y-29868810D01*
X81129286Y-29725952D01*
X81176905Y-29535476D01*
X81224524Y-29440238D01*
X81319762Y-29345000D01*
X81462620Y-29297381D01*
X81557858Y-29297381D01*
X81700715Y-29345000D01*
X81748334Y-29392619D01*
X82224524Y-30297381D02*
X82415000Y-30297381D01*
X82510239Y-30249762D01*
X82557858Y-30202143D01*
X82653096Y-30059286D01*
X82700715Y-29868810D01*
X82700715Y-29487857D01*
X82653096Y-29392619D01*
X82605477Y-29345000D01*
X82510239Y-29297381D01*
X82319762Y-29297381D01*
X82224524Y-29345000D01*
X82176905Y-29392619D01*
X82129286Y-29487857D01*
X82129286Y-29725952D01*
X82176905Y-29821190D01*
X82224524Y-29868810D01*
X82319762Y-29916429D01*
X82510239Y-29916429D01*
X82605477Y-29868810D01*
X82653096Y-29821190D01*
X82700715Y-29725952D01*
M02*
