M48
;DRILL file {KiCad 4.0.2+e4-6225~38~ubuntu14.04.1-stable} date Sa 25 Jun 2016 13:28:20 CEST
;FORMAT={-:-/ absolute / inch / decimal}
FMAT,2
INCH,TZ
T1C0.016
T2C0.028
T3C0.031
T4C0.039
T5C0.040
T6C0.050
T7C0.118
%
G90
G05
M72
T1
X2.3705Y-1.4618
X2.7311Y-2.2176
X2.7654Y-1.7173
X2.9375Y-2.9739
X3.1894Y-2.2904
T2
X3.275Y-2.4999
X3.275Y-2.6999
X3.275Y-2.8999
X3.275Y-3.0999
X3.275Y-3.2999
X3.275Y-3.4999
X3.675Y-2.4999
X3.675Y-2.6999
X3.675Y-2.8999
X3.675Y-3.0999
X3.675Y-3.2999
X3.675Y-3.4999
T3
X1.55Y-2.5
X1.55Y-2.7
X1.55Y-2.9
X1.55Y-3.1
X1.55Y-3.3
X1.55Y-3.5
X1.6681Y-2.5
X1.6681Y-2.7
X1.6681Y-2.9
X1.6681Y-3.1
X1.6681Y-3.3
X1.6681Y-3.5
X2.24Y-0.95
X2.24Y-1.05
X2.24Y-1.15
X2.24Y-1.25
X2.24Y-1.35
X2.24Y-1.45
X2.24Y-1.55
X2.54Y-0.95
X2.54Y-1.05
X2.54Y-1.15
X2.54Y-1.25
X2.54Y-1.35
X2.54Y-1.45
X2.54Y-1.55
X2.725Y-0.9569
X2.725Y-1.075
X2.975Y-0.875
X2.975Y-0.975
X2.975Y-1.075
X3.175Y-1.025
X3.2734Y-1.025
X3.5Y-1.025
X3.5984Y-1.025
T4
X1.85Y-2.5
X1.85Y-2.7
X1.85Y-2.9
X1.85Y-3.1
X1.85Y-3.3
X1.85Y-3.5
X2.15Y-2.5
X2.15Y-2.7
X2.15Y-2.9
X2.15Y-3.1
X2.15Y-3.3
X2.15Y-3.5
X2.325Y-2.5
X2.325Y-2.7
X2.325Y-2.9
X2.325Y-3.1
X2.325Y-3.3
X2.325Y-3.5
X2.625Y-2.5
X2.625Y-2.7
X2.625Y-2.9
X2.625Y-3.1
X2.625Y-3.3
X2.625Y-3.5
X2.7251Y-1.2
X2.8Y-2.5
X2.8Y-2.7
X2.8Y-2.9
X2.8Y-3.1
X2.8Y-3.3
X2.8Y-3.5
X2.8751Y-1.2
X3.1Y-2.5
X3.1Y-2.7
X3.1Y-2.9
X3.1Y-3.1
X3.1Y-3.3
X3.1Y-3.5
X3.825Y-0.925
X3.87Y-2.5
X3.87Y-2.7
X3.87Y-2.9
X3.87Y-3.1
X3.87Y-3.3
X3.87Y-3.5
X4.125Y-0.925
X4.17Y-2.5
X4.17Y-2.7
X4.17Y-2.9
X4.17Y-3.1
X4.17Y-3.3
X4.17Y-3.5
T5
X1.1Y-1.875
X1.1Y-3.85
X1.2Y-1.875
X1.2Y-3.85
X1.275Y-1.35
X1.275Y-1.45
X1.275Y-1.55
X1.3Y-1.875
X1.3Y-3.85
X1.4Y-1.875
X1.4Y-3.85
X1.5Y-1.875
X1.5Y-3.85
X1.6Y-1.875
X1.6Y-3.85
X1.7Y-1.875
X1.7Y-3.85
X1.75Y-1.35
X1.75Y-1.45
X1.75Y-1.55
X1.8Y-1.875
X1.8Y-3.85
X2.3Y-1.875
X2.3Y-3.85
X2.4Y-1.875
X2.4Y-3.85
X2.5Y-1.875
X2.5Y-3.85
X2.6Y-1.875
X2.6Y-3.85
X2.7Y-1.875
X2.7Y-3.85
X2.8Y-1.875
X2.8Y-3.85
X2.9Y-1.875
X2.9Y-3.85
X3.Y-1.875
X3.Y-3.85
X3.5Y-1.875
X3.5Y-3.85
X3.6Y-1.875
X3.6Y-3.85
X3.7Y-1.875
X3.7Y-3.85
X3.8Y-1.875
X3.8Y-3.85
X3.9Y-1.875
X3.9Y-3.85
X4.Y-1.875
X4.Y-3.85
X4.1Y-1.875
X4.1Y-3.85
X4.125Y-1.1
X4.125Y-1.2
X4.125Y-1.3
X4.125Y-1.4
X4.125Y-1.5
X4.125Y-1.6
X4.2Y-1.875
X4.2Y-3.85
T6
X2.7251Y-1.6
X2.8751Y-1.6
T7
X1.12Y-2.29
X2.05Y-4.04
X3.26Y-4.04
X3.47Y-1.43
T0
M30
