G04 #@! TF.FileFunction,Copper,L1,Top,Signal*
%FSLAX46Y46*%
G04 Gerber Fmt 4.6, Leading zero omitted, Abs format (unit mm)*
G04 Created by KiCad (PCBNEW 4.0.2+e4-6225~38~ubuntu14.04.1-stable) date Sa 25 Jun 2016 13:28:15 CEST*
%MOMM*%
G01*
G04 APERTURE LIST*
%ADD10C,0.100000*%
%ADD11O,2.500000X2.000000*%
%ADD12R,1.300000X1.300000*%
%ADD13C,1.300000*%
%ADD14C,1.699260*%
%ADD15R,1.699260X1.699260*%
%ADD16C,1.998980*%
%ADD17R,1.998980X1.998980*%
%ADD18O,2.300000X1.600000*%
%ADD19R,1.727200X2.032000*%
%ADD20O,1.727200X2.032000*%
%ADD21R,2.032000X1.727200*%
%ADD22O,2.032000X1.727200*%
%ADD23C,1.524000*%
%ADD24C,1.500000*%
%ADD25C,4.000000*%
%ADD26C,0.600000*%
%ADD27C,0.250000*%
G04 APERTURE END LIST*
D10*
D11*
X98298000Y-73660000D03*
X105918000Y-73660000D03*
X104775000Y-23495000D03*
X97155000Y-23495000D03*
D12*
X39370000Y-63500000D03*
D13*
X42370000Y-63500000D03*
D12*
X69215000Y-27305000D03*
D13*
X69215000Y-24305000D03*
D14*
X93345520Y-63497460D03*
D15*
X83185520Y-63497460D03*
D16*
X73027540Y-40640000D03*
D17*
X73027540Y-30480000D03*
D16*
X69217540Y-40640000D03*
D17*
X69217540Y-30480000D03*
D18*
X56896000Y-24130000D03*
X56896000Y-26670000D03*
X56896000Y-29210000D03*
X56896000Y-31750000D03*
X56896000Y-34290000D03*
X56896000Y-36830000D03*
X56896000Y-39370000D03*
X64516000Y-39370000D03*
X64516000Y-36830000D03*
X64516000Y-34290000D03*
X64516000Y-31750000D03*
X64516000Y-29210000D03*
X64516000Y-26670000D03*
X64516000Y-24130000D03*
D11*
X59055000Y-63500000D03*
X66675000Y-63500000D03*
X71120000Y-63500000D03*
X78740000Y-63500000D03*
D12*
X39370000Y-68580000D03*
D13*
X42370000Y-68580000D03*
D12*
X39370000Y-73660000D03*
D13*
X42370000Y-73660000D03*
D12*
X39370000Y-78740000D03*
D13*
X42370000Y-78740000D03*
D12*
X39370000Y-83820000D03*
D13*
X42370000Y-83820000D03*
D12*
X39370000Y-88900000D03*
D13*
X42370000Y-88900000D03*
D14*
X93345520Y-68577460D03*
D15*
X83185520Y-68577460D03*
D14*
X93345520Y-73657460D03*
D15*
X83185520Y-73657460D03*
D14*
X93345520Y-78737460D03*
D15*
X83185520Y-78737460D03*
D14*
X93345520Y-83817460D03*
D15*
X83185520Y-83817460D03*
D14*
X93345520Y-88897460D03*
D15*
X83185520Y-88897460D03*
D19*
X27940000Y-47625000D03*
D20*
X30480000Y-47625000D03*
X33020000Y-47625000D03*
X35560000Y-47625000D03*
X38100000Y-47625000D03*
X40640000Y-47625000D03*
X43180000Y-47625000D03*
X45720000Y-47625000D03*
D19*
X58420000Y-47625000D03*
D20*
X60960000Y-47625000D03*
X63500000Y-47625000D03*
X66040000Y-47625000D03*
X68580000Y-47625000D03*
X71120000Y-47625000D03*
X73660000Y-47625000D03*
X76200000Y-47625000D03*
D19*
X88900000Y-47625000D03*
D20*
X91440000Y-47625000D03*
X93980000Y-47625000D03*
X96520000Y-47625000D03*
X99060000Y-47625000D03*
X101600000Y-47625000D03*
X104140000Y-47625000D03*
X106680000Y-47625000D03*
D19*
X27940000Y-97790000D03*
D20*
X30480000Y-97790000D03*
X33020000Y-97790000D03*
X35560000Y-97790000D03*
X38100000Y-97790000D03*
X40640000Y-97790000D03*
X43180000Y-97790000D03*
X45720000Y-97790000D03*
D19*
X58420000Y-97790000D03*
D20*
X60960000Y-97790000D03*
X63500000Y-97790000D03*
X66040000Y-97790000D03*
X68580000Y-97790000D03*
X71120000Y-97790000D03*
X73660000Y-97790000D03*
X76200000Y-97790000D03*
D19*
X88900000Y-97790000D03*
D20*
X91440000Y-97790000D03*
X93980000Y-97790000D03*
X96520000Y-97790000D03*
X99060000Y-97790000D03*
X101600000Y-97790000D03*
X104140000Y-97790000D03*
X106680000Y-97790000D03*
D21*
X44450000Y-34290000D03*
D22*
X44450000Y-36830000D03*
X44450000Y-39370000D03*
D21*
X32385000Y-34290000D03*
D22*
X32385000Y-36830000D03*
X32385000Y-39370000D03*
D11*
X46990000Y-63500000D03*
X54610000Y-63500000D03*
X46990000Y-68580000D03*
X54610000Y-68580000D03*
X59055000Y-68580000D03*
X66675000Y-68580000D03*
X46990000Y-73660000D03*
X54610000Y-73660000D03*
X59055000Y-73660000D03*
X66675000Y-73660000D03*
X46990000Y-78740000D03*
X54610000Y-78740000D03*
X59055000Y-78740000D03*
X66675000Y-78740000D03*
X46990000Y-83820000D03*
X54610000Y-83820000D03*
X59055000Y-83820000D03*
X66675000Y-83820000D03*
X46990000Y-88900000D03*
X54610000Y-88900000D03*
X59055000Y-88900000D03*
X66675000Y-88900000D03*
X71120000Y-68580000D03*
X78740000Y-68580000D03*
X71120000Y-73660000D03*
X78740000Y-73660000D03*
X71120000Y-78740000D03*
X78740000Y-78740000D03*
X71120000Y-83820000D03*
X78740000Y-83820000D03*
X71120000Y-88900000D03*
X78740000Y-88900000D03*
X98298000Y-63500000D03*
X105918000Y-63500000D03*
X98298000Y-68580000D03*
X105918000Y-68580000D03*
X98298000Y-78740000D03*
X105918000Y-78740000D03*
X98298000Y-83820000D03*
X105918000Y-83820000D03*
X98298000Y-88900000D03*
X105918000Y-88900000D03*
D21*
X104775000Y-27940000D03*
D22*
X104775000Y-30480000D03*
X104775000Y-33020000D03*
X104775000Y-35560000D03*
X104775000Y-38100000D03*
X104775000Y-40640000D03*
D23*
X75565000Y-24765000D03*
X75565000Y-22225000D03*
X75565000Y-27305000D03*
D24*
X91400000Y-26035000D03*
D12*
X88900000Y-26035000D03*
X80645000Y-26035000D03*
D24*
X83145000Y-26035000D03*
D25*
X82804000Y-102616000D03*
X52070000Y-102616000D03*
X88138000Y-36322000D03*
X28448000Y-58166000D03*
D26*
X60210500Y-37129400D03*
X69370600Y-56326500D03*
X70240400Y-43619700D03*
X74611300Y-75537000D03*
X81010600Y-58176600D03*
D27*
X45414700Y-63500000D02*
X46990000Y-63500000D01*
X44439400Y-62524700D02*
X45414700Y-63500000D01*
X41320600Y-62524700D02*
X44439400Y-62524700D01*
X40345300Y-63500000D02*
X41320600Y-62524700D01*
X39370000Y-63500000D02*
X40345300Y-63500000D01*
X46990000Y-64825300D02*
X46990000Y-63500000D01*
X55467100Y-64825300D02*
X46990000Y-64825300D01*
X58117700Y-62174700D02*
X55467100Y-64825300D01*
X66675000Y-62174700D02*
X58117700Y-62174700D01*
X66675000Y-63500000D02*
X66675000Y-62174700D01*
X44450000Y-35478900D02*
X44450000Y-34290000D01*
X45085000Y-35478900D02*
X44450000Y-35478900D01*
X57231100Y-47625000D02*
X45085000Y-35478900D01*
X58420000Y-47625000D02*
X57231100Y-47625000D01*
X81875000Y-24765000D02*
X83145000Y-26035000D01*
X75565000Y-24765000D02*
X81875000Y-24765000D01*
X70499500Y-44245000D02*
X73027500Y-41717000D01*
X62468800Y-44245000D02*
X70499500Y-44245000D01*
X59608900Y-47104900D02*
X62468800Y-44245000D01*
X59608900Y-47625000D02*
X59608900Y-47104900D01*
X58420000Y-47625000D02*
X59608900Y-47625000D01*
X73027500Y-41717000D02*
X73027500Y-40640000D01*
X87711100Y-47625000D02*
X88900000Y-47625000D01*
X81803100Y-41717000D02*
X87711100Y-47625000D01*
X73027500Y-41717000D02*
X81803100Y-41717000D01*
X103427000Y-38622800D02*
X103427000Y-30480000D01*
X104255000Y-39451100D02*
X103427000Y-38622800D01*
X104775000Y-39451100D02*
X104255000Y-39451100D01*
X104775000Y-40640000D02*
X104775000Y-39451100D01*
X95845000Y-30480000D02*
X103427000Y-30480000D01*
X91400000Y-26035000D02*
X95845000Y-30480000D01*
X103427000Y-30480000D02*
X104775000Y-30480000D01*
X40345300Y-68580000D02*
X39370000Y-68580000D01*
X41321900Y-69556600D02*
X40345300Y-68580000D01*
X44438100Y-69556600D02*
X41321900Y-69556600D01*
X45414700Y-68580000D02*
X44438100Y-69556600D01*
X46990000Y-68580000D02*
X45414700Y-68580000D01*
X66675000Y-67254700D02*
X66675000Y-68580000D01*
X46990000Y-67254700D02*
X66675000Y-67254700D01*
X46990000Y-68580000D02*
X46990000Y-67254700D01*
X40345300Y-73660000D02*
X39370000Y-73660000D01*
X41321900Y-74636600D02*
X40345300Y-73660000D01*
X44438100Y-74636600D02*
X41321900Y-74636600D01*
X45414700Y-73660000D02*
X44438100Y-74636600D01*
X46990000Y-73660000D02*
X45414700Y-73660000D01*
X66675000Y-72334700D02*
X66675000Y-73660000D01*
X46990000Y-72334700D02*
X66675000Y-72334700D01*
X46990000Y-73660000D02*
X46990000Y-72334700D01*
X45414700Y-78740000D02*
X46990000Y-78740000D01*
X44439400Y-79715300D02*
X45414700Y-78740000D01*
X41320600Y-79715300D02*
X44439400Y-79715300D01*
X40345300Y-78740000D02*
X41320600Y-79715300D01*
X39370000Y-78740000D02*
X40345300Y-78740000D01*
X45414700Y-83820000D02*
X46990000Y-83820000D01*
X44439400Y-84795300D02*
X45414700Y-83820000D01*
X41320600Y-84795300D02*
X44439400Y-84795300D01*
X40345300Y-83820000D02*
X41320600Y-84795300D01*
X39370000Y-83820000D02*
X40345300Y-83820000D01*
X60210500Y-36592400D02*
X60210500Y-37129400D01*
X63927600Y-32875300D02*
X60210500Y-36592400D01*
X64516000Y-32875300D02*
X63927600Y-32875300D01*
X64516000Y-31750000D02*
X64516000Y-32875300D01*
X45414700Y-88900000D02*
X46990000Y-88900000D01*
X44439400Y-89875300D02*
X45414700Y-88900000D01*
X41320600Y-89875300D02*
X44439400Y-89875300D01*
X40345300Y-88900000D02*
X41320600Y-89875300D01*
X39370000Y-88900000D02*
X40345300Y-88900000D01*
X37576100Y-26670000D02*
X56896000Y-26670000D01*
X31043600Y-33202500D02*
X37576100Y-26670000D01*
X31043600Y-44757200D02*
X31043600Y-33202500D01*
X32530100Y-46243700D02*
X31043600Y-44757200D01*
X31668900Y-47104900D02*
X32530100Y-46243700D01*
X31668900Y-47625000D02*
X31668900Y-47104900D01*
X30480000Y-47625000D02*
X31668900Y-47625000D01*
X69544700Y-63500000D02*
X71120000Y-63500000D01*
X67234000Y-61189300D02*
X69544700Y-63500000D01*
X54856200Y-61189300D02*
X67234000Y-61189300D01*
X41910000Y-48243100D02*
X54856200Y-61189300D01*
X41910000Y-46993400D02*
X41910000Y-48243100D01*
X41160300Y-46243700D02*
X41910000Y-46993400D01*
X32530100Y-46243700D02*
X41160300Y-46243700D01*
X62148900Y-49104800D02*
X69370600Y-56326500D01*
X62148900Y-47625000D02*
X62148900Y-49104800D01*
X60960000Y-47625000D02*
X62148900Y-47625000D01*
X90251100Y-47625000D02*
X91440000Y-47625000D01*
X90251100Y-46584700D02*
X90251100Y-47625000D01*
X81621700Y-37955300D02*
X90251100Y-46584700D01*
X56896000Y-37955300D02*
X81621700Y-37955300D01*
X56896000Y-36830000D02*
X56896000Y-37955300D01*
X65991300Y-39370600D02*
X70240400Y-43619700D01*
X65991300Y-39370000D02*
X65991300Y-39370600D01*
X64516000Y-39370000D02*
X65991300Y-39370000D01*
X31668900Y-97790000D02*
X30480000Y-97790000D01*
X31668900Y-98310100D02*
X31668900Y-97790000D01*
X32528100Y-99169300D02*
X31668900Y-98310100D01*
X41116700Y-99169300D02*
X32528100Y-99169300D01*
X41829000Y-98457000D02*
X41116700Y-99169300D01*
X41829000Y-97140600D02*
X41829000Y-98457000D01*
X44801100Y-94168500D02*
X41829000Y-97140600D01*
X45119700Y-94168500D02*
X44801100Y-94168500D01*
X53390000Y-85898200D02*
X45119700Y-94168500D01*
X61641400Y-85898200D02*
X53390000Y-85898200D01*
X68799600Y-78740000D02*
X61641400Y-85898200D01*
X71120000Y-78740000D02*
X68799600Y-78740000D01*
X90251100Y-97790000D02*
X91440000Y-97790000D01*
X90251100Y-98830300D02*
X90251100Y-97790000D01*
X89949300Y-99132100D02*
X90251100Y-98830300D01*
X75705100Y-99132100D02*
X89949300Y-99132100D01*
X74930000Y-98357000D02*
X75705100Y-99132100D01*
X74930000Y-94035300D02*
X74930000Y-98357000D01*
X71120000Y-90225300D02*
X74930000Y-94035300D01*
X71120000Y-88900000D02*
X71120000Y-90225300D01*
X49563800Y-63500000D02*
X54610000Y-63500000D01*
X34208900Y-48145100D02*
X49563800Y-63500000D01*
X34208900Y-47625000D02*
X34208900Y-48145100D01*
X33020000Y-47625000D02*
X34208900Y-47625000D01*
X40640000Y-47625000D02*
X38100000Y-47625000D01*
X44368900Y-47625000D02*
X43180000Y-47625000D01*
X44368900Y-48145100D02*
X44368900Y-47625000D01*
X56512600Y-60288800D02*
X44368900Y-48145100D01*
X76854100Y-60288800D02*
X56512600Y-60288800D01*
X78740000Y-62174700D02*
X76854100Y-60288800D01*
X78740000Y-63500000D02*
X78740000Y-62174700D01*
X105918000Y-64825300D02*
X105918000Y-63500000D01*
X97304600Y-64825300D02*
X105918000Y-64825300D01*
X91731500Y-59252200D02*
X97304600Y-64825300D01*
X58536100Y-59252200D02*
X91731500Y-59252200D01*
X46908900Y-47625000D02*
X58536100Y-59252200D01*
X45720000Y-47625000D02*
X46908900Y-47625000D01*
X71120000Y-47625000D02*
X68580000Y-47625000D01*
X77388900Y-47625000D02*
X76200000Y-47625000D01*
X85562200Y-55798300D02*
X77388900Y-47625000D01*
X100392000Y-55798300D02*
X85562200Y-55798300D01*
X107511000Y-62917300D02*
X100392000Y-55798300D01*
X107511000Y-65662100D02*
X107511000Y-62917300D01*
X105918000Y-67254700D02*
X107511000Y-65662100D01*
X105918000Y-68580000D02*
X105918000Y-67254700D01*
X55161700Y-75537000D02*
X74611300Y-75537000D01*
X54610000Y-74985300D02*
X55161700Y-75537000D01*
X54610000Y-73660000D02*
X54610000Y-74985300D01*
X101600000Y-47625000D02*
X99060000Y-47625000D01*
X34208900Y-97790000D02*
X33020000Y-97790000D01*
X34208900Y-97269900D02*
X34208900Y-97790000D01*
X38886300Y-92592500D02*
X34208900Y-97269900D01*
X45421900Y-92592500D02*
X38886300Y-92592500D01*
X48985000Y-89029400D02*
X45421900Y-92592500D01*
X48985000Y-85690300D02*
X48985000Y-89029400D01*
X54610000Y-80065300D02*
X48985000Y-85690300D01*
X54610000Y-78740000D02*
X54610000Y-80065300D01*
X40640000Y-97790000D02*
X38100000Y-97790000D01*
X43180000Y-96448700D02*
X43180000Y-97790000D01*
X44188800Y-96448700D02*
X43180000Y-96448700D01*
X53963600Y-86673900D02*
X44188800Y-96448700D01*
X72131400Y-86673900D02*
X53963600Y-86673900D01*
X78740000Y-80065300D02*
X72131400Y-86673900D01*
X78740000Y-78740000D02*
X78740000Y-80065300D01*
X45720000Y-95610000D02*
X45720000Y-97790000D01*
X54205700Y-87124300D02*
X45720000Y-95610000D01*
X98859000Y-87124300D02*
X54205700Y-87124300D01*
X105918000Y-80065300D02*
X98859000Y-87124300D01*
X105918000Y-78740000D02*
X105918000Y-80065300D01*
X71120000Y-97790000D02*
X68580000Y-97790000D01*
X105918000Y-85145300D02*
X105918000Y-83820000D01*
X98563700Y-92499600D02*
X105918000Y-85145300D01*
X82679300Y-92499600D02*
X98563700Y-92499600D01*
X77388900Y-97790000D02*
X82679300Y-92499600D01*
X76200000Y-97790000D02*
X77388900Y-97790000D01*
X92791100Y-97790000D02*
X93980000Y-97790000D01*
X92791100Y-98310100D02*
X92791100Y-97790000D01*
X91509000Y-99592200D02*
X92791100Y-98310100D01*
X73626100Y-99592200D02*
X91509000Y-99592200D01*
X72390000Y-98356100D02*
X73626100Y-99592200D01*
X72390000Y-97201000D02*
X72390000Y-98356100D01*
X65414300Y-90225300D02*
X72390000Y-97201000D01*
X54610000Y-90225300D02*
X65414300Y-90225300D01*
X54610000Y-88900000D02*
X54610000Y-90225300D01*
X106680000Y-90987300D02*
X106680000Y-97790000D01*
X105918000Y-90225300D02*
X106680000Y-90987300D01*
X105918000Y-88900000D02*
X105918000Y-90225300D01*
X98298000Y-62174700D02*
X98298000Y-63500000D01*
X94925200Y-58801900D02*
X98298000Y-62174700D01*
X65334000Y-58801900D02*
X94925200Y-58801900D01*
X48458300Y-41926200D02*
X65334000Y-58801900D01*
X40021200Y-41926200D02*
X48458300Y-41926200D01*
X33573900Y-35478900D02*
X40021200Y-41926200D01*
X32385000Y-35478900D02*
X33573900Y-35478900D01*
X32385000Y-34290000D02*
X32385000Y-35478900D01*
X104775000Y-36911100D02*
X104775000Y-38100000D01*
X105295000Y-36911100D02*
X104775000Y-36911100D01*
X106116000Y-36089800D02*
X105295000Y-36911100D01*
X106116000Y-26161700D02*
X106116000Y-36089800D01*
X104775000Y-24820300D02*
X106116000Y-26161700D01*
X104775000Y-23495000D02*
X104775000Y-24820300D01*
X75565000Y-26974800D02*
X75565000Y-27305000D01*
X76504800Y-26035000D02*
X75565000Y-26974800D01*
X80645000Y-26035000D02*
X76504800Y-26035000D01*
X71884800Y-26974800D02*
X69215000Y-24305000D01*
X75565000Y-26974800D02*
X71884800Y-26974800D01*
X69217500Y-30480000D02*
X73027500Y-30480000D01*
X92415300Y-23495000D02*
X97155000Y-23495000D01*
X89875300Y-26035000D02*
X92415300Y-23495000D01*
X88900000Y-26035000D02*
X89875300Y-26035000D01*
X91567400Y-65275600D02*
X93345500Y-63497500D01*
X59505300Y-65275600D02*
X91567400Y-65275600D01*
X59055000Y-64825300D02*
X59505300Y-65275600D01*
X59055000Y-63500000D02*
X59055000Y-64825300D01*
X36748900Y-47625000D02*
X35560000Y-47625000D01*
X36748900Y-48145100D02*
X36748900Y-47625000D01*
X50243500Y-61639700D02*
X36748900Y-48145100D01*
X66939000Y-61639700D02*
X50243500Y-61639700D01*
X70124600Y-64825300D02*
X66939000Y-61639700D01*
X80682800Y-64825300D02*
X70124600Y-64825300D01*
X82010600Y-63497500D02*
X80682800Y-64825300D01*
X83185500Y-63497500D02*
X82010600Y-63497500D01*
X92017700Y-69905300D02*
X93345500Y-68577500D01*
X59055000Y-69905300D02*
X92017700Y-69905300D01*
X59055000Y-68580000D02*
X59055000Y-69905300D01*
X77260400Y-58176600D02*
X81010600Y-58176600D01*
X67228900Y-48145100D02*
X77260400Y-58176600D01*
X67228900Y-47625000D02*
X67228900Y-48145100D01*
X66040000Y-47625000D02*
X67228900Y-47625000D01*
X59055000Y-74985300D02*
X59055000Y-73660000D01*
X74154900Y-74985300D02*
X59055000Y-74985300D01*
X74253600Y-74886600D02*
X74154900Y-74985300D01*
X74969100Y-74886600D02*
X74253600Y-74886600D01*
X75067800Y-74985300D02*
X74969100Y-74886600D01*
X92017700Y-74985300D02*
X75067800Y-74985300D01*
X93345500Y-73657500D02*
X92017700Y-74985300D01*
X59055000Y-77414700D02*
X59055000Y-78740000D01*
X59980900Y-76488800D02*
X59055000Y-77414700D01*
X91096800Y-76488800D02*
X59980900Y-76488800D01*
X93345500Y-78737500D02*
X91096800Y-76488800D01*
X36748900Y-97790000D02*
X35560000Y-97790000D01*
X36748900Y-97269900D02*
X36748900Y-97790000D01*
X40750900Y-93267900D02*
X36748900Y-97269900D01*
X45383400Y-93267900D02*
X40750900Y-93267900D01*
X53258000Y-85393300D02*
X45383400Y-93267900D01*
X55248100Y-85393300D02*
X53258000Y-85393300D01*
X63702200Y-76939200D02*
X55248100Y-85393300D01*
X80212300Y-76939200D02*
X63702200Y-76939200D01*
X82010600Y-78737500D02*
X80212300Y-76939200D01*
X83185500Y-78737500D02*
X82010600Y-78737500D01*
X86100600Y-83817500D02*
X93345500Y-83817500D01*
X79672700Y-77389600D02*
X86100600Y-83817500D01*
X64160100Y-77389600D02*
X79672700Y-77389600D01*
X59055000Y-82494700D02*
X64160100Y-77389600D01*
X59055000Y-83820000D02*
X59055000Y-82494700D01*
X92022700Y-87574700D02*
X93345500Y-88897500D01*
X59055000Y-87574700D02*
X92022700Y-87574700D01*
X59055000Y-88900000D02*
X59055000Y-87574700D01*
M02*
